Aykiz-SemiBold.ufo
<glyph name="exclam" format="2">
  <advance width="273"/>
  <unicode hex="0021"/>
  <outline>
    <contour>
      <point x="91.81200849320359" y="253.7580944149858" type="line"/>
      <point x="92.47647316258086" y="238.791818766631"/>
      <point x="104.80343467701536" y="227.0"/>
      <point x="119.78445333661888" y="227.0" type="curve"/>
      <point x="153.27205530228537" y="227.0" type="line"/>
      <point x="168.2302164884468" y="227.0"/>
      <point x="180.54684061202238" y="238.7570731584809"/>
      <point x="181.2418177124712" y="253.69908081813088" type="curve"/>
      <point x="200.6371665496805" y="670.6990808181309" type="line"/>
      <point x="201.3793724198411" y="686.6565070265834"/>
      <point x="188.64208162456177" y="700.0"/>
      <point x="172.66740413949466" y="700.0" type="curve"/>
      <point x="101.27071126473727" y="700.0" type="line"/>
      <point x="85.31932540797314" y="700.0"/>
      <point x="72.5907623075994" y="686.6937823097846"/>
      <point x="73.29826642132198" y="670.7580944149857" type="curve"/>
    </contour>
    <contour>
      <point x="137" y="-6" type="curve" smooth="yes"/>
      <point x="179" y="-6"/>
      <point x="209" y="26"/>
      <point x="209" y="65" type="curve" smooth="yes"/>
      <point x="209" y="105"/>
      <point x="179" y="136"/>
      <point x="137" y="136" type="curve" smooth="yes"/>
      <point x="95" y="136"/>
      <point x="64" y="105"/>
      <point x="64" y="65" type="curve" smooth="yes"/>
      <point x="64" y="26"/>
      <point x="95" y="-6"/>
    </contour>
  </outline>
</glyph>
<glyph name="numbersign" format="2">
  <advance width="707"/>
  <unicode hex="0023"/>
  <outline>
    <contour>
      <point x="403.8594746782604" y="31.41432877653842" type="line"/>
      <point x="401.80865283113417" y="14.721592811557104"/>
      <point x="414.8322796620364" y="0.0"/>
      <point x="431.6505228593871" y="0.0" type="curve"/>
      <point x="456.2294771406129" y="0.0" type="line"/>
      <point x="470.37304871282817" y="0.0"/>
      <point x="482.29585377095225" y="10.547646972867053"/>
      <point x="484.02052532173957" y="24.585671223461585" type="curve"/>
      <point x="563.1405253217396" y="668.5856712234615" type="line"/>
      <point x="565.1913471688658" y="685.2784071884429"/>
      <point x="552.1677203379636" y="700.0"/>
      <point x="535.349477140613" y="700.0" type="curve"/>
      <point x="510.7705228593871" y="700.0" type="line"/>
      <point x="496.62695128717183" y="700.0"/>
      <point x="484.70414622904775" y="689.452353027133"/>
      <point x="482.97947467826043" y="675.4143287765385" type="curve"/>
    </contour>
    <contour>
      <point x="25.0" y="203.0" type="line"/>
      <point x="25.0" y="187.53602700473778"/>
      <point x="37.536027004737775" y="175.0"/>
      <point x="53.0" y="175.0" type="curve"/>
      <point x="621.0" y="175.0" type="line"/>
      <point x="636.4639729952622" y="175.0"/>
      <point x="649.0" y="187.53602700473778"/>
      <point x="649.0" y="203.0" type="curve"/>
      <point x="649.0" y="229.0" type="line"/>
      <point x="649.0" y="244.46397299526222"/>
      <point x="636.4639729952622" y="257.0"/>
      <point x="621.0" y="257.0" type="curve"/>
      <point x="53.0" y="257.0" type="line"/>
      <point x="37.536027004737775" y="257.0"/>
      <point x="25.0" y="244.46397299526222"/>
      <point x="25.0" y="229.0" type="curve"/>
    </contour>
    <contour>
      <point x="143.90921198383947" y="31.453429755030285" type="line"/>
      <point x="141.83295529472448" y="14.747916164449805"/>
      <point x="154.86138473716693" y="0.0"/>
      <point x="171.69542840362342" y="0.0" type="curve"/>
      <point x="196.26457159637658" y="0.0" type="line"/>
      <point x="210.39312750250875" y="0.0"/>
      <point x="222.30821746752318" y="10.525887669726663"/>
      <point x="224.0507880161605" y="24.546570244969708" type="curve"/>
      <point x="304.0907880161605" y="668.5465702449698" type="line"/>
      <point x="306.16704470527554" y="685.2520838355501"/>
      <point x="293.13861526283307" y="700.0"/>
      <point x="276.30457159637655" y="700.0" type="curve"/>
      <point x="251.73542840362342" y="700.0" type="line"/>
      <point x="237.60687249749125" y="700.0"/>
      <point x="225.69178253247682" y="689.4741123302733"/>
      <point x="223.9492119838395" y="675.4534297550302" type="curve"/>
    </contour>
    <contour>
      <point x="58.0" y="471.0" type="line"/>
      <point x="58.0" y="455.5360270047378"/>
      <point x="70.53602700473778" y="443.0"/>
      <point x="86.0" y="443.0" type="curve"/>
      <point x="653.6564545687812" y="443.0" type="line"/>
      <point x="669.2539397227512" y="443.0"/>
      <point x="681.8445717978104" y="455.745112579543"/>
      <point x="681.6543727069991" y="471.3414380260758" type="curve"/>
      <point x="681.3372995362673" y="497.3414380260758" type="line"/>
      <point x="681.1503524908084" y="512.6710957537133"/>
      <point x="668.6701790043164" y="525.0"/>
      <point x="653.3393813980495" y="525.0" type="curve"/>
      <point x="86.0" y="525.0" type="line"/>
      <point x="70.53602700473778" y="525.0"/>
      <point x="58.0" y="512.4639729952622"/>
      <point x="58.0" y="497.0" type="curve"/>
    </contour>
  </outline>
</glyph>
<glyph name="ampersand" format="2">
  <advance width="696"/>
  <unicode hex="0026"/>
  <outline>
    <contour>
      <point x="293" y="-9" type="curve" smooth="yes"/>
      <point x="467.56075236023844" y="-9.0"/>
      <point x="597.9653067764037" y="99.55065327917987"/>
      <point x="644.5093064431128" y="286.6531124734724" type="curve"/>
      <point x="647.9429719805466" y="300.45612189906933"/>
      <point x="639.7935073803167" y="314.3257110783238"/>
      <point x="626.2696552082767" y="318.73235953887615" type="curve"/>
      <point x="591.3294114567046" y="330.11738278377044" type="line"/>
      <point x="575.2558028832084" y="335.35485074592094"/>
      <point x="558.3155546727126" y="325.2313986932014"/>
      <point x="554.2092095109714" y="308.83231662617186" type="curve"/>
      <point x="516.5788585314091" y="158.55191163866223"/>
      <point x="422.7848541731223" y="83.0"/>
      <point x="300" y="83" type="curve" smooth="yes"/>
      <point x="210" y="83"/>
      <point x="151" y="125"/>
      <point x="151" y="187" type="curve" smooth="yes"/>
      <point x="151" y="246"/>
      <point x="187" y="287"/>
      <point x="303" y="346" type="curve" smooth="yes"/>
      <point x="448" y="417"/>
      <point x="504" y="474"/>
      <point x="504" y="557" type="curve" smooth="yes"/>
      <point x="504" y="650"/>
      <point x="433" y="707"/>
      <point x="324" y="707" type="curve" smooth="yes"/>
      <point x="205" y="707"/>
      <point x="128" y="642"/>
      <point x="128" y="546" type="curve" smooth="yes"/>
      <point x="128" y="490"/>
      <point x="152" y="443"/>
      <point x="222" y="376" type="curve" smooth="yes"/>
      <point x="596.3524459099053" y="10.155564224410664" type="line"/>
      <point x="608.0256847079796" y="-1.2523736918891917"/>
      <point x="626.9427049707872" y="-0.29807437922198865"/>
      <point x="637.4086194289192" y="12.22670849690327" type="curve"/>
      <point x="662.3777953242006" y="42.10785342076473" type="line"/>
      <point x="671.7578695635408" y="53.333188166204636"/>
      <point x="670.9159828022699" y="69.88737894156907"/>
      <point x="660.4454890529354" y="80.10318500510903" type="curve"/>
      <point x="309" y="423" type="line" smooth="yes"/>
      <point x="245" y="486"/>
      <point x="229" y="512"/>
      <point x="229" y="548" type="curve" smooth="yes"/>
      <point x="229" y="594"/>
      <point x="264" y="627"/>
      <point x="324" y="627" type="curve" smooth="yes"/>
      <point x="380" y="627"/>
      <point x="411" y="598"/>
      <point x="411" y="555" type="curve" smooth="yes"/>
      <point x="411" y="509"/>
      <point x="374" y="475"/>
      <point x="255" y="414" type="curve" smooth="yes"/>
      <point x="105" y="337"/>
      <point x="43" y="273"/>
      <point x="43" y="175" type="curve" smooth="yes"/>
      <point x="43" y="67"/>
      <point x="148" y="-9"/>
    </contour>
  </outline>
</glyph>
<glyph name="parenleft" format="2">
  <advance width="342"/>
  <unicode hex="0028"/>
  <outline>
    <contour>
      <point x="201.9125550149704" y="-180.92922948378532" type="curve"/>
      <point x="206.84731629094912" y="-189.13255106232728"/>
      <point x="215.7972747594848" y="-194.0"/>
      <point x="225.37048497194075" y="-194.0" type="curve"/>
      <point x="267.75" y="-194.0" type="line"/>
      <point x="288.82195034560857" y="-194.0"/>
      <point x="302.14749154203724" y="-171.17921275643297"/>
      <point x="292.6873880580186" y="-152.35015188130032" type="curve"/>
      <point x="226.6067588970511" y="-20.825566421863606"/>
      <point x="198.0" y="117.59652113570928"/>
      <point x="198" y="274" type="curve" smooth="yes"/>
      <point x="198.0" y="430.4034788642907"/>
      <point x="226.6067588970511" y="568.8255664218636"/>
      <point x="292.6873880580186" y="700.3501518813002" type="curve"/>
      <point x="302.14749154203724" y="719.1792127564329"/>
      <point x="288.82195034560857" y="742.0"/>
      <point x="267.75" y="742.0" type="curve"/>
      <point x="225.23275226334496" y="742.0" type="line"/>
      <point x="215.7348604592329" y="742.0"/>
      <point x="206.84245466358234" y="737.2100303754258"/>
      <point x="201.89655594770133" y="729.1015141970572" type="curve"/>
      <point x="129.98936662356743" y="611.2138174467017"/>
      <point x="90.0" y="451.4417687913483"/>
      <point x="90" y="274" type="curve" smooth="yes"/>
      <point x="90.0" y="96.54507160958383"/>
      <point x="129.99529829962347" y="-61.377269239155765"/>
    </contour>
  </outline>
</glyph>
<glyph name="parenright" format="2">
  <advance width="343"/>
  <unicode hex="0029"/>
  <outline>
    <contour>
      <point x="116.73611228356503" y="-194.0" type="line"/>
      <point x="126.25105124532085" y="-194.0"/>
      <point x="135.1550641862713" y="-189.19178192913373"/>
      <point x="140.10662347054512" y="-181.0667512153296" type="curve"/>
      <point x="212.9740207339396" y="-61.49838763329551"/>
      <point x="253.0" y="96.47702054861657"/>
      <point x="253" y="274" type="curve" smooth="yes"/>
      <point x="253.0" y="451.5109403785427"/>
      <point x="212.97944943214776" y="611.3383816689648"/>
      <point x="140.12144795849227" y="729.2393625118505" type="curve"/>
      <point x="135.1593609439465" y="737.2691590230029"/>
      <point x="126.3134116282706" y="742.0"/>
      <point x="116.87413519676173" y="742.0" type="curve"/>
      <point x="74.25" y="742.0" type="line"/>
      <point x="53.17804965439143" y="742.0"/>
      <point x="39.85469184220226" y="719.1809827864334"/>
      <point x="49.33296221642078" y="700.3610603083517" type="curve"/>
      <point x="115.57427818644828" y="568.8332200820364"/>
      <point x="145.0" y="430.40780281738125"/>
      <point x="145" y="274" type="curve" smooth="yes"/>
      <point x="145.0" y="117.59219718261875"/>
      <point x="115.57427818644828" y="-20.833220082036462"/>
      <point x="49.33296221642078" y="-152.3610603083517" type="curve"/>
      <point x="39.85469184220225" y="-171.1809827864334"/>
      <point x="53.17804965439143" y="-194.0"/>
      <point x="74.25" y="-194.0" type="curve"/>
    </contour>
  </outline>
</glyph>
<glyph name="asterisk" format="2">
  <advance width="408"/>
  <unicode hex="002A"/>
  <outline>
    <contour>
      <point x="365.523596268597" y="603.4019979269983" type="line"/>
      <point x="379.0415407801524" y="610.9119671000847"/>
      <point x="383.91196710008467" y="627.9584592198477"/>
      <point x="376.4019979269983" y="641.476403731403" type="curve"/>
      <point x="368.9792220187014" y="654.8374003663374" type="line"/>
      <point x="361.3220207221083" y="668.6203627002051"/>
      <point x="343.7994654104912" y="673.3658372046756"/>
      <point x="330.23343142369936" y="665.3305709201911" type="curve"/>
      <point x="230.3788703521943" y="606.1859462855305" type="line"/>
      <point x="227.96684596942384" y="604.7572856895819"/>
      <point x="227.97850053745077" y="601.2625413531537"/>
      <point x="230.4" y="599.85" type="curve"/>
      <point x="231.6" y="599.15" type="line"/>
      <point x="234.00328548887202" y="597.7480834648246"/>
      <point x="237.02376182191577" y="599.4692259997033"/>
      <point x="237.04281817232462" y="602.2514531593957" type="curve"/>
      <point x="237.80690564161947" y="713.808223676442" type="line"/>
      <point x="237.91333410495608" y="729.3467793235883"/>
      <point x="225.3464825260587" y="742.0"/>
      <point x="209.80756240214825" y="742.0" type="curve"/>
      <point x="198.19243759785175" y="742.0" type="line"/>
      <point x="182.6535174739413" y="742.0"/>
      <point x="170.08666589504392" y="729.3467793235883"/>
      <point x="170.19309435838053" y="713.808223676442" type="curve"/>
      <point x="170.95718182767538" y="602.2514531593957" type="line"/>
      <point x="170.97623817808423" y="599.4692259997033"/>
      <point x="173.99671451112798" y="597.7480834648246"/>
      <point x="176.4" y="599.15" type="curve"/>
      <point x="177.6" y="599.85" type="line"/>
      <point x="180.02149946254923" y="601.2625413531537"/>
      <point x="180.03315403057616" y="604.7572856895819"/>
      <point x="177.6211296478057" y="606.1859462855305" type="curve"/>
      <point x="77.76656857630061" y="665.3305709201911" type="line"/>
      <point x="64.20053458950876" y="673.3658372046756"/>
      <point x="46.67797927789174" y="668.6203627002051"/>
      <point x="39.02077798129858" y="654.8374003663374" type="curve"/>
      <point x="31.64058888409261" y="641.5530599913667" type="line"/>
      <point x="24.11400916073657" y="628.0052164893258"/>
      <point x="29.024280820130876" y="610.9204333712513"/>
      <point x="42.59559324442954" y="603.4362537254984" type="curve"/>
      <point x="145.72490358490754" y="546.5634722877348" type="line"/>
      <point x="149.44404825610968" y="544.5124733881748"/>
      <point x="154.0" y="547.2028087432601"/>
      <point x="154.0" y="551.45" type="curve"/>
      <point x="154.0" y="553.55" type="line"/>
      <point x="154.0" y="557.7971912567399"/>
      <point x="149.44404825610968" y="560.4875266118252"/>
      <point x="145.72490358490754" y="558.4365277122652" type="curve"/>
      <point x="42.763941567672674" y="501.65658542334893" type="line"/>
      <point x="29.12722636876834" y="494.13633807101195"/>
      <point x="24.246727597678227" y="476.9343682555414"/>
      <point x="31.90226028404191" y="463.37313892541147" type="curve"/>
      <point x="39.025775611136474" y="450.7543403459868" type="line"/>
      <point x="46.70913228352159" y="437.14382281204746"/>
      <point x="64.04749420449124" y="432.4585350733949"/>
      <point x="77.54036071110573" y="440.34667241572333" type="curve"/>
      <point x="177.60301393864307" y="498.84483891797595" type="line"/>
      <point x="180.01533610757596" y="500.25511957058285"/>
      <point x="180.01366932657268" y="503.74202622616593"/>
      <point x="177.6" y="505.15" type="curve"/>
      <point x="176.4" y="505.85" type="line"/>
      <point x="173.99671451112798" y="507.2519165351753"/>
      <point x="170.97623817808423" y="505.5307740002967"/>
      <point x="170.95718182767538" y="502.74854684060426" type="curve"/>
      <point x="170.19309435838053" y="391.19177632355803" type="line"/>
      <point x="170.08666589504392" y="375.65322067641176"/>
      <point x="182.6535174739413" y="363.0"/>
      <point x="198.19243759785175" y="363.0" type="curve"/>
      <point x="209.80756240214825" y="363.0" type="line"/>
      <point x="225.3464825260587" y="363.0"/>
      <point x="237.91333410495608" y="375.65322067641176"/>
      <point x="237.80690564161947" y="391.19177632355803" type="curve"/>
      <point x="237.04281817232462" y="502.74854684060426" type="line"/>
      <point x="237.02376182191577" y="505.5307740002967"/>
      <point x="234.00328548887202" y="507.2519165351753"/>
      <point x="231.6" y="505.85" type="curve"/>
      <point x="230.4" y="505.15" type="line"/>
      <point x="227.98633067342732" y="503.74202622616593"/>
      <point x="227.98466389242404" y="500.25511957058285"/>
      <point x="230.39698606135693" y="498.84483891797595" type="curve"/>
      <point x="330.45963928889427" y="440.34667241572333" type="line"/>
      <point x="343.9525057955087" y="432.4585350733949"/>
      <point x="361.29086771647843" y="437.14382281204746"/>
      <point x="368.97422438886355" y="450.7543403459868" type="curve"/>
      <point x="376.1411449526704" y="463.45002820187324" type="line"/>
      <point x="383.7798396764853" y="476.98143028405974"/>
      <point x="378.9392581384907" y="494.1448565897274"/>
      <point x="365.3560663709752" y="501.69107423834714" type="curve"/>
      <point x="263.26078625934855" y="558.410674300362" type="line"/>
      <point x="259.5545984783062" y="560.4696675120521"/>
      <point x="255.0" y="557.789726514073"/>
      <point x="255.0" y="553.55" type="curve"/>
      <point x="255.0" y="551.45" type="line"/>
      <point x="255.0" y="547.210273485927"/>
      <point x="259.5545984783062" y="544.5303324879479"/>
      <point x="263.26078625934855" y="546.589325699638" type="curve"/>
    </contour>
  </outline>
</glyph>
<glyph name="plus" format="2">
  <advance width="586"/>
  <unicode hex="002B"/>
  <outline>
    <contour>
      <point x="245.0" y="156.0" type="line"/>
      <point x="245.0" y="140.53602700473778"/>
      <point x="257.5360270047378" y="128.0"/>
      <point x="273.0" y="128.0" type="curve"/>
      <point x="313.0" y="128.0" type="line"/>
      <point x="328.4639729952622" y="128.0"/>
      <point x="341.0" y="140.53602700473778"/>
      <point x="341.0" y="156.0" type="curve"/>
      <point x="341.0" y="544.0" type="line"/>
      <point x="341.0" y="559.4639729952622"/>
      <point x="328.4639729952622" y="572.0"/>
      <point x="313.0" y="572.0" type="curve"/>
      <point x="273.0" y="572.0" type="line"/>
      <point x="257.5360270047378" y="572.0"/>
      <point x="245.0" y="559.4639729952622"/>
      <point x="245.0" y="544.0" type="curve"/>
    </contour>
    <contour>
      <point x="66.0" y="333.0" type="line"/>
      <point x="66.0" y="317.5360270047378"/>
      <point x="78.53602700473778" y="305.0"/>
      <point x="94.0" y="305.0" type="curve"/>
      <point x="492.0" y="305.0" type="line"/>
      <point x="507.4639729952622" y="305.0"/>
      <point x="520.0" y="317.5360270047378"/>
      <point x="520.0" y="333.0" type="curve"/>
      <point x="520.0" y="367.0" type="line"/>
      <point x="520.0" y="382.4639729952622"/>
      <point x="507.4639729952622" y="395.0"/>
      <point x="492.0" y="395.0" type="curve"/>
      <point x="94.0" y="395.0" type="line"/>
      <point x="78.53602700473778" y="395.0"/>
      <point x="66.0" y="382.4639729952622"/>
      <point x="66.0" y="367.0" type="curve"/>
    </contour>
  </outline>
</glyph>
<glyph name="comma" format="2">
  <advance width="235"/>
  <unicode hex="002C"/>
  <outline>
    <contour>
      <point x="58.96219211410291" y="-118.59357554992741" type="line"/>
      <point x="54.923108434738694" y="-134.52551672964182"/>
      <point x="66.96403496223034" y="-150.0"/>
      <point x="83.4" y="-150.0" type="curve"/>
      <point x="103.13453185941607" y="-150.0" type="line"/>
      <point x="115.03295809627672" y="-150.0"/>
      <point x="125.6319156767216" y="-142.48024092365256"/>
      <point x="129.56256583766455" y="-131.24981189238696" type="curve"/>
      <point x="172" y="-10" type="line" smooth="yes"/>
      <point x="187" y="32"/>
      <point x="192" y="49"/>
      <point x="192" y="70" type="curve" smooth="yes"/>
      <point x="192" y="114"/>
      <point x="161" y="146"/>
      <point x="119" y="146" type="curve" smooth="yes"/>
      <point x="77" y="146"/>
      <point x="45" y="115"/>
      <point x="45" y="70" type="curve" smooth="yes"/>
      <point x="45" y="25"/>
      <point x="77" y="-4"/>
      <point x="120" y="-4" type="curve"/>
      <point x="111.75" y="32.849999999999994" type="line"/>
      <point x="110.05441027425786" y="40.42363410831487"/>
      <point x="99.31459164539379" y="40.57422260127554"/>
      <point x="97.40732265264583" y="33.05110601876966" type="curve"/>
    </contour>
  </outline>
</glyph>
<glyph name="hyphen" format="2">
  <advance width="384"/>
  <unicode hex="002D"/>
  <outline>
    <contour>
      <point x="56.0" y="257.0" type="line"/>
      <point x="56.0" y="241.53602700473778"/>
      <point x="68.53602700473778" y="229.0"/>
      <point x="84.0" y="229.0" type="curve"/>
      <point x="300.0" y="229.0" type="line"/>
      <point x="315.4639729952622" y="229.0"/>
      <point x="328.0" y="241.53602700473778"/>
      <point x="328.0" y="257.0" type="curve"/>
      <point x="328.0" y="296.0" type="line"/>
      <point x="328.0" y="311.4639729952622"/>
      <point x="315.4639729952622" y="324.0"/>
      <point x="300.0" y="324.0" type="curve"/>
      <point x="84.0" y="324.0" type="line"/>
      <point x="68.53602700473778" y="324.0"/>
      <point x="56.0" y="311.4639729952622"/>
      <point x="56.0" y="296.0" type="curve"/>
    </contour>
  </outline>
</glyph>
<glyph name="slash" format="2">
  <advance width="361"/>
  <unicode hex="002F"/>
  <outline>
    <contour>
      <point x="-15.948076522952185" y="-62.74269116551805" type="line"/>
      <point x="-22.3260662349459" y="-80.94895270702737"/>
      <point x="-8.81377214882858" y="-100.0"/>
      <point x="10.477332331841751" y="-100.0" type="curve"/>
      <point x="50.1405020630627" y="-100.0" type="line"/>
      <point x="62.03601166697741" y="-100.0"/>
      <point x="72.63303926975004" y="-92.48386972089533"/>
      <point x="76.56591091785664" y="-81.25730883448196" type="curve"/>
      <point x="386.9480765229522" y="804.7426911655181" type="line"/>
      <point x="393.32606623494587" y="822.9489527070274"/>
      <point x="379.8137721488286" y="842.0"/>
      <point x="360.52266766815825" y="842.0" type="curve"/>
      <point x="320.8594979369373" y="842.0" type="line"/>
      <point x="308.9639883330226" y="842.0"/>
      <point x="298.36696073024996" y="834.4838697208953"/>
      <point x="294.4340890821434" y="823.2573088344819" type="curve"/>
    </contour>
  </outline>
</glyph>
<glyph name="one" format="2">
  <advance width="375"/>
  <unicode hex="0031"/>
  <outline>
    <contour>
      <point x="161.0" y="27.999999999999996" type="line"/>
      <point x="161.0" y="12.536027004737779"/>
      <point x="173.53602700473778" y="0.0"/>
      <point x="189.0" y="0.0" type="curve"/>
      <point x="247.0" y="0.0" type="line"/>
      <point x="262.4639729952622" y="0.0"/>
      <point x="275.0" y="12.536027004737779"/>
      <point x="275.0" y="27.999999999999996" type="curve"/>
      <point x="275.0" y="672.0" type="line"/>
      <point x="275.0" y="687.4639729952622"/>
      <point x="262.4639729952622" y="700.0"/>
      <point x="247.0" y="700.0" type="curve"/>
      <point x="36.0" y="700.0" type="line"/>
      <point x="20.53602700473778" y="700.0"/>
      <point x="8.0" y="687.4639729952622"/>
      <point x="8.0" y="672.0" type="curve"/>
      <point x="8.0" y="629.0" type="line"/>
      <point x="8.0" y="613.5360270047378"/>
      <point x="20.53602700473778" y="601.0"/>
      <point x="36.0" y="601.0" type="curve"/>
      <point x="177.88293491264662" y="601.0" type="line"/>
      <point x="190.50728880076784" y="601.0"/>
      <point x="197.0770874240664" y="616.0367455820083"/>
      <point x="188.5" y="625.3" type="curve"/>
      <point x="183.5" y="630.7" type="line"/>
      <point x="175.4803460301658" y="639.3612262874209"/>
      <point x="161.0" y="633.6868194680711"/>
      <point x="161.0" y="621.8829349126466" type="curve"/>
    </contour>
  </outline>
</glyph>
<glyph name="two" format="2">
  <advance width="578"/>
  <unicode hex="0032"/>
  <outline>
    <contour>
      <point x="36.0" y="27.999999999999996" type="line"/>
      <point x="36.0" y="12.536027004737779"/>
      <point x="48.536027004737775" y="0.0"/>
      <point x="64.0" y="0.0" type="curve"/>
      <point x="517.0" y="0.0" type="line"/>
      <point x="532.4639729952622" y="0.0"/>
      <point x="545.0" y="12.536027004737779"/>
      <point x="545.0" y="27.999999999999996" type="curve"/>
      <point x="545.0" y="71.0" type="line"/>
      <point x="545.0" y="86.46397299526222"/>
      <point x="532.4639729952622" y="99.0"/>
      <point x="517.0" y="99.0" type="curve"/>
      <point x="151.99847821052515" y="99.0" type="line"/>
      <point x="141.8368540967677" y="99.0"/>
      <point x="135.53048395451867" y="87.94841176927606"/>
      <point x="140.7" y="79.19999999999999" type="curve"/>
      <point x="143.3" y="74.80000000000001" type="line"/>
      <point x="149.28081072529966" y="64.67862800333904"/>
      <point x="163.1290388642386" y="62.765545256488096"/>
      <point x="171.62993654228637" y="70.88632149364756" type="curve"/>
      <point x="401" y="290" type="line" smooth="yes"/>
      <point x="497" y="381"/>
      <point x="517" y="443"/>
      <point x="517" y="511" type="curve" smooth="yes"/>
      <point x="517" y="633"/>
      <point x="421" y="709"/>
      <point x="272" y="709" type="curve" smooth="yes"/>
      <point x="162" y="709"/>
      <point x="66" y="669"/>
      <point x="11" y="600" type="curve"/>
      <point x="89" y="533" type="line"/>
      <point x="131" y="584"/>
      <point x="190" y="607"/>
      <point x="262" y="607" type="curve" smooth="yes"/>
      <point x="354" y="607"/>
      <point x="402" y="567"/>
      <point x="402" y="499" type="curve" smooth="yes"/>
      <point x="402" y="458"/>
      <point x="389" y="415"/>
      <point x="318" y="347" type="curve" smooth="yes"/>
      <point x="44.67351524112733" y="86.27367233994062" type="line"/>
      <point x="39.134293861796706" y="80.98980513767133"/>
      <point x="36.0" y="73.66840297657522"/>
      <point x="36.0" y="66.01319389383617" type="curve"/>
    </contour>
  </outline>
</glyph>
<glyph name="three" format="2">
  <advance width="577"/>
  <unicode hex="0033"/>
  <outline>
    <contour>
      <point x="263" y="-9" type="curve" smooth="yes"/>
      <point x="446" y="-9"/>
      <point x="534" y="90"/>
      <point x="534" y="208" type="curve" smooth="yes"/>
      <point x="534" y="327"/>
      <point x="448" y="412"/>
      <point x="278" y="412" type="curve" smooth="yes"/>
      <point x="258.2" y="412.0" type="line"/>
      <point x="253.6962939568154" y="412.0"/>
      <point x="252.07293564148057" y="406.05531667060166"/>
      <point x="255.95156089565444" y="403.76629193043345" type="curve"/>
      <point x="282.39830549819345" y="388.1583770830334" type="line"/>
      <point x="294.2625814093438" y="381.1565093321905"/>
      <point x="309.45739787524474" y="383.8252210704936"/>
      <point x="318.22570275443513" y="394.45085161374897" type="curve"/>
      <point x="499.5962968890896" y="614.2398474616554" type="line"/>
      <point x="503.73586593059423" y="619.256271029193"/>
      <point x="506.0" y="625.5572955667881"/>
      <point x="506.0" y="632.0611818863919" type="curve"/>
      <point x="506.0" y="672.0" type="line"/>
      <point x="506.0" y="687.4639729952622"/>
      <point x="493.4639729952622" y="700.0"/>
      <point x="478.0" y="700.0" type="curve"/>
      <point x="64.0" y="700.0" type="line"/>
      <point x="48.536027004737775" y="700.0"/>
      <point x="36.0" y="687.4639729952622"/>
      <point x="36.0" y="672.0" type="curve"/>
      <point x="36.0" y="629.0" type="line"/>
      <point x="36.0" y="613.5360270047378"/>
      <point x="48.536027004737775" y="601.0"/>
      <point x="64.0" y="601.0" type="curve"/>
      <point x="394.35317575254976" y="601.0" type="line"/>
      <point x="404.81542105854305" y="601.0"/>
      <point x="412.0473634412113" y="611.4628614791466"/>
      <point x="408.35" y="621.25" type="curve"/>
      <point x="406.65" y="625.75" type="line"/>
      <point x="403.24230408497004" y="634.7703715397852"/>
      <point x="391.3595886730082" y="636.7411764214779"/>
      <point x="385.2223109233105" y="629.3038841730757" type="curve"/>
      <point x="202.4037031109104" y="407.76015253834464" type="line"/>
      <point x="198.2641340694058" y="402.743728970807"/>
      <point x="196.0" y="396.442704433212"/>
      <point x="196.0" y="389.93881811360814" type="curve"/>
      <point x="196.0" y="346.0" type="line"/>
      <point x="196.0" y="331.08831175456856"/>
      <point x="208.08831175456856" y="319.0"/>
      <point x="223.0" y="319.0" type="curve"/>
      <point x="256" y="319" type="line" smooth="yes"/>
      <point x="369" y="319"/>
      <point x="419" y="275"/>
      <point x="419" y="207" type="curve" smooth="yes"/>
      <point x="419" y="137"/>
      <point x="361" y="93"/>
      <point x="262" y="93" type="curve" smooth="yes"/>
      <point x="180" y="93"/>
      <point x="103" y="122"/>
      <point x="54" y="165" type="curve"/>
      <point x="2" y="74" type="line"/>
      <point x="65" y="22"/>
      <point x="164" y="-9"/>
    </contour>
  </outline>
</glyph>
<glyph name="four" format="2">
  <advance width="674"/>
  <unicode hex="0034"/>
  <outline>
    <contour>
      <point x="36.0" y="193.0" type="line"/>
      <point x="36.0" y="177.53602700473778"/>
      <point x="48.53602700473778" y="165.0"/>
      <point x="64.0" y="165.0" type="curve"/>
      <point x="634.0" y="165.0" type="line"/>
      <point x="649.4639729952622" y="165.0"/>
      <point x="662.0" y="177.53602700473778"/>
      <point x="662.0" y="193.0" type="curve"/>
      <point x="662.0" y="236.0" type="line"/>
      <point x="662.0" y="251.46397299526222"/>
      <point x="649.4639729952622" y="264.0"/>
      <point x="634.0" y="264.0" type="curve"/>
      <point x="105" y="264" type="line"/>
      <point x="164" y="246" type="line"/>
      <point x="477.38842364927456" y="656.0240470800308" type="line"/>
      <point x="491.14972781075494" y="674.0287505074431"/>
      <point x="478.3114835730993" y="700.0"/>
      <point x="455.65" y="700.0" type="curve"/>
      <point x="401.7208432166482" y="700.0" type="line"/>
      <point x="393.0652971338142" y="700.0"/>
      <point x="384.8963162673545" y="695.9969533675539"/>
      <point x="379.59276212931206" y="689.1565738826923" type="curve"/>
      <point x="41.871918912663915" y="253.57344087031086" type="line"/>
      <point x="38.06568434269337" y="248.66426332836022"/>
      <point x="36.0" y="242.62874639243893"/>
      <point x="36.0" y="236.41686698761856" type="curve"/>
    </contour>
    <contour>
      <point x="423.0" y="27.999999999999996" type="line"/>
      <point x="423.0" y="12.536027004737779"/>
      <point x="435.5360270047378" y="0.0"/>
      <point x="451.0" y="0.0" type="curve"/>
      <point x="506.0" y="0.0" type="line"/>
      <point x="521.4639729952622" y="0.0"/>
      <point x="534.0" y="12.536027004737779"/>
      <point x="534.0" y="27.999999999999996" type="curve"/>
      <point x="534.0" y="382.0" type="line"/>
      <point x="534.0" y="397.4639729952622"/>
      <point x="521.4639729952622" y="410.0"/>
      <point x="506.0" y="410.0" type="curve"/>
      <point x="454.0" y="410.0" type="line"/>
      <point x="438.5360270047378" y="410.0"/>
      <point x="426.0" y="397.4639729952622"/>
      <point x="426.0" y="382.0" type="curve"/>
      <point x="426" y="264" type="line"/>
      <point x="423" y="165" type="line"/>
    </contour>
  </outline>
</glyph>
<glyph name="five" format="2">
  <advance width="579"/>
  <unicode hex="0035"/>
  <outline>
    <contour>
      <point x="275" y="-9" type="curve" smooth="yes"/>
      <point x="458" y="-9"/>
      <point x="546" y="90"/>
      <point x="546" y="213" type="curve" smooth="yes"/>
      <point x="546" y="337"/>
      <point x="462" y="426"/>
      <point x="255" y="426" type="curve" smooth="yes"/>
      <point x="117" y="426" type="line"/>
      <point x="178" y="370" type="line"/>
      <point x="206" y="657" type="line"/>
      <point x="145" y="601" type="line"/>
      <point x="478.0028281399857" y="601.0" type="line"/>
      <point x="493.4656966336561" y="601.0"/>
      <point x="506.00126609124266" y="613.5343033023998"/>
      <point x="506.00282799714313" y="628.9971717171861" type="curve"/>
      <point x="506.0071714314866" y="671.9971717171861" type="line"/>
      <point x="506.008733560521" y="687.4622491582511"/>
      <point x="493.4722490942895" y="700.0"/>
      <point x="478.00717157432916" y="700.0" type="curve"/>
      <point x="128.4342286450544" y="700.0" type="line"/>
      <point x="114.00943193467339" y="700.0"/>
      <point x="101.94514412057623" y="689.0412194748753"/>
      <point x="100.56304904884814" y="674.6827873408113" type="curve"/>
      <point x="69.95342338039895" y="356.6827873408113" type="line"/>
      <point x="68.37019431096486" y="340.2347964528017"/>
      <point x="81.30058958583513" y="326.0"/>
      <point x="97.82460297660518" y="326.0" type="curve"/>
      <point x="230" y="326" type="line" smooth="yes"/>
      <point x="384" y="326"/>
      <point x="431" y="280"/>
      <point x="431" y="208" type="curve" smooth="yes"/>
      <point x="431" y="137"/>
      <point x="373" y="93"/>
      <point x="274" y="93" type="curve" smooth="yes"/>
      <point x="203.99340523397677" y="93.0"/>
      <point x="137.63116153185464" y="114.13723617062634"/>
      <point x="89.22536154402368" y="147.07773504423332" type="curve"/>
      <point x="76.69578361091915" y="155.6042039363074"/>
      <point x="58.96432766258639" y="152.68757340952618"/>
      <point x="51.44506427887248" y="139.52886248802685" type="curve"/>
      <point x="25.699865525978964" y="94.47476467046319" type="line"/>
      <point x="18.939109367612787" y="82.64344139332238"/>
      <point x="21.61329124266957" y="67.54147670286912"/>
      <point x="32.830435922664186" y="59.804313169043006" type="curve"/>
      <point x="95.74505007801508" y="16.408184093907074"/>
      <point x="185.37252503900754" y="-9.0"/>
    </contour>
  </outline>
</glyph>
<glyph name="six" format="2">
  <advance width="622"/>
  <unicode hex="0036"/>
  <outline>
    <contour>
      <point x="344" y="-9" type="curve" smooth="yes"/>
      <point x="485" y="-9"/>
      <point x="596" y="78"/>
      <point x="596" y="215" type="curve" smooth="yes"/>
      <point x="596" y="345"/>
      <point x="494" y="429"/>
      <point x="355" y="429" type="curve" smooth="yes"/>
      <point x="252" y="429"/>
      <point x="166" y="386"/>
      <point x="133" y="302" type="curve"/>
      <point x="171" y="258" type="line"/>
      <point x="162" y="294"/>
      <point x="161" y="332"/>
      <point x="161" y="359" type="curve" smooth="yes"/>
      <point x="161" y="526"/>
      <point x="248" y="611"/>
      <point x="385" y="611" type="curve" smooth="yes"/>
      <point x="427.49500794751384" y="611.0"/>
      <point x="467.82302505447655" y="604.4990274783466"/>
      <point x="501.6866909812891" y="587.1997220954408" type="curve"/>
      <point x="511.1239515252648" y="582.3786831541424"/>
      <point x="523.1315115575293" y="585.5512681074445"/>
      <point x="527.7417073732415" y="595.0933013074069" type="curve"/>
      <point x="551.354664586327" y="643.9666313530954" type="line"/>
      <point x="557.4178139207547" y="656.5159404406319"/>
      <point x="553.1274982825826" y="671.768119238594"/>
      <point x="540.565217831832" y="677.8043472249102" type="curve"/>
      <point x="496.85251103212084" y="698.8084845848821"/>
      <point x="441.0182035962516" y="709.0"/>
      <point x="383" y="709" type="curve" smooth="yes"/>
      <point x="184" y="709"/>
      <point x="46" y="579"/>
      <point x="46" y="339" type="curve" smooth="yes"/>
      <point x="46" y="115"/>
      <point x="155" y="-9"/>
    </contour>
    <contour>
      <point x="339" y="84" type="curve" smooth="yes"/>
      <point x="238" y="84"/>
      <point x="183" y="140"/>
      <point x="183" y="209" type="curve" smooth="yes"/>
      <point x="183" y="282"/>
      <point x="245" y="336"/>
      <point x="335" y="336" type="curve" smooth="yes"/>
      <point x="427" y="336"/>
      <point x="485" y="287"/>
      <point x="485" y="210" type="curve" smooth="yes"/>
      <point x="485" y="133"/>
      <point x="425" y="84"/>
    </contour>
  </outline>
</glyph>
<glyph name="seven" format="2">
  <advance width="603"/>
  <unicode hex="0037"/>
  <outline>
    <contour>
      <point x="183.70678010965287" y="39.46255089284413" type="line"/>
      <point x="175.39425779511564" y="20.93669058092326"/>
      <point x="188.94770341455572" y="0.0"/>
      <point x="209.25301128039425" y="0.0" type="curve"/>
      <point x="268.8450719095788" y="0.0" type="line"/>
      <point x="279.8891751516488" y="0.0"/>
      <point x="289.90153075964145" y="6.49191414567257"/>
      <point x="294.40801291226427" y="16.5747627029798" type="curve"/>
      <point x="562.5629410026855" y="616.5472996534905" type="line"/>
      <point x="564.1695752230731" y="620.1419992401133"/>
      <point x="565.0" y="624.0351344264873"/>
      <point x="565.0" y="627.9725369505107" type="curve"/>
      <point x="565.0" y="672.0" type="line"/>
      <point x="565.0" y="687.4639729952622"/>
      <point x="552.4639729952622" y="700.0"/>
      <point x="537.0" y="700.0" type="curve"/>
      <point x="57.0" y="700.0" type="line"/>
      <point x="41.536027004737775" y="700.0"/>
      <point x="29.0" y="687.4639729952622"/>
      <point x="29.0" y="672.0" type="curve"/>
      <point x="29.0" y="507.0" type="line"/>
      <point x="29.0" y="491.5360270047378"/>
      <point x="41.536027004737775" y="479.0"/>
      <point x="57.0" y="479.0" type="curve"/>
      <point x="111.0" y="479.0" type="line"/>
      <point x="126.46397299526222" y="479.0"/>
      <point x="139.0" y="491.5360270047378"/>
      <point x="139.0" y="507.0" type="curve"/>
      <point x="139.0" y="620.7198401326565" type="line"/>
      <point x="139.0" y="634.3115912879534"/>
      <point x="122.67792563346897" y="641.240755784039"/>
      <point x="112.9" y="631.8" type="curve"/>
      <point x="107.1" y="626.2" type="line"/>
      <point x="97.61709219410544" y="617.0440890149983"/>
      <point x="104.09849660277897" y="601.0"/>
      <point x="117.28015986734349" y="601.0" type="curve"/>
      <point x="461.20704383611246" y="601.0" type="line"/>
      <point x="473.21659416078904" y="601.0"/>
      <point x="480.7994714348941" y="613.9112925995003"/>
      <point x="474.95" y="624.4" type="curve"/>
      <point x="472.05" y="629.6" type="line"/>
      <point x="466.6612112305132" y="639.262655724597"/>
      <point x="452.56081646256877" y="638.6491916384211"/>
      <point x="448.0315848714892" y="628.5550338603496" type="curve"/>
    </contour>
  </outline>
</glyph>
<glyph name="nine" format="2">
  <advance width="622"/>
  <unicode hex="0039"/>
  <outline>
    <contour>
      <point x="278" y="709" type="curve" smooth="yes"/>
      <point x="137" y="709"/>
      <point x="26" y="622"/>
      <point x="26" y="485" type="curve" smooth="yes"/>
      <point x="26" y="355"/>
      <point x="128" y="271"/>
      <point x="267" y="271" type="curve" smooth="yes"/>
      <point x="370" y="271"/>
      <point x="456" y="314"/>
      <point x="489" y="398" type="curve"/>
      <point x="451" y="442" type="line"/>
      <point x="460" y="406"/>
      <point x="461" y="368"/>
      <point x="461" y="341" type="curve" smooth="yes"/>
      <point x="461" y="174"/>
      <point x="374" y="89"/>
      <point x="237" y="89" type="curve" smooth="yes"/>
      <point x="194.50499205248616" y="89.0"/>
      <point x="154.17697494552343" y="95.50097252165335"/>
      <point x="120.31330901871094" y="112.80027790455917" type="curve"/>
      <point x="110.87604847473524" y="117.62131684585759"/>
      <point x="98.86848844247064" y="114.44873189255551"/>
      <point x="94.25829262675843" y="104.90669869259304" type="curve"/>
      <point x="70.64533541367302" y="56.03336864690462" type="line"/>
      <point x="64.5821860792453" y="43.484059559368184"/>
      <point x="68.87250171741753" y="28.23188076140613"/>
      <point x="81.43478216816804" y="22.195652775089872" type="curve"/>
      <point x="125.14748896787917" y="1.1915154151179645"/>
      <point x="180.98179640374838" y="-9.0"/>
      <point x="239" y="-9" type="curve" smooth="yes"/>
      <point x="438" y="-9"/>
      <point x="576" y="121"/>
      <point x="576" y="361" type="curve" smooth="yes"/>
      <point x="576" y="585"/>
      <point x="467" y="709"/>
    </contour>
    <contour>
      <point x="283" y="616" type="curve" smooth="yes"/>
      <point x="384" y="616"/>
      <point x="439" y="560"/>
      <point x="439" y="491" type="curve" smooth="yes"/>
      <point x="439" y="418"/>
      <point x="377" y="364"/>
      <point x="287" y="364" type="curve" smooth="yes"/>
      <point x="195" y="364"/>
      <point x="137" y="413"/>
      <point x="137" y="490" type="curve" smooth="yes"/>
      <point x="137" y="567"/>
      <point x="197" y="616"/>
    </contour>
  </outline>
</glyph>
<glyph name="less" format="2">
  <advance width="586"/>
  <unicode hex="003C"/>
  <outline>
    <contour>
      <point x="481.77950080138953" y="137.98512964174594" type="line"/>
      <point x="500.14543907232513" y="130.78438732406636"/>
      <point x="520.0" y="144.32604688267"/>
      <point x="520.0" y="164.05314445168503" type="curve"/>
      <point x="520.0" y="197.6934516799546" type="line"/>
      <point x="520.0" y="209.31685255743582"/>
      <point x="512.8188330596058" y="219.7315922093844"/>
      <point x="501.95485020097925" y="223.8640641580007" type="curve"/>
      <point x="102" y="376" type="line"/>
      <point x="102" y="324" type="line"/>
      <point x="501.95485020097925" y="476.1359358419993" type="line"/>
      <point x="512.8188330596058" y="480.2684077906156"/>
      <point x="520.0" y="490.6831474425642"/>
      <point x="520.0" y="502.3065483200454" type="curve"/>
      <point x="520.0" y="535.9468555483149" type="line"/>
      <point x="520.0" y="555.67395311733"/>
      <point x="500.14543907232513" y="569.2156126759336"/>
      <point x="481.77950080138953" y="562.014870358254" type="curve"/>
      <point x="66" y="399" type="line"/>
      <point x="66" y="301" type="line"/>
    </contour>
  </outline>
</glyph>
<glyph name="equal" format="2">
  <advance width="586"/>
  <unicode hex="003D"/>
  <outline>
    <contour>
      <point x="66.0" y="453.0" type="line"/>
      <point x="66.0" y="437.5360270047378"/>
      <point x="78.53602700473778" y="425.0"/>
      <point x="94.0" y="425.0" type="curve"/>
      <point x="492.0" y="425.0" type="line"/>
      <point x="507.4639729952622" y="425.0"/>
      <point x="520.0" y="437.5360270047378"/>
      <point x="520.0" y="453.0" type="curve"/>
      <point x="520.0" y="487.0" type="line"/>
      <point x="520.0" y="502.4639729952622"/>
      <point x="507.4639729952622" y="515.0"/>
      <point x="492.0" y="515.0" type="curve"/>
      <point x="94.0" y="515.0" type="line"/>
      <point x="78.53602700473778" y="515.0"/>
      <point x="66.0" y="502.4639729952622"/>
      <point x="66.0" y="487.0" type="curve"/>
    </contour>
    <contour>
      <point x="66.0" y="213.0" type="line"/>
      <point x="66.0" y="197.53602700473778"/>
      <point x="78.53602700473778" y="185.0"/>
      <point x="94.0" y="185.0" type="curve"/>
      <point x="492.0" y="185.0" type="line"/>
      <point x="507.4639729952622" y="185.0"/>
      <point x="520.0" y="197.53602700473778"/>
      <point x="520.0" y="213.0" type="curve"/>
      <point x="520.0" y="247.0" type="line"/>
      <point x="520.0" y="262.4639729952622"/>
      <point x="507.4639729952622" y="275.0"/>
      <point x="492.0" y="275.0" type="curve"/>
      <point x="94.0" y="275.0" type="line"/>
      <point x="78.53602700473778" y="275.0"/>
      <point x="66.0" y="262.4639729952622"/>
      <point x="66.0" y="247.0" type="curve"/>
    </contour>
  </outline>
</glyph>
<glyph name="greater" format="2">
  <advance width="586"/>
  <unicode hex="003E"/>
  <outline>
    <contour>
      <point x="66.0" y="164.05314445168503" type="line"/>
      <point x="66.0" y="144.32604688267"/>
      <point x="85.85456092767487" y="130.78438732406636"/>
      <point x="104.22049919861047" y="137.98512964174594" type="curve"/>
      <point x="520" y="301" type="line"/>
      <point x="520" y="399" type="line"/>
      <point x="104.22049919861047" y="562.014870358254" type="line"/>
      <point x="85.85456092767487" y="569.2156126759336"/>
      <point x="66.0" y="555.67395311733"/>
      <point x="66.0" y="535.9468555483149" type="curve"/>
      <point x="66.0" y="502.3229397588493" type="line"/>
      <point x="66.0" y="490.6914163146626"/>
      <point x="73.19106266539842" y="480.27117192410896"/>
      <point x="84.06591465094802" y="476.14443811575006" type="curve"/>
      <point x="485" y="324" type="line"/>
      <point x="485" y="376" type="line"/>
      <point x="84.06591465094802" y="223.85556188424997" type="line"/>
      <point x="73.19106266539842" y="219.72882807589104"/>
      <point x="66.0" y="209.30858368533737"/>
      <point x="66.0" y="197.67706024115068" type="curve"/>
    </contour>
  </outline>
</glyph>
<glyph name="question" format="2">
  <advance width="577"/>
  <unicode hex="003F"/>
  <outline>
    <contour>
      <point x="226.0689344357628" y="254.92345806504983" type="curve"/>
      <point x="223.7330643051376" y="239.63692243623413"/>
      <point x="236.53602700473778" y="227.0"/>
      <point x="252.0" y="227.0" type="curve"/>
      <point x="311.0" y="227.0" type="line"/>
      <point x="326.4639729952622" y="227.0"/>
      <point x="338.5988948243326" y="239.77252783365088"/>
      <point x="342.15811942286496" y="254.8213278208725" type="curve"/>
      <point x="365.62970068797847" y="354.0618005879355"/>
      <point x="512.0" y="377.229497127993"/>
      <point x="512" y="529" type="curve" smooth="yes"/>
      <point x="512" y="642"/>
      <point x="417" y="709"/>
      <point x="271" y="709" type="curve" smooth="yes"/>
      <point x="164.6339489952702" y="709.0"/>
      <point x="82.23598669827456" y="674.6457395189144"/>
      <point x="25.948458441763286" y="615.2207149986607" type="curve"/>
      <point x="14.996597502460922" y="603.6583916027108"/>
      <point x="17.864799007242894" y="585.3687721258651"/>
      <point x="30.89711506146367" y="576.2151215639719" type="curve"/>
      <point x="68.93174633937775" y="549.5003210235323" type="line"/>
      <point x="81.25146416940994" y="540.8471858810096"/>
      <point x="98.06614503535286" y="543.6879945396593"/>
      <point x="108.6892374259245" y="554.3558014027287" type="curve"/>
      <point x="145.71320471299643" y="591.535609108593"/>
      <point x="196.31702022058835" y="612.0"/>
      <point x="263" y="612" type="curve" smooth="yes"/>
      <point x="346" y="612"/>
      <point x="397" y="571"/>
      <point x="397" y="511" type="curve" smooth="yes"/>
      <point x="397.0" y="412.7768724969733"/>
      <point x="245.61075552559447" y="382.81016735812943"/>
    </contour>
    <contour>
      <point x="282" y="-6" type="curve" smooth="yes"/>
      <point x="324" y="-6"/>
      <point x="354" y="26"/>
      <point x="354" y="65" type="curve" smooth="yes"/>
      <point x="354" y="105"/>
      <point x="324" y="136"/>
      <point x="282" y="136" type="curve" smooth="yes"/>
      <point x="240" y="136"/>
      <point x="210" y="105"/>
      <point x="210" y="65" type="curve" smooth="yes"/>
      <point x="210" y="26"/>
      <point x="240" y="-6"/>
    </contour>
  </outline>
</glyph>
<glyph name="at" format="2">
  <advance width="1034"/>
  <unicode hex="0040"/>
  <outline>
    <contour>
      <point x="517" y="-203" type="curve" smooth="yes"/>
      <point x="580.6623517793014" y="-203.0"/>
      <point x="654.4882134820075" y="-190.4910647096558"/>
      <point x="712.9004281315373" y="-166.16446864184798" type="curve"/>
      <point x="725.7800050214548" y="-160.80058599495334"/>
      <point x="731.6391669818775" y="-146.18636758708223"/>
      <point x="727.1188584024468" y="-132.9870665351446" type="curve"/>
      <point x="719.8464151641848" y="-111.75153227941968" type="line"/>
      <point x="714.6587127387864" y="-96.60344119725647"/>
      <point x="697.2159159142244" y="-89.6525637948232"/>
      <point x="682.390756444374" y="-95.7016601390303" type="curve"/>
      <point x="628.7390573762768" y="-117.59311414688385"/>
      <point x="568.8896923656662" y="-127.0"/>
      <point x="517" y="-127" type="curve" smooth="yes"/>
      <point x="283" y="-127"/>
      <point x="129" y="30"/>
      <point x="129" y="254" type="curve" smooth="yes"/>
      <point x="129" y="476"/>
      <point x="285" y="633"/>
      <point x="521" y="633" type="curve" smooth="yes"/>
      <point x="753" y="633"/>
      <point x="912" y="486"/>
      <point x="912" y="268" type="curve" smooth="yes"/>
      <point x="912" y="149"/>
      <point x="881" y="80"/>
      <point x="823" y="80" type="curve" smooth="yes"/>
      <point x="794" y="80"/>
      <point x="769" y="98"/>
      <point x="769" y="150" type="curve" smooth="yes"/>
      <point x="769" y="499" type="line"/>
      <point x="670" y="499" type="line"/>
      <point x="670" y="376" type="line"/>
      <point x="679" y="253" type="line"/>
      <point x="674" y="194" type="line"/>
      <point x="674" y="132" type="line" smooth="yes"/>
      <point x="674" y="43"/>
      <point x="724" y="-6"/>
      <point x="803" y="-6" type="curve" smooth="yes"/>
      <point x="922" y="-6"/>
      <point x="988" y="99"/>
      <point x="988" y="270" type="curve" smooth="yes"/>
      <point x="988" y="527"/>
      <point x="796" y="708"/>
      <point x="521" y="708" type="curve" smooth="yes"/>
      <point x="238" y="708"/>
      <point x="46" y="517"/>
      <point x="46" y="254" type="curve" smooth="yes"/>
      <point x="46" y="-11"/>
      <point x="236" y="-203"/>
    </contour>
    <contour>
      <point x="496" y="-6" type="curve" smooth="yes"/>
      <point x="635" y="-6"/>
      <point x="725" y="84"/>
      <point x="725" y="250" type="curve" smooth="yes"/>
      <point x="725" y="416"/>
      <point x="631" y="504"/>
      <point x="496" y="504" type="curve" smooth="yes"/>
      <point x="354" y="504"/>
      <point x="252" y="398"/>
      <point x="252" y="250" type="curve" smooth="yes"/>
      <point x="252" y="101"/>
      <point x="354" y="-6"/>
    </contour>
    <contour>
      <point x="512" y="82" type="curve" smooth="yes"/>
      <point x="418" y="82"/>
      <point x="353" y="148"/>
      <point x="353" y="250" type="curve" smooth="yes"/>
      <point x="353" y="352"/>
      <point x="418" y="416"/>
      <point x="512" y="416" type="curve" smooth="yes"/>
      <point x="603" y="416"/>
      <point x="672" y="355"/>
      <point x="672" y="250" type="curve" smooth="yes"/>
      <point x="672" y="145"/>
      <point x="603" y="82"/>
    </contour>
  </outline>
</glyph>
<glyph name="A" format="2">
  <advance width="740"/>
  <unicode hex="0041"/>
  <anchor x="370" y="0" name="bottom"/>
  <anchor x="743" y="0" name="ogonek"/>
  <anchor x="370" y="700" name="top"/>
  <anchor x="113" y="700" name="topleft"/>
  <outline>
    <contour>
      <point x="14.840692257440306" y="39.52052082344372" type="line"/>
      <point x="6.474829495209637" y="20.988546350147928"/>
      <point x="20.028058360521896" y="0.0"/>
      <point x="40.36083332203083" y="0.0" type="curve"/>
      <point x="96.64304352353861" y="0.0" type="line"/>
      <point x="107.79000426814787" y="0.0"/>
      <point x="117.87519310275799" y="6.611906160494025"/>
      <point x="122.3203642015461" y="16.83419493279736" type="curve"/>
      <point x="392" y="637" type="line"/>
      <point x="346" y="637" type="line"/>
      <point x="615.6796357984539" y="16.83419493279736" type="line"/>
      <point x="620.124806897242" y="6.611906160494025"/>
      <point x="630.2099957318521" y="0.0"/>
      <point x="641.3569564764614" y="0.0" type="curve"/>
      <point x="699.582687170151" y="0.0" type="line"/>
      <point x="719.9298183062818" y="0.0"/>
      <point x="733.4829057277815" y="21.015665585340635"/>
      <point x="725.0891458622283" y="39.55078200769783" type="curve"/>
      <point x="433.44914586222825" y="683.5507820076979" type="line"/>
      <point x="428.9137242534689" y="693.5659085885545"/>
      <point x="418.93690426823406" y="700.0"/>
      <point x="407.942687170151" y="700.0" type="curve"/>
      <point x="331.08083332203086" y="700.0" type="line"/>
      <point x="320.0745849152023" y="700.0"/>
      <point x="310.0891820416854" y="693.551985535379"/>
      <point x="305.5606922574403" y="683.5205208234437" type="curve"/>
    </contour>
    <contour>
      <point x="137" y="168" type="line"/>
      <point x="586" y="168" type="line"/>
      <point x="554" y="260" type="line"/>
      <point x="168" y="260" type="line"/>
    </contour>
  </outline>
</glyph>
<glyph name="B" format="2">
  <advance width="759"/>
  <unicode hex="0042"/>
  <anchor x="379" y="0" name="bottom"/>
  <anchor x="379" y="700" name="top"/>
  <outline>
    <contour>
      <point x="100.0" y="27.999999999999996" type="line"/>
      <point x="100.0" y="12.536027004737779"/>
      <point x="112.53602700473778" y="0.0"/>
      <point x="128.0" y="0.0" type="curve"/>
      <point x="441" y="0" type="line" smooth="yes"/>
      <point x="619" y="0"/>
      <point x="711" y="70"/>
      <point x="711" y="190" type="curve" smooth="yes"/>
      <point x="711" y="310"/>
      <point x="623" y="374"/>
      <point x="512" y="374" type="curve"/>
      <point x="494" y="341" type="line"/>
      <point x="588" y="341"/>
      <point x="675" y="406"/>
      <point x="675" y="518" type="curve" smooth="yes"/>
      <point x="675" y="630"/>
      <point x="585" y="700"/>
      <point x="421" y="700" type="curve" smooth="yes"/>
      <point x="128.0" y="700.0" type="line"/>
      <point x="112.53602700473778" y="700.0"/>
      <point x="100.0" y="687.4639729952622"/>
      <point x="100.0" y="672.0" type="curve"/>
    </contour>
    <contour>
      <point x="242.0" y="93.0" type="line"/>
      <point x="226.53602700473778" y="93.0"/>
      <point x="214.0" y="105.53602700473778"/>
      <point x="214.0" y="121.0" type="curve"/>
      <point x="214.0" y="579.0" type="line"/>
      <point x="214.0" y="594.4639729952622"/>
      <point x="226.53602700473778" y="607.0"/>
      <point x="242.0" y="607.0" type="curve"/>
      <point x="409" y="607" type="line" smooth="yes"/>
      <point x="505" y="607"/>
      <point x="560" y="573"/>
      <point x="560" y="504" type="curve" smooth="yes"/>
      <point x="560" y="435"/>
      <point x="505" y="401"/>
      <point x="409" y="401" type="curve" smooth="yes"/>
      <point x="233.0" y="401.0" type="line"/>
      <point x="217.53602700473778" y="401.0"/>
      <point x="205.0" y="388.4639729952622"/>
      <point x="205.0" y="373.0" type="curve"/>
      <point x="205.0" y="336.0" type="line"/>
      <point x="205.0" y="320.5360270047378"/>
      <point x="217.53602700473778" y="308.0"/>
      <point x="233.0" y="308.0" type="curve"/>
      <point x="435" y="308" type="line" smooth="yes"/>
      <point x="539" y="308"/>
      <point x="596" y="275"/>
      <point x="596" y="200" type="curve" smooth="yes"/>
      <point x="596" y="125"/>
      <point x="539" y="93"/>
      <point x="435" y="93" type="curve" smooth="yes"/>
    </contour>
  </outline>
</glyph>
<glyph name="C" format="2">
  <advance width="725"/>
  <unicode hex="0043"/>
  <anchor x="401.01" y="0" name="bottom"/>
  <anchor x="412" y="700" name="top"/>
  <outline>
    <contour>
      <point x="418" y="-9" type="curve" smooth="yes"/>
      <point x="520.0142486349723" y="-9.0"/>
      <point x="608.7543812947432" y="23.35565768955358"/>
      <point x="672.1297821980298" y="85.79998260967024" type="curve"/>
      <point x="682.640026102684" y="96.15581588279538"/>
      <point x="681.7759095129004" y="113.00181777123194"/>
      <point x="671.2006552049514" y="123.29125439518234" type="curve"/>
      <point x="636.7239480592107" y="156.83615864509227" type="line"/>
      <point x="625.3877713871066" y="167.86595216389628"/>
      <point x="607.2607892712263" y="167.18086624841175"/>
      <point x="595.4675310724481" y="156.64121219025782" type="curve"/>
      <point x="547.2506909878308" y="113.54974368311989"/>
      <point x="489.43085358338203" y="93.0"/>
      <point x="424" y="93" type="curve" smooth="yes"/>
      <point x="272" y="93"/>
      <point x="161" y="201"/>
      <point x="161" y="350" type="curve" smooth="yes"/>
      <point x="161" y="499"/>
      <point x="272" y="607"/>
      <point x="424" y="607" type="curve" smooth="yes"/>
      <point x="489.43710892057106" y="607.0"/>
      <point x="547.2617463320173" y="586.4463269253631"/>
      <point x="595.4813597251496" y="544.0106124366298" type="curve"/>
      <point x="607.2819897435136" y="533.6254572889986"/>
      <point x="625.2752542924355" y="533.0245717439913"/>
      <point x="636.5419104546976" y="543.9867236856517" type="curve"/>
      <point x="671.0752694370107" y="577.5867486414157" type="line"/>
      <point x="681.7018730429738" y="587.926146744515"/>
      <point x="682.5125189554873" y="604.8726718324692"/>
      <point x="671.8766335719212" y="615.2025217558847" type="curve"/>
      <point x="608.5256517506701" y="676.7306513957261"/>
      <point x="519.9684698376955" y="709.0"/>
      <point x="419" y="709" type="curve" smooth="yes"/>
      <point x="205" y="709"/>
      <point x="46" y="558"/>
      <point x="46" y="350" type="curve" smooth="yes"/>
      <point x="46" y="142"/>
      <point x="205" y="-9"/>
    </contour>
  </outline>
</glyph>
<glyph name="D" format="2">
  <advance width="826"/>
  <unicode hex="0044"/>
  <anchor x="381" y="0" name="bottom"/>
  <anchor x="203" y="356" name="center"/>
  <anchor x="377" y="699" name="top"/>
  <outline>
    <contour>
      <point x="100.0" y="27.999999999999996" type="line"/>
      <point x="100.0" y="12.536027004737779"/>
      <point x="112.53602700473778" y="0.0"/>
      <point x="128.0" y="0.0" type="curve"/>
      <point x="400" y="0" type="line" smooth="yes"/>
      <point x="626" y="0"/>
      <point x="780" y="141"/>
      <point x="780" y="350" type="curve" smooth="yes"/>
      <point x="780" y="559"/>
      <point x="626" y="700"/>
      <point x="400" y="700" type="curve" smooth="yes"/>
      <point x="128.0" y="700.0" type="line"/>
      <point x="112.53602700473778" y="700.0"/>
      <point x="100.0" y="687.4639729952622"/>
      <point x="100.0" y="672.0" type="curve"/>
    </contour>
    <contour>
      <point x="242.0" y="99.0" type="line"/>
      <point x="226.53602700473778" y="99.0"/>
      <point x="214.0" y="111.53602700473778"/>
      <point x="214.0" y="127.0" type="curve"/>
      <point x="214.0" y="573.0" type="line"/>
      <point x="214.0" y="588.4639729952622"/>
      <point x="226.53602700473778" y="601.0"/>
      <point x="242.0" y="601.0" type="curve"/>
      <point x="394" y="601" type="line" smooth="yes"/>
      <point x="559" y="601"/>
      <point x="665" y="501"/>
      <point x="665" y="350" type="curve" smooth="yes"/>
      <point x="665" y="199"/>
      <point x="559" y="99"/>
      <point x="394" y="99" type="curve" smooth="yes"/>
    </contour>
  </outline>
</glyph>
<glyph name="F" format="2">
  <advance width="636"/>
  <unicode hex="0046"/>
  <outline>
    <contour>
      <point x="204" y="374" type="line"/>
      <point x="204" y="275" type="line"/>
      <point x="531.0" y="275.0" type="line"/>
      <point x="546.4639729952622" y="275.0"/>
      <point x="559.0" y="287.5360270047378"/>
      <point x="559.0" y="303.0" type="curve"/>
      <point x="559.0" y="346.0" type="line"/>
      <point x="559.0" y="361.4639729952622"/>
      <point x="546.4639729952622" y="374.0"/>
      <point x="531.0" y="374.0" type="curve"/>
    </contour>
    <contour>
      <point x="186.0" y="0.0" type="line"/>
      <point x="201.46397299526222" y="0.0"/>
      <point x="214.0" y="12.536027004737779"/>
      <point x="214.0" y="27.999999999999996" type="curve"/>
      <point x="214.0" y="573.0" type="line"/>
      <point x="214.0" y="588.4639729952622"/>
      <point x="226.53602700473778" y="601.0"/>
      <point x="242.0" y="601.0" type="curve"/>
      <point x="574.0" y="601.0" type="line"/>
      <point x="589.4639729952622" y="601.0"/>
      <point x="602.0" y="613.5360270047378"/>
      <point x="602.0" y="629.0" type="curve"/>
      <point x="602.0" y="672.0" type="line"/>
      <point x="602.0" y="687.4639729952622"/>
      <point x="589.4639729952622" y="700.0"/>
      <point x="574.0" y="700.0" type="curve"/>
      <point x="128.0" y="700.0" type="line"/>
      <point x="112.53602700473778" y="700.0"/>
      <point x="100.0" y="687.4639729952622"/>
      <point x="100.0" y="672.0" type="curve"/>
      <point x="100.0" y="27.999999999999996" type="line"/>
      <point x="100.0" y="12.536027004737779"/>
      <point x="112.53602700473778" y="0.0"/>
      <point x="128.0" y="0.0" type="curve"/>
    </contour>
  </outline>
</glyph>
<glyph name="H" format="2">
  <advance width="811"/>
  <unicode hex="0048"/>
  <anchor x="405" y="0" name="bottom"/>
  <anchor x="405" y="556" name="center"/>
  <anchor x="405" y="700" name="top"/>
  <outline>
    <contour>
      <point x="625.0" y="700.0" type="line"/>
      <point x="609.5360270047378" y="700.0"/>
      <point x="597.0" y="687.4639729952622"/>
      <point x="597.0" y="672.0" type="curve"/>
      <point x="597.0" y="27.999999999999996" type="line"/>
      <point x="597.0" y="12.536027004737779"/>
      <point x="609.5360270047378" y="0.0"/>
      <point x="625.0" y="0.0" type="curve"/>
      <point x="683.0" y="0.0" type="line"/>
      <point x="698.4639729952622" y="0.0"/>
      <point x="711.0" y="12.536027004737779"/>
      <point x="711.0" y="27.999999999999996" type="curve"/>
      <point x="711.0" y="672.0" type="line"/>
      <point x="711.0" y="687.4639729952622"/>
      <point x="698.4639729952622" y="700.0"/>
      <point x="683.0" y="700.0" type="curve"/>
    </contour>
    <contour>
      <point x="186.0" y="0.0" type="line"/>
      <point x="201.46397299526222" y="0.0"/>
      <point x="214.0" y="12.536027004737779"/>
      <point x="214.0" y="27.999999999999996" type="curve"/>
      <point x="214.0" y="672.0" type="line"/>
      <point x="214.0" y="687.4639729952622"/>
      <point x="201.46397299526222" y="700.0"/>
      <point x="186.0" y="700.0" type="curve"/>
      <point x="128.0" y="700.0" type="line"/>
      <point x="112.53602700473778" y="700.0"/>
      <point x="100.0" y="687.4639729952622"/>
      <point x="100.0" y="672.0" type="curve"/>
      <point x="100.0" y="27.999999999999996" type="line"/>
      <point x="100.0" y="12.536027004737779"/>
      <point x="112.53602700473778" y="0.0"/>
      <point x="128.0" y="0.0" type="curve"/>
    </contour>
    <contour>
      <point x="578.0" y="306.0" type="line"/>
      <point x="593.4639729952622" y="306.0"/>
      <point x="606.0" y="318.5360270047378"/>
      <point x="606.0" y="334.0" type="curve"/>
      <point x="606.0" y="377.0" type="line"/>
      <point x="606.0" y="392.4639729952622"/>
      <point x="593.4639729952622" y="405.0"/>
      <point x="578.0" y="405.0" type="curve"/>
      <point x="232.0" y="405.0" type="line"/>
      <point x="216.53602700473778" y="405.0"/>
      <point x="204.0" y="392.4639729952622"/>
      <point x="204.0" y="377.0" type="curve"/>
      <point x="204.0" y="334.0" type="line"/>
      <point x="204.0" y="318.5360270047378"/>
      <point x="216.53602700473778" y="306.0"/>
      <point x="232.0" y="306.0" type="curve"/>
    </contour>
  </outline>
</glyph>
<glyph name="I" format="2">
  <advance width="314"/>
  <unicode hex="0049"/>
  <anchor x="157" y="0" name="bottom"/>
  <anchor x="214" y="0" name="ogonek"/>
  <anchor x="157" y="700" name="top"/>
  <anchor x="19" y="699" name="topleft"/>
  <outline>
    <contour>
      <point x="100.0" y="27.999999999999996" type="line"/>
      <point x="100.0" y="12.536027004737779"/>
      <point x="112.53602700473778" y="0.0"/>
      <point x="128.0" y="0.0" type="curve"/>
      <point x="186.0" y="0.0" type="line"/>
      <point x="201.46397299526222" y="0.0"/>
      <point x="214.0" y="12.536027004737779"/>
      <point x="214.0" y="27.999999999999996" type="curve"/>
      <point x="214.0" y="672.0" type="line"/>
      <point x="214.0" y="687.4639729952622"/>
      <point x="201.46397299526222" y="700.0"/>
      <point x="186.0" y="700.0" type="curve"/>
      <point x="128.0" y="700.0" type="line"/>
      <point x="112.53602700473778" y="700.0"/>
      <point x="100.0" y="687.4639729952622"/>
      <point x="100.0" y="672.0" type="curve"/>
    </contour>
  </outline>
</glyph>
<glyph name="J" format="2">
  <advance width="520"/>
  <unicode hex="004A"/>
  <anchor x="244" y="700" name="top"/>
  <outline>
    <contour>
      <point x="198" y="-9" type="curve" smooth="yes"/>
      <point x="347" y="-9"/>
      <point x="426" y="70"/>
      <point x="426" y="231" type="curve" smooth="yes"/>
      <point x="426.0" y="672.0" type="line"/>
      <point x="426.0" y="687.4639729952622"/>
      <point x="413.4639729952622" y="700.0"/>
      <point x="398.0" y="700.0" type="curve"/>
      <point x="89.00717186001427" y="700.0" type="line"/>
      <point x="73.5443033663439" y="700.0"/>
      <point x="61.00873390875733" y="687.4656966976002"/>
      <point x="61.00717200285685" y="672.0028282828139" type="curve"/>
      <point x="61.002828568513415" y="629.0028282828139" type="line"/>
      <point x="61.00126643947896" y="613.5377508417489"/>
      <point x="73.53775090571051" y="601.0"/>
      <point x="89.00282842567086" y="601.0" type="curve"/>
      <point x="284.0" y="601.0" type="line"/>
      <point x="299.4639729952622" y="601.0"/>
      <point x="312.0" y="588.4639729952622"/>
      <point x="312.0" y="573.0" type="curve"/>
      <point x="312" y="225" type="line" smooth="yes"/>
      <point x="312" y="135"/>
      <point x="273" y="90"/>
      <point x="198" y="90" type="curve" smooth="yes"/>
      <point x="149.0121754059992" y="90.0"/>
      <point x="107.87151982001814" y="109.97461202041396"/>
      <point x="73.37296822975483" y="148.1162385427888" type="curve"/>
      <point x="63.40458011019028" y="159.1372965049387"/>
      <point x="45.7122432638346" y="159.88283663398386"/>
      <point x="36.18463387906597" y="148.4785769158517" type="curve"/>
      <point x="2.8157404347878696" y="108.53702264164002" type="line"/>
      <point x="-5.328450844262493" y="98.78867247429186"/>
      <point x="-6.020823903392458" y="84.64450893994425"/>
      <point x="2.286997652232964" y="75.03522782349842" type="curve"/>
      <point x="49.20608255702938" y="20.766046238671056"/>
      <point x="120.70912011642167" y="-9.0"/>
    </contour>
  </outline>
</glyph>
<glyph name="K" format="2">
  <advance width="724"/>
  <unicode hex="004B"/>
  <anchor x="376" y="0" name="bottom"/>
  <anchor x="376" y="700" name="top"/>
  <outline>
    <contour>
      <point x="198.3" y="229.55" type="line"/>
      <point x="199.32705857008122" y="205.75647645978523"/>
      <point x="228.22953878767288" y="194.62997318160924"/>
      <point x="244.94640087925" y="211.59267148041545" type="curve"/>
      <point x="337" y="305" type="line"/>
      <point x="401" y="376" type="line"/>
      <point x="666.8325233216226" y="657.4697305758357" type="line"/>
      <point x="682.0203719761492" y="673.5509820923933"/>
      <point x="670.6196156632884" y="700.0"/>
      <point x="648.5" y="700.0" type="curve"/>
      <point x="588.8524189124124" y="700.0" type="line"/>
      <point x="581.2762124840569" y="700.0"/>
      <point x="574.023375885725" y="696.9298693690462"/>
      <point x="568.7496625626738" y="691.4904896588836" type="curve"/>
      <point x="203.39105143285133" y="314.65464467157966" type="line"/>
      <point x="198.03467105821048" y="309.13000103909667"/>
      <point x="195.18800921213608" y="301.64445325218077"/>
      <point x="195.51985699228106" y="293.95664634548854" type="curve"/>
    </contour>
    <contour>
      <point x="100.0" y="27.999999999999996" type="line"/>
      <point x="100.0" y="12.536027004737779"/>
      <point x="112.53602700473778" y="0.0"/>
      <point x="128.0" y="0.0" type="curve"/>
      <point x="186.0" y="0.0" type="line"/>
      <point x="201.46397299526222" y="0.0"/>
      <point x="214.0" y="12.536027004737779"/>
      <point x="214.0" y="27.999999999999996" type="curve"/>
      <point x="214.0" y="672.0" type="line"/>
      <point x="214.0" y="687.4639729952622"/>
      <point x="201.46397299526222" y="700.0"/>
      <point x="186.0" y="700.0" type="curve"/>
      <point x="128.0" y="700.0" type="line"/>
      <point x="112.53602700473778" y="700.0"/>
      <point x="100.0" y="687.4639729952622"/>
      <point x="100.0" y="672.0" type="curve"/>
    </contour>
    <contour>
      <point x="583.6158947997241" y="9.831720486654522" type="line"/>
      <point x="588.9357367782814" y="3.5933446412959356"/>
      <point x="596.7224818478326" y="0.0"/>
      <point x="604.9211434376759" y="0.0" type="curve"/>
      <point x="666.9435452433917" y="0.0" type="line"/>
      <point x="690.5598921010428" y="0.0"/>
      <point x="703.5688923755208" y="27.438051290657626"/>
      <point x="688.6213978709516" y="45.72204010428249" type="curve"/>
      <point x="410.72526173806403" y="385.64856376683235" type="line"/>
      <point x="399.84035076282726" y="398.9631423704703"/>
      <point x="379.6371285993947" y="399.4099464598493"/>
      <point x="368.1742310500996" y="386.58960051655873" type="curve"/>
      <point x="330.2971094070729" y="344.22703025791054" type="line"/>
      <point x="320.9615430733299" y="333.78593633201365"/>
      <point x="320.77697795437643" y="318.0528963556593"/>
      <point x="329.8650388295257" y="307.39567389055617" type="curve"/>
    </contour>
  </outline>
</glyph>
<glyph name="L" format="2">
  <advance width="596"/>
  <unicode hex="004C"/>
  <anchor x="355" y="0" name="bottom"/>
  <anchor x="157" y="379" name="center"/>
  <anchor x="455" y="399" name="dot"/>
  <anchor x="157" y="700" name="top"/>
  <anchor x="436" y="700" name="topright"/>
  <outline>
    <contour>
      <point x="100.0" y="27.999999999999996" type="line"/>
      <point x="100.0" y="12.536027004737779"/>
      <point x="112.53602700473778" y="0.0"/>
      <point x="128.0" y="0.0" type="curve"/>
      <point x="559.0" y="0.0" type="line"/>
      <point x="574.4639729952622" y="0.0"/>
      <point x="587.0" y="12.536027004737779"/>
      <point x="587.0" y="27.999999999999996" type="curve"/>
      <point x="587.0" y="71.0" type="line"/>
      <point x="587.0" y="86.46397299526222"/>
      <point x="574.4639729952622" y="99.0"/>
      <point x="559.0" y="99.0" type="curve"/>
      <point x="242.0" y="99.0" type="line"/>
      <point x="226.53602700473778" y="99.0"/>
      <point x="214.0" y="111.53602700473778"/>
      <point x="214.0" y="127.0" type="curve"/>
      <point x="214.0" y="672.0" type="line"/>
      <point x="214.0" y="687.4639729952622"/>
      <point x="201.46397299526222" y="700.0"/>
      <point x="186.0" y="700.0" type="curve"/>
      <point x="128.0" y="700.0" type="line"/>
      <point x="112.53602700473778" y="700.0"/>
      <point x="100.0" y="687.4639729952622"/>
      <point x="100.0" y="672.0" type="curve"/>
    </contour>
  </outline>
</glyph>
<glyph name="M" format="2">
  <advance width="955"/>
  <unicode hex="004D"/>
  <anchor x="477" y="0" name="bottom"/>
  <anchor x="477" y="700" name="top"/>
  <outline>
    <contour>
      <point x="100.0" y="27.999999999999996" type="line"/>
      <point x="100.0" y="12.536027004737779"/>
      <point x="112.53602700473778" y="0.0"/>
      <point x="128.0" y="0.0" type="curve"/>
      <point x="182.0" y="0.0" type="line"/>
      <point x="197.46397299526222" y="0.0"/>
      <point x="210.0" y="12.536027004737779"/>
      <point x="210.0" y="27.999999999999996" type="curve"/>
      <point x="210.0" y="513.4" type="line"/>
      <point x="210.0" y="520.358787847868"/>
      <point x="204.358787847868" y="526.0"/>
      <point x="197.4" y="526.0" type="curve"/>
      <point x="194.6" y="526.0" type="line"/>
      <point x="189.06889746516526" y="526.0"/>
      <point x="185.66291629869494" y="519.9541455887712"/>
      <point x="188.52898780764494" y="515.2235294178648" type="curve"/>
      <point x="442.8263149161986" y="95.49113820523348" type="line"/>
      <point x="447.90053363745363" y="87.11584782516947"/>
      <point x="456.9815207684039" y="82.0"/>
      <point x="466.7740273209434" y="82.0" type="curve"/>
      <point x="487.1344152678021" y="82.0" type="line"/>
      <point x="496.9763898008963" y="82.0"/>
      <point x="506.0956982688691" y="87.1672557570597"/>
      <point x="511.15375855452425" y="95.6100330759728" type="curve"/>
      <point x="763.2183168608819" y="516.3493710008706" type="line"/>
      <point x="765.7638135578695" y="520.5982451868198"/>
      <point x="762.7030278903313" y="526.0"/>
      <point x="757.75" y="526.0" type="curve"/>
      <point x="755.25" y="526.0" type="line"/>
      <point x="749.0402592737222" y="526.0"/>
      <point x="744.0095822246486" y="520.9597498348481"/>
      <point x="744.0213877940483" y="514.7500203305843" type="curve"/>
      <point x="744.9468692620588" y="27.946768157035294" type="line"/>
      <point x="744.9762288834216" y="12.503607320211943"/>
      <point x="757.5036299163099" y="0.0"/>
      <point x="772.9468186614934" y="0.0" type="curve"/>
      <point x="826.959971428586" y="0.0" type="line"/>
      <point x="842.4395676967586" y="0.0"/>
      <point x="854.9820565435907" y="12.56041948649339"/>
      <point x="854.9599428572012" y="28.039999959183735" type="curve"/>
      <point x="854.0399428572011" y="672.0399999591838" type="line"/>
      <point x="854.0178738020862" y="687.4883385396545"/>
      <point x="841.4883257726594" y="700.0"/>
      <point x="826.039971428586" y="700.0" type="curve"/>
      <point x="775.99573229455" y="700.0" type="line"/>
      <point x="766.0836228156139" y="700.0"/>
      <point x="756.9101870535933" y="694.7594349046238"/>
      <point x="751.8759229115735" y="686.220928075512" type="curve"/>
      <point x="465.4275314892508" y="200.38198968274884" type="line"/>
      <point x="460.3755218623878" y="191.81338511954013"/>
      <point x="466.55295091846045" y="181.0"/>
      <point x="476.5" y="181.0" type="curve"/>
      <point x="481.5" y="181.0" type="line"/>
      <point x="491.4137980438375" y="181.0"/>
      <point x="497.5458973143968" y="191.80541707686464"/>
      <point x="492.46218176604344" y="200.3165408497531" type="curve"/>
      <point x="202.14829695818943" y="686.358173802257" type="line"/>
      <point x="197.09463869621482" y="694.8189758602081"/>
      <point x="187.96511807926478" y="700.0"/>
      <point x="178.10993501183003" y="700.0" type="curve"/>
      <point x="128.0" y="700.0" type="line"/>
      <point x="112.53602700473778" y="700.0"/>
      <point x="100.0" y="687.4639729952622"/>
      <point x="100.0" y="672.0" type="curve"/>
    </contour>
  </outline>
</glyph>
<glyph name="N" format="2">
  <advance width="811"/>
  <unicode hex="004E"/>
  <anchor x="405" y="0" name="bottom"/>
  <anchor x="405" y="700" name="top"/>
  <outline>
    <contour>
      <point x="100.0" y="27.999999999999996" type="line"/>
      <point x="100.0" y="12.536027004737779"/>
      <point x="112.53602700473778" y="0.0"/>
      <point x="128.0" y="0.0" type="curve"/>
      <point x="186.0" y="0.0" type="line"/>
      <point x="201.46397299526222" y="0.0"/>
      <point x="214.0" y="12.536027004737779"/>
      <point x="214.0" y="27.999999999999996" type="curve"/>
      <point x="214" y="556" type="line"/>
      <point x="166" y="556" type="line"/>
      <point x="608.5955978356374" y="10.361081160500245" type="line"/>
      <point x="613.9122049505637" y="3.806683032120943"/>
      <point x="621.9015624013533" y="0.0"/>
      <point x="630.3411385779032" y="0.0" type="curve"/>
      <point x="683.0" y="0.0" type="line"/>
      <point x="698.4639729952622" y="0.0"/>
      <point x="711.0" y="12.536027004737779"/>
      <point x="711.0" y="27.999999999999996" type="curve"/>
      <point x="711.0" y="672.0" type="line"/>
      <point x="711.0" y="687.4639729952622"/>
      <point x="698.4639729952622" y="700.0"/>
      <point x="683.0" y="700.0" type="curve"/>
      <point x="625.0" y="700.0" type="line"/>
      <point x="609.5360270047378" y="700.0"/>
      <point x="597.0" y="687.4639729952622"/>
      <point x="597.0" y="672.0" type="curve"/>
      <point x="597" y="144" type="line"/>
      <point x="645" y="144" type="line"/>
      <point x="202.4044021643626" y="689.6389188394998" type="line"/>
      <point x="197.08779504943624" y="696.193316967879"/>
      <point x="189.09843759864668" y="700.0"/>
      <point x="180.65886142209683" y="700.0" type="curve"/>
      <point x="128.0" y="700.0" type="line"/>
      <point x="112.53602700473778" y="700.0"/>
      <point x="100.0" y="687.4639729952622"/>
      <point x="100.0" y="672.0" type="curve"/>
    </contour>
  </outline>
</glyph>
<glyph name="P" format="2">
  <advance width="724"/>
  <unicode hex="0050"/>
  <outline>
    <contour>
      <point x="100.0" y="27.999999999999996" type="line"/>
      <point x="100.0" y="12.536027004737779"/>
      <point x="112.53602700473778" y="0.0"/>
      <point x="128.0" y="0.0" type="curve"/>
      <point x="186.0" y="0.0" type="line"/>
      <point x="201.46397299526222" y="0.0"/>
      <point x="214.0" y="12.536027004737779"/>
      <point x="214.0" y="27.999999999999996" type="curve"/>
      <point x="214.0" y="227.57557031152214" type="line"/>
      <point x="214.0" y="239.59855720668833"/>
      <point x="199.30526573873547" y="245.4408696057199"/>
      <point x="191.05" y="236.7" type="curve"/>
      <point x="185.95" y="231.3" type="line"/>
      <point x="177.27230462440224" y="222.11185195524945"/>
      <point x="183.78621535559347" y="207.0"/>
      <point x="196.42442968847786" y="207.0" type="curve"/>
      <point x="380" y="207" type="line" smooth="yes"/>
      <point x="563" y="207"/>
      <point x="675" y="300"/>
      <point x="675" y="453" type="curve" smooth="yes"/>
      <point x="675" y="607"/>
      <point x="563" y="700"/>
      <point x="380" y="700" type="curve" smooth="yes"/>
      <point x="128.0" y="700.0" type="line"/>
      <point x="112.53602700473778" y="700.0"/>
      <point x="100.0" y="687.4639729952622"/>
      <point x="100.0" y="672.0" type="curve"/>
    </contour>
    <contour>
      <point x="191.05" y="274.65" type="line"/>
      <point x="199.09863642027034" y="265.65446517734495"/>
      <point x="214.0" y="271.3477481388772"/>
      <point x="214.0" y="283.4183817167513" type="curve"/>
      <point x="214.0" y="623.5816182832486" type="line"/>
      <point x="214.0" y="635.6522518611229"/>
      <point x="199.09863642027034" y="641.345534822655"/>
      <point x="191.05" y="632.35" type="curve"/>
      <point x="185.95" y="626.65" type="line"/>
      <point x="177.08033423175" y="616.7368441413677"/>
      <point x="184.11644088400047" y="601.0"/>
      <point x="197.4183817167513" y="601.0" type="curve"/>
      <point x="376" y="601" type="line" smooth="yes"/>
      <point x="497" y="601"/>
      <point x="560" y="547"/>
      <point x="560" y="453" type="curve" smooth="yes"/>
      <point x="560" y="360"/>
      <point x="497" y="306"/>
      <point x="376" y="306" type="curve" smooth="yes"/>
      <point x="197.4183817167513" y="306.0" type="line"/>
      <point x="184.11644088400047" y="306.0"/>
      <point x="177.08033423175" y="290.2631558586324"/>
      <point x="185.95" y="280.35" type="curve"/>
    </contour>
  </outline>
</glyph>
<glyph name="Q" format="2">
  <advance width="841"/>
  <unicode hex="0051"/>
  <anchor x="421" y="700" name="top"/>
  <outline>
    <contour>
      <point x="421" y="-9" type="curve" smooth="yes"/>
      <point x="636" y="-9"/>
      <point x="795" y="143"/>
      <point x="795" y="350" type="curve" smooth="yes"/>
      <point x="795" y="557"/>
      <point x="636" y="709"/>
      <point x="421" y="709" type="curve" smooth="yes"/>
      <point x="205" y="709"/>
      <point x="46" y="556"/>
      <point x="46" y="350" type="curve" smooth="yes"/>
      <point x="46" y="144"/>
      <point x="205" y="-9"/>
    </contour>
    <contour>
      <point x="650" y="-150" type="curve" smooth="yes"/>
      <point x="714.0196269008411" y="-150.0"/>
      <point x="770.1331723423402" y="-127.07236376790817"/>
      <point x="813.4197881343263" y="-84.02900455525081" type="curve"/>
      <point x="822.9243915521565" y="-74.57781389036964"/>
      <point x="822.8846566370962" y="-59.50005059266526"/>
      <point x="814.4142668465145" y="-49.111836698555535" type="curve"/>
      <point x="790.9017566798923" y="-20.275739324396262" type="line"/>
      <point x="783.0737965272914" y="-10.67541083535736"/>
      <point x="768.5722147433372" y="-10.432063849070241"/>
      <point x="759.3204570174142" y="-18.66906853700055" type="curve"/>
      <point x="728.1458863285087" y="-46.424344076613075"/>
      <point x="692.5737218869835" y="-60.0"/>
      <point x="652" y="-60" type="curve" smooth="yes"/>
      <point x="599" y="-60"/>
      <point x="551" y="-32"/>
      <point x="493" y="43" type="curve"/>
      <point x="371" y="11" type="line"/>
      <point x="480" y="-108"/>
      <point x="553" y="-150"/>
    </contour>
    <contour>
      <point x="421" y="93" type="curve" smooth="yes"/>
      <point x="271" y="93"/>
      <point x="161" y="202"/>
      <point x="161" y="350" type="curve" smooth="yes"/>
      <point x="161" y="498"/>
      <point x="271" y="607"/>
      <point x="421" y="607" type="curve" smooth="yes"/>
      <point x="570" y="607"/>
      <point x="680" y="498"/>
      <point x="680" y="350" type="curve" smooth="yes"/>
      <point x="680" y="202"/>
      <point x="570" y="93"/>
    </contour>
  </outline>
</glyph>
<glyph name="R" format="2">
  <advance width="729"/>
  <unicode hex="0052"/>
  <anchor x="372" y="0" name="bottom"/>
  <anchor x="372" y="700" name="top"/>
  <outline>
    <contour>
      <point x="100.0" y="27.999999999999996" type="line"/>
      <point x="100.0" y="12.536027004737779"/>
      <point x="112.53602700473778" y="0.0"/>
      <point x="128.0" y="0.0" type="curve"/>
      <point x="186.0" y="0.0" type="line"/>
      <point x="201.46397299526222" y="0.0"/>
      <point x="214.0" y="12.536027004737779"/>
      <point x="214.0" y="27.999999999999996" type="curve"/>
      <point x="214.0" y="227.90128401282007" type="line"/>
      <point x="214.0" y="239.9087601162227"/>
      <point x="199.3757482459388" y="245.8022481771521"/>
      <point x="191.05" y="237.15" type="curve"/>
      <point x="185.95" y="231.85" type="line"/>
      <point x="177.33989946782464" y="222.90224846656287"/>
      <point x="183.6811442165682" y="208.0"/>
      <point x="196.09871598717993" y="208.0" type="curve"/>
      <point x="380" y="208" type="line" smooth="yes"/>
      <point x="563" y="208"/>
      <point x="675" y="300"/>
      <point x="675" y="453" type="curve" smooth="yes"/>
      <point x="675" y="607"/>
      <point x="563" y="700"/>
      <point x="380" y="700" type="curve" smooth="yes"/>
      <point x="128.0" y="700.0" type="line"/>
      <point x="112.53602700473778" y="700.0"/>
      <point x="100.0" y="687.4639729952622"/>
      <point x="100.0" y="672.0" type="curve"/>
    </contour>
    <contour>
      <point x="554.6389482143344" y="11.930939064938508" type="line"/>
      <point x="559.8795055441147" y="4.452840403341842"/>
      <point x="568.437395820321" y="0.0"/>
      <point x="577.5689565149278" y="0.0" type="curve"/>
      <point x="633.0133297984614" y="0.0" type="line"/>
      <point x="655.7063926904382" y="0.0"/>
      <point x="668.973277326415" y="25.579818765869284"/>
      <point x="655.9009093082066" y="44.12943595371805" type="curve"/>
      <point x="516.3654762373404" y="242.12943595371806" type="line"/>
      <point x="511.1202437112448" y="249.57239160527268"/>
      <point x="502.5833924902553" y="254.0"/>
      <point x="493.47789672759524" y="254.0" type="curve"/>
      <point x="438.8130510031168" y="254.0" type="line"/>
      <point x="416.15366049897943" y="254.0"/>
      <point x="402.87893103243994" y="228.4873680773048"/>
      <point x="415.8830427025234" y="209.9309390649385" type="curve"/>
    </contour>
    <contour>
      <point x="191.05" y="274.2" type="line"/>
      <point x="199.16671063849876" y="265.2875334165504"/>
      <point x="214.0" y="271.02975755829533"/>
      <point x="214.0" y="283.08434391329837" type="curve"/>
      <point x="214.0" y="623.5816182832486" type="line"/>
      <point x="214.0" y="635.6522518611229"/>
      <point x="199.09863642027034" y="641.345534822655"/>
      <point x="191.05" y="632.35" type="curve"/>
      <point x="185.95" y="626.65" type="line"/>
      <point x="177.08033423175" y="616.7368441413677"/>
      <point x="184.11644088400047" y="601.0"/>
      <point x="197.4183817167513" y="601.0" type="curve"/>
      <point x="376" y="601" type="line" smooth="yes"/>
      <point x="497" y="601"/>
      <point x="560" y="547"/>
      <point x="560" y="453" type="curve" smooth="yes"/>
      <point x="560" y="360"/>
      <point x="497" y="305"/>
      <point x="376" y="305" type="curve" smooth="yes"/>
      <point x="197.08434391329837" y="305.0" type="line"/>
      <point x="184.00395048816983" y="305.0"/>
      <point x="177.14258302667298" y="289.470889225614"/>
      <point x="185.95" y="279.8" type="curve"/>
    </contour>
  </outline>
</glyph>
<glyph name="T" format="2">
  <advance width="594"/>
  <unicode hex="0054"/>
  <anchor x="297" y="0" name="bottom"/>
  <anchor x="297" y="336" name="center"/>
  <anchor x="297" y="700" name="top"/>
  <outline>
    <contour>
      <point x="240.0" y="27.999999999999996" type="line"/>
      <point x="240.0" y="12.536027004737779"/>
      <point x="252.53602700473778" y="0.0"/>
      <point x="268.0" y="0.0" type="curve"/>
      <point x="326.0" y="0.0" type="line"/>
      <point x="341.4639729952622" y="0.0"/>
      <point x="354.0" y="12.536027004737779"/>
      <point x="354.0" y="27.999999999999996" type="curve"/>
      <point x="354.0" y="573.0" type="line"/>
      <point x="354.0" y="588.4639729952622"/>
      <point x="366.5360270047378" y="601.0"/>
      <point x="382.0" y="601.0" type="curve"/>
      <point x="562.0" y="601.0" type="line"/>
      <point x="577.4639729952622" y="601.0"/>
      <point x="590.0" y="613.5360270047378"/>
      <point x="590.0" y="629.0" type="curve"/>
      <point x="590.0" y="672.0" type="line"/>
      <point x="590.0" y="687.4639729952622"/>
      <point x="577.4639729952622" y="700.0"/>
      <point x="562.0" y="700.0" type="curve"/>
      <point x="31.999999999999996" y="700.0" type="line"/>
      <point x="16.53602700473778" y="700.0"/>
      <point x="4.0" y="687.4639729952622"/>
      <point x="4.0" y="672.0" type="curve"/>
      <point x="4.0" y="629.0" type="line"/>
      <point x="4.0" y="613.5360270047378"/>
      <point x="16.53602700473778" y="601.0"/>
      <point x="31.999999999999996" y="601.0" type="curve"/>
      <point x="212.0" y="601.0" type="line"/>
      <point x="227.46397299526222" y="601.0"/>
      <point x="240.0" y="588.4639729952622"/>
      <point x="240.0" y="573.0" type="curve"/>
    </contour>
  </outline>
</glyph>
<glyph name="U" format="2">
  <advance width="790"/>
  <unicode hex="0055"/>
  <anchor x="396" y="0" name="bottom"/>
  <anchor x="599" y="0" name="ogonek"/>
  <anchor x="396" y="700" name="top"/>
  <anchor x="658" y="700" name="topright"/>
  <outline>
    <contour>
      <point x="395" y="-9" type="curve" smooth="yes"/>
      <point x="583" y="-9"/>
      <point x="696" y="100"/>
      <point x="696" y="304" type="curve" smooth="yes"/>
      <point x="696.0" y="672.0" type="line"/>
      <point x="696.0" y="687.4639729952622"/>
      <point x="683.4639729952622" y="700.0"/>
      <point x="668.0" y="700.0" type="curve"/>
      <point x="612.0" y="700.0" type="line"/>
      <point x="596.5360270047378" y="700.0"/>
      <point x="584.0" y="687.4639729952622"/>
      <point x="584.0" y="672.0" type="curve"/>
      <point x="584" y="308" type="line" smooth="yes"/>
      <point x="584" y="159"/>
      <point x="516" y="93"/>
      <point x="396" y="93" type="curve" smooth="yes"/>
      <point x="276" y="93"/>
      <point x="208" y="159"/>
      <point x="208" y="308" type="curve" smooth="yes"/>
      <point x="208.0" y="672.0" type="line"/>
      <point x="208.0" y="687.4639729952622"/>
      <point x="195.46397299526222" y="700.0"/>
      <point x="180.0" y="700.0" type="curve"/>
      <point x="122.0" y="700.0" type="line"/>
      <point x="106.53602700473778" y="700.0"/>
      <point x="94.0" y="687.4639729952622"/>
      <point x="94.0" y="672.0" type="curve"/>
      <point x="94" y="304" type="line" smooth="yes"/>
      <point x="94" y="100"/>
      <point x="207" y="-9"/>
    </contour>
  </outline>
</glyph>
<glyph name="V" format="2">
  <advance width="720"/>
  <unicode hex="0056"/>
  <outline>
    <contour>
      <point x="296.6521667764383" y="16.754017122127646" type="line"/>
      <point x="301.11650263917807" y="6.574749682655881"/>
      <point x="311.17926809775554" y="0.0"/>
      <point x="322.29447301262934" y="0.0" type="curve"/>
      <point x="398.68157072099416" y="0.0" type="line"/>
      <point x="409.8089568028825" y="0.0"/>
      <point x="419.8803302659665" y="6.5889908044985965"/>
      <point x="424.3373396364018" y="16.784763874121808" type="curve"/>
      <point x="705.8573396364018" y="660.7847638741218" type="line"/>
      <point x="713.9437758229006" y="679.2831473072893"/>
      <point x="700.3901972180792" y="700.0"/>
      <point x="680.2015707209941" y="700.0" type="curve"/>
      <point x="627.2747486812242" y="700.0" type="line"/>
      <point x="616.169578633072" y="700.0"/>
      <point x="606.1139106802187" y="693.4369712621345"/>
      <point x="601.6435625174296" y="683.271304087678" type="curve"/>
      <point x="328" y="61" type="line"/>
      <point x="399" y="61" type="line"/>
      <point x="128.32188142685476" y="683.1702077994238" type="line"/>
      <point x="123.87565293674704" y="693.3901358756066"/>
      <point x="113.79169343357506" y="700.0"/>
      <point x="102.6464757296181" y="700.0" type="curve"/>
      <point x="39.854473012629356" y="700.0" type="line"/>
      <point x="19.651384064765967" y="700.0"/>
      <point x="6.09775276258817" y="679.2559383263462"/>
      <point x="14.212166776438309" y="660.7540171221276" type="curve"/>
    </contour>
  </outline>
</glyph>
<glyph name="W" format="2">
  <advance width="1135"/>
  <unicode hex="0057"/>
  <anchor x="568" y="0" name="bottom"/>
  <anchor x="568" y="700" name="top"/>
  <outline>
    <contour>
      <point x="256.6234526553302" y="19.157009189995176" type="line"/>
      <point x="260.4311399827941" y="7.717605201906107"/>
      <point x="271.1339087676521" y="0.0"/>
      <point x="283.1903778356022" y="0.0" type="curve"/>
      <point x="364.99259351955664" y="0.0" type="line"/>
      <point x="376.96022713111347" y="0.0"/>
      <point x="387.6048299290832" y="7.606103392923071"/>
      <point x="391.482259145066" y="18.928196703592675" type="curve"/>
      <point x="580.3345011618477" y="570.3767433925951" type="line"/>
      <point x="582.6214739451783" y="577.0547039199205"/>
      <point x="577.6587110237075" y="584.0"/>
      <point x="570.6" y="584.0" type="curve"/>
      <point x="567.4" y="584.0" type="line"/>
      <point x="560.3317180441286" y="584.0"/>
      <point x="555.3541309836005" y="577.0565025534207"/>
      <point x="557.6236756459824" y="570.362492034072" type="curve"/>
      <point x="744.5549916501768" y="19.009519577256388" type="line"/>
      <point x="748.407805019471" y="7.645666003176667"/>
      <point x="759.073145821129" y="0.0"/>
      <point x="771.0723682505923" y="0.0" type="curve"/>
      <point x="851.8096221643979" y="0.0" type="line"/>
      <point x="863.8660912323479" y="0.0"/>
      <point x="874.5688600172059" y="7.717605201906107"/>
      <point x="878.3765473446698" y="19.157009189995176" type="curve"/>
      <point x="1092.7365473446698" y="663.1570091899952" type="line"/>
      <point x="1098.7708045539734" y="681.2856789175171"/>
      <point x="1085.276189782827" y="700.0"/>
      <point x="1066.1696221643979" y="700.0" type="curve"/>
      <point x="1016.121451448396" y="700.0" type="line"/>
      <point x="1004.0983971242108" y="700.0"/>
      <point x="993.4174507680087" y="692.3244234453841"/>
      <point x="989.5833427050334" y="680.9290976210062" type="curve"/>
      <point x="789.1796912135289" y="85.31080318811614" type="line"/>
      <point x="785.1605757266461" y="73.36561808989246"/>
      <point x="794.0467965846882" y="61.0"/>
      <point x="806.65" y="61.0" type="curve"/>
      <point x="812.35" y="61.0" type="line"/>
      <point x="824.9687681931676" y="61.0"/>
      <point x="833.8791626772778" y="73.36251196816647"/>
      <point x="829.8887578016681" y="85.33372659499568" type="curve"/>
      <point x="631.3818741838428" y="680.8543774484715" type="line"/>
      <point x="627.5706808854607" y="692.287957343618"/>
      <point x="616.8707932644859" y="700.0"/>
      <point x="604.8187418384284" y="700.0" type="curve"/>
      <point x="539.0025379622473" y="700.0" type="line"/>
      <point x="527.0372739222922" y="700.0"/>
      <point x="516.3942291792437" y="692.3968604819026"/>
      <point x="512.5149616316386" y="681.07790174711" type="curve"/>
      <point x="308.60779612092034" y="86.11589827063067" type="line"/>
      <point x="304.3887853624018" y="73.8056340026244"/>
      <point x="313.5368275148353" y="61.0"/>
      <point x="326.55" y="61.0" type="curve"/>
      <point x="332.45" y="61.0" type="line"/>
      <point x="345.5276335703226" y="61.0"/>
      <point x="354.7757171317288" y="73.79297039253699"/>
      <point x="350.67520340706125" y="86.21111385254915" type="curve"/>
      <point x="154.34669293941025" y="680.7794465010277" type="line"/>
      <point x="150.55863887685774" y="692.2513258658195"/>
      <point x="139.8398171748492" y="700.0"/>
      <point x="127.75870092918895" y="700.0" type="curve"/>
      <point x="68.83037783560216" y="700.0" type="line"/>
      <point x="49.72381021717306" y="700.0"/>
      <point x="36.22919544602645" y="681.2856789175171"/>
      <point x="42.26345265533018" y="663.1570091899952" type="curve"/>
    </contour>
  </outline>
</glyph>
<glyph name="X" format="2">
  <advance width="683"/>
  <unicode hex="0058"/>
  <outline>
    <contour>
      <point x="43.42841382432621" y="44.49222647569672" type="line"/>
      <point x="29.941709283899417" y="25.988283727397835"/>
      <point x="43.15865733657879" y="0.0"/>
      <point x="66.05597369883164" y="0.0" type="curve"/>
      <point x="127.5692674132172" y="0.0" type="line"/>
      <point x="136.62385428082519" y="0.0"/>
      <point x="145.11952584052582" y="4.378527300827708"/>
      <point x="150.37347898544243" y="11.752909966114286" type="curve"/>
      <point x="351.68318870436866" y="294.3086908720511" type="line"/>
      <point x="357.26178048624877" y="302.1387322519994"/>
      <point x="351.6640643996471" y="313.0"/>
      <point x="342.05" y="313.0" type="curve"/>
      <point x="336.95" y="313.0" type="line"/>
      <point x="327.3765302334608" y="313.0"/>
      <point x="321.8305669838501" y="302.1550112126324"/>
      <point x="327.4348376703712" y="294.39334428837964" type="curve"/>
      <point x="531.6178458209762" y="11.608912646170168" type="line"/>
      <point x="536.8817658253589" y="4.318616356914411"/>
      <point x="545.3267092661519" y="0.0"/>
      <point x="554.3187765366786" y="0.0" type="curve"/>
      <point x="616.9944242407776" y="0.0" type="line"/>
      <point x="639.8822332149794" y="0.0"/>
      <point x="653.1015952601755" y="25.969236445200988"/>
      <point x="639.6341870030116" y="44.47547092103168" type="curve"/>
      <point x="400.2418857433928" y="373.436320270984" type="line"/>
      <point x="393.23473805803974" y="383.0651898794284"/>
      <point x="378.0" y="378.10862076903834"/>
      <point x="378.0" y="366.2" type="curve"/>
      <point x="378.0" y="357.8" type="line"/>
      <point x="378.0" y="345.9042499581198"/>
      <point x="393.22302553033916" y="340.9592380490177"/>
      <point x="400.2137435354097" y="350.5841396502018" type="curve"/>
      <point x="621.7119040628205" y="655.5453751589557" type="line"/>
      <point x="635.1553270958531" y="674.0544358566093"/>
      <point x="621.9329765088324" y="700.0"/>
      <point x="599.0569858034117" y="700.0" type="curve"/>
      <point x="544.3189022635801" y="700.0" type="line"/>
      <point x="535.3267646963236" y="700.0"/>
      <point x="526.8817641205493" y="695.6813165049862"/>
      <point x="521.617854863486" y="688.3909257498984" type="curve"/>
      <point x="330.9640413236417" y="424.33986943884645" type="line"/>
      <point x="325.21342642208475" y="416.37540279115024"/>
      <point x="331.02818966419636" y="405.26468282385275"/>
      <point x="340.85" y="405.45" type="curve"/>
      <point x="346.15" y="405.55" type="line"/>
      <point x="356.1987326154535" y="405.7395987285935"/>
      <point x="361.8765268322545" y="417.1602855669027"/>
      <point x="355.9618084591514" y="425.28611361219384" type="curve"/>
      <point x="164.3867888915994" y="688.4779629246251" type="line"/>
      <point x="159.11723456120154" y="695.7174441075082"/>
      <point x="150.7030729397257" y="700.0"/>
      <point x="141.74883982692748" y="700.0" type="curve"/>
      <point x="80.67173904776266" y="700.0" type="line"/>
      <point x="57.84720313408328" y="700.0"/>
      <point x="44.61199850090509" y="674.1574409303979"/>
      <point x="57.95101060883546" y="655.6363665647104" type="curve"/>
      <point x="280.85714699866196" y="346.1336016493399" type="line"/>
      <point x="288.10584831674646" y="336.068858092575"/>
      <point x="304.0" y="341.1966644138667"/>
      <point x="304.0" y="353.6" type="curve"/>
      <point x="304.0" y="362.4" type="line"/>
      <point x="304.0" y="374.88653429067966"/>
      <point x="288.02994939217325" y="380.08887254489304"/>
      <point x="280.6752796986575" y="369.99816532034237" type="curve"/>
    </contour>
  </outline>
</glyph>
<glyph name="Y" format="2">
  <advance width="654"/>
  <unicode hex="0059"/>
  <anchor x="327" y="0" name="bottom"/>
  <anchor x="324" y="251" name="center"/>
  <anchor x="327" y="700" name="top"/>
  <outline>
    <contour>
      <point x="270.0" y="27.999999999999996" type="line"/>
      <point x="270.0" y="12.536027004737779"/>
      <point x="282.5360270047378" y="0.0"/>
      <point x="298.0" y="0.0" type="curve"/>
      <point x="356.0" y="0.0" type="line"/>
      <point x="371.4639729952622" y="0.0"/>
      <point x="384.0" y="12.536027004737779"/>
      <point x="384.0" y="27.999999999999996" type="curve"/>
      <point x="384.0" y="238.39732153532995" type="line"/>
      <point x="384.0" y="245.13118137235125"/>
      <point x="374.64463928748967" y="246.81249038939535"/>
      <point x="372.3" y="240.5" type="curve"/>
      <point x="369.7" y="233.5" type="line"/>
      <point x="368.35170586147797" y="229.86997731936373"/>
      <point x="373.41607653079996" y="227.42121229251123"/>
      <point x="375.42399734149785" y="230.73228700684086" type="curve"/>
      <point x="634.2154823291387" y="657.4811596023546" type="line"/>
      <point x="645.5314682128336" y="676.1412952648714"/>
      <point x="632.0970215977883" y="700.0"/>
      <point x="610.2738183621606" y="700.0" type="curve"/>
      <point x="562.7414750572698" y="700.0" type="line"/>
      <point x="552.9665819290962" y="700.0"/>
      <point x="543.8992679792905" y="694.9023965579536"/>
      <point x="538.8194208437409" y="686.55112786711" type="curve"/>
      <point x="312.9023040261988" y="315.1433878190708" type="line"/>
      <point x="305.92891230297283" y="303.6791318260873"/>
      <point x="314.18145471378455" y="289.0"/>
      <point x="327.6" y="289.0" type="curve"/>
      <point x="334.4" y="289.0" type="line"/>
      <point x="347.8327737523705" y="289.0"/>
      <point x="356.104572534333" y="303.6828140095949"/>
      <point x="349.14420148467514" y="315.1716192361386" type="curve"/>
      <point x="124.173637767851" y="686.5085738048724" type="line"/>
      <point x="119.09945760580673" y="694.8840278072829"/>
      <point x="110.01837740016572" y="700.0"/>
      <point x="100.22575088510978" y="700.0" type="curve"/>
      <point x="43.72618163783941" y="700.0" type="line"/>
      <point x="21.902978402211733" y="700.0"/>
      <point x="8.468531787166375" y="676.1412952648714"/>
      <point x="19.784517670861256" y="657.4811596023546" type="curve"/>
      <point x="278.57600265850215" y="230.73228700684086" type="line"/>
      <point x="280.58392346920004" y="227.42121229251123"/>
      <point x="285.64829413852203" y="229.86997731936373"/>
      <point x="284.3" y="233.5" type="curve"/>
      <point x="281.7" y="240.5" type="line"/>
      <point x="279.35536071251033" y="246.81249038939535"/>
      <point x="270.0" y="245.13118137235125"/>
      <point x="270.0" y="238.39732153532995" type="curve"/>
    </contour>
  </outline>
</glyph>
<glyph name="Z" format="2">
  <advance width="660"/>
  <unicode hex="005A"/>
  <anchor x="343" y="0" name="bottom"/>
  <anchor x="338" y="700" name="top"/>
  <outline>
    <contour>
      <point x="42.0" y="27.999999999999996" type="line"/>
      <point x="42.0" y="12.536027004737779"/>
      <point x="54.53602700473778" y="0.0"/>
      <point x="70.0" y="0.0" type="curve"/>
      <point x="605.0" y="0.0" type="line"/>
      <point x="620.4639729952622" y="0.0"/>
      <point x="633.0" y="12.536027004737779"/>
      <point x="633.0" y="27.999999999999996" type="curve"/>
      <point x="633.0" y="71.0" type="line"/>
      <point x="633.0" y="86.46397299526222"/>
      <point x="620.4639729952622" y="99.0"/>
      <point x="605.0" y="99.0" type="curve"/>
      <point x="145" y="99" type="line"/>
      <point x="159" y="55" type="line"/>
      <point x="613.7253306694458" y="614.2825650533098" type="line"/>
      <point x="617.7842027352677" y="619.2747135594292"/>
      <point x="620.0" y="625.5123985681516"/>
      <point x="620.0" y="631.9463700596847" type="curve"/>
      <point x="620.0" y="672.0" type="line"/>
      <point x="620.0" y="687.4639729952622"/>
      <point x="607.4639729952622" y="700.0"/>
      <point x="592.0" y="700.0" type="curve"/>
      <point x="77.0" y="700.0" type="line"/>
      <point x="61.53602700473778" y="700.0"/>
      <point x="49.0" y="687.4639729952622"/>
      <point x="49.0" y="672.0" type="curve"/>
      <point x="49.0" y="629.0" type="line"/>
      <point x="49.0" y="613.5360270047378"/>
      <point x="61.53602700473778" y="601.0"/>
      <point x="77.0" y="601.0" type="curve"/>
      <point x="517" y="601" type="line"/>
      <point x="504" y="645" type="line"/>
      <point x="48.293420405515896" y="85.72374322495133" type="line"/>
      <point x="44.222814160074265" y="80.72799919645479"/>
      <point x="42.0" y="74.48106800206588"/>
      <point x="42.0" y="68.03690059240873" type="curve"/>
    </contour>
  </outline>
</glyph>
<glyph name="bracketleft" format="2">
  <advance width="341"/>
  <unicode hex="005B"/>
  <outline>
    <contour>
      <point x="100.0" y="-166.0" type="line"/>
      <point x="100.0" y="-181.46397299526222"/>
      <point x="112.53602700473778" y="-194.0"/>
      <point x="128.0" y="-194.0" type="curve"/>
      <point x="295.0" y="-194.0" type="line"/>
      <point x="310.4639729952622" y="-194.0"/>
      <point x="323.0" y="-181.46397299526222"/>
      <point x="323.0" y="-166.0" type="curve"/>
      <point x="323.0" y="-132.0" type="line"/>
      <point x="323.0" y="-116.53602700473778"/>
      <point x="310.4639729952622" y="-104.0"/>
      <point x="295.0" y="-104.0" type="curve"/>
      <point x="238.0" y="-104.0" type="line"/>
      <point x="222.53602700473778" y="-104.0"/>
      <point x="210.0" y="-91.46397299526222"/>
      <point x="210.0" y="-76.0" type="curve"/>
      <point x="210.0" y="624.0" type="line"/>
      <point x="210.0" y="639.4639729952622"/>
      <point x="222.53602700473778" y="652.0"/>
      <point x="238.0" y="652.0" type="curve"/>
      <point x="295.0" y="652.0" type="line"/>
      <point x="310.4639729952622" y="652.0"/>
      <point x="323.0" y="664.5360270047378"/>
      <point x="323.0" y="680.0" type="curve"/>
      <point x="323.0" y="714.0" type="line"/>
      <point x="323.0" y="729.4639729952622"/>
      <point x="310.4639729952622" y="742.0"/>
      <point x="295.0" y="742.0" type="curve"/>
      <point x="128.0" y="742.0" type="line"/>
      <point x="112.53602700473778" y="742.0"/>
      <point x="100.0" y="729.4639729952622"/>
      <point x="100.0" y="714.0" type="curve"/>
    </contour>
  </outline>
</glyph>
<glyph name="bracketright" format="2">
  <advance width="341"/>
  <unicode hex="005D"/>
  <outline>
    <contour>
      <point x="213.0" y="-194.0" type="line"/>
      <point x="228.46397299526222" y="-194.0"/>
      <point x="241.0" y="-181.46397299526222"/>
      <point x="241.0" y="-166.0" type="curve"/>
      <point x="241.0" y="714.0" type="line"/>
      <point x="241.0" y="729.4639729952622"/>
      <point x="228.46397299526222" y="742.0"/>
      <point x="213.0" y="742.0" type="curve"/>
      <point x="46.0" y="742.0" type="line"/>
      <point x="30.536027004737782" y="742.0"/>
      <point x="18.0" y="729.4639729952622"/>
      <point x="18.0" y="714.0" type="curve"/>
      <point x="18.0" y="680.0" type="line"/>
      <point x="18.0" y="664.5360270047378"/>
      <point x="30.536027004737782" y="652.0"/>
      <point x="46.0" y="652.0" type="curve"/>
      <point x="103.0" y="652.0" type="line"/>
      <point x="118.46397299526222" y="652.0"/>
      <point x="131.0" y="639.4639729952622"/>
      <point x="131.0" y="624.0" type="curve"/>
      <point x="131.0" y="-76.0" type="line"/>
      <point x="131.0" y="-91.46397299526222"/>
      <point x="118.46397299526222" y="-104.0"/>
      <point x="103.0" y="-104.0" type="curve"/>
      <point x="46.0" y="-104.0" type="line"/>
      <point x="30.536027004737782" y="-104.0"/>
      <point x="18.0" y="-116.53602700473778"/>
      <point x="18.0" y="-132.0" type="curve"/>
      <point x="18.0" y="-166.0" type="line"/>
      <point x="18.0" y="-181.46397299526222"/>
      <point x="30.536027004737782" y="-194.0"/>
      <point x="46.0" y="-194.0" type="curve"/>
    </contour>
  </outline>
</glyph>
<glyph name="asciicircum" format="2">
  <advance width="587"/>
  <unicode hex="005E"/>
  <outline>
    <contour>
      <point x="86.40105313532337" y="177.99347249603665" type="line"/>
      <point x="79.1082690796418" y="160.9496625681516"/>
      <point x="91.61149531001286" y="142.0"/>
      <point x="110.15" y="142.0" type="curve"/>
      <point x="139.3070642199106" y="142.0" type="line"/>
      <point x="150.62391926855676" y="142.0"/>
      <point x="160.82811092918448" y="148.8123678357085"/>
      <point x="165.16717968566354" y="159.26433848810777" type="curve"/>
      <point x="308.8907413936957" y="505.46637706783304" type="line"/>
      <point x="312.75088401899353" y="514.7647080457517"/>
      <point x="305.9177534764496" y="525.0"/>
      <point x="295.85" y="525.0" type="curve"/>
      <point x="291.15" y="525.0" type="line"/>
      <point x="281.0822465235504" y="525.0"/>
      <point x="274.24911598100647" y="514.7647080457517"/>
      <point x="278.1092586063043" y="505.46637706783304" type="curve"/>
      <point x="421.83282031433646" y="159.26433848810777" type="line"/>
      <point x="426.17188907081555" y="148.8123678357085"/>
      <point x="436.37608073144327" y="142.0"/>
      <point x="447.69293578008944" y="142.0" type="curve"/>
      <point x="476.85" y="142.0" type="line"/>
      <point x="495.406911199659" y="142.0"/>
      <point x="507.93749032275934" y="160.94917528662214"/>
      <point x="500.67217536308857" y="178.02471779070711" type="curve"/>
      <point x="346.24915887485673" y="540.9624288590937" type="line"/>
      <point x="341.853465451596" y="551.2935501250626"/>
      <point x="331.71173991898615" y="558.0"/>
      <point x="320.4843543246703" y="558.0" type="curve"/>
      <point x="267.47475295094597" y="558.0" type="line"/>
      <point x="256.2680611556784" y="558.0"/>
      <point x="246.140848121344" y="551.3179371824668"/>
      <point x="241.7322949716605" y="541.0148017315212" type="curve"/>
    </contour>
  </outline>
</glyph>
<glyph name="underscore" format="2">
  <advance width="500"/>
  <unicode hex="005F"/>
  <outline>
    <contour>
      <point x="0.0" y="-42.0" type="line"/>
      <point x="0.0" y="-57.46397299526222"/>
      <point x="12.536027004737779" y="-70.0"/>
      <point x="27.999999999999996" y="-70.0" type="curve"/>
      <point x="472.0" y="-70.0" type="line"/>
      <point x="487.4639729952622" y="-70.0"/>
      <point x="500.0" y="-57.46397299526222"/>
      <point x="500.0" y="-42.0" type="curve"/>
      <point x="500.0" y="-27.999999999999996" type="line"/>
      <point x="500.0" y="-12.536027004737779"/>
      <point x="487.4639729952622" y="0.0"/>
      <point x="472.0" y="0.0" type="curve"/>
      <point x="27.999999999999996" y="0.0" type="line"/>
      <point x="12.536027004737779" y="0.0"/>
      <point x="0.0" y="-12.536027004737779"/>
      <point x="0.0" y="-27.999999999999996" type="curve"/>
    </contour>
  </outline>
</glyph>
<glyph name="a" format="2">
  <advance width="602"/>
  <unicode hex="0061"/>
  <anchor x="290" y="0" name="bottom"/>
  <anchor x="520" y="0" name="ogonek"/>
  <anchor x="294" y="532" name="top"/>
  <outline>
    <contour>
      <point x="415.0" y="27.999999999999996" type="line"/>
      <point x="415.0" y="12.536027004737779"/>
      <point x="427.5360270047378" y="0.0"/>
      <point x="443.0" y="0.0" type="curve"/>
      <point x="492.0" y="0.0" type="line"/>
      <point x="507.4639729952622" y="0.0"/>
      <point x="520.0" y="12.536027004737779"/>
      <point x="520.0" y="27.999999999999996" type="curve"/>
      <point x="520" y="316" type="line" smooth="yes"/>
      <point x="520" y="466"/>
      <point x="434" y="538"/>
      <point x="285" y="538" type="curve" smooth="yes"/>
      <point x="208.45844559151828" y="538.0"/>
      <point x="135.87755204787334" y="519.7809600217508"/>
      <point x="81.35755839601629" y="484.75290396794753" type="curve"/>
      <point x="69.83228705017032" y="477.34813695136455"/>
      <point x="66.83343867005624" y="462.1924006456753"/>
      <point x="73.42399386108411" y="450.1829445198023" type="curve"/>
      <point x="95.60575105510796" y="409.7628536329144" type="line"/>
      <point x="101.5474476075524" y="398.935762137349"/>
      <point x="115.85460730596496" y="396.14316394246345"/>
      <point x="126.33068419294756" y="402.6839193447625" type="curve"/>
      <point x="166.3894720755968" y="427.69468779173394"/>
      <point x="219.92356042866822" y="443.0"/>
      <point x="272" y="443" type="curve" smooth="yes"/>
      <point x="364" y="443"/>
      <point x="410" y="398"/>
      <point x="410" y="322" type="curve" smooth="yes"/>
      <point x="410" y="132" type="line"/>
      <point x="415" y="110" type="line"/>
    </contour>
    <contour>
      <point x="246" y="-6" type="curve" smooth="yes"/>
      <point x="341" y="-6"/>
      <point x="405" y="29"/>
      <point x="430" y="89" type="curve"/>
      <point x="410" y="165" type="line"/>
      <point x="387" y="108"/>
      <point x="331" y="78"/>
      <point x="265" y="78" type="curve" smooth="yes"/>
      <point x="197" y="78"/>
      <point x="156" y="108"/>
      <point x="156" y="156" type="curve" smooth="yes"/>
      <point x="156" y="197"/>
      <point x="179" y="231"/>
      <point x="270" y="231" type="curve" smooth="yes"/>
      <point x="426" y="231" type="line"/>
      <point x="426" y="310" type="line"/>
      <point x="265" y="310" type="line" smooth="yes"/>
      <point x="104" y="310"/>
      <point x="47" y="239"/>
      <point x="47" y="152" type="curve" smooth="yes"/>
      <point x="47" y="59"/>
      <point x="125" y="-6"/>
    </contour>
  </outline>
</glyph>
<glyph name="c" format="2">
  <advance width="576"/>
  <unicode hex="0063"/>
  <anchor x="302" y="0" name="bottom"/>
  <anchor x="305" y="532" name="top"/>
  <outline>
    <contour>
      <point x="324" y="-6" type="curve" smooth="yes"/>
      <point x="413.84389650518096" y="-6.0"/>
      <point x="488.35113410581795" y="27.902088104781406"/>
      <point x="532.2922343269335" y="90.62977148935173" type="curve"/>
      <point x="540.7592898765694" y="102.71683296583939"/>
      <point x="536.2403180289891" y="119.04170788681625"/>
      <point x="523.692406870821" y="126.80946241330133" type="curve"/>
      <point x="485.54281891534487" y="150.42587400478652" type="line"/>
      <point x="472.4981329294538" y="158.50115580557622"/>
      <point x="455.56217858272953" y="154.334907106855"/>
      <point x="445.4166730810365" y="142.82653073363085" type="curve"/>
      <point x="413.3076026505068" y="106.40416937891735"/>
      <point x="370.2934755920687" y="90.0"/>
      <point x="323" y="90" type="curve" smooth="yes"/>
      <point x="225" y="90"/>
      <point x="151" y="157"/>
      <point x="151" y="266" type="curve" smooth="yes"/>
      <point x="151" y="374"/>
      <point x="225" y="442"/>
      <point x="323" y="442" type="curve" smooth="yes"/>
      <point x="370.32220414233234" y="442.0"/>
      <point x="413.35985916816867" y="424.861803534016"/>
      <point x="445.47517523395123" y="388.7751042810777" type="curve"/>
      <point x="455.5699578283551" y="377.4319998644228"/>
      <point x="472.33145570891196" y="373.3956630578979"/>
      <point x="485.2423519943552" y="381.3881226631723" type="curve"/>
      <point x="523.811342375435" y="405.2641643276502" type="line"/>
      <point x="536.3103387720541" y="413.0016382874621"/>
      <point x="540.8554475672353" y="429.2390052354104"/>
      <point x="532.4919209683544" y="441.32804312232594" type="curve"/>
      <point x="488.5770651814813" y="504.8046578170146"/>
      <point x="413.98013626728607" y="538.0"/>
      <point x="324" y="538" type="curve" smooth="yes"/>
      <point x="159" y="538"/>
      <point x="40" y="425"/>
      <point x="40" y="266" type="curve" smooth="yes"/>
      <point x="40" y="107"/>
      <point x="159" y="-6"/>
    </contour>
  </outline>
</glyph>
<glyph name="d" format="2">
  <advance width="684"/>
  <unicode hex="0064"/>
  <anchor x="350" y="0" name="bottom"/>
  <anchor x="484" y="635" name="center"/>
  <anchor x="685" y="742" name="topright"/>
  <outline>
    <contour>
      <point x="311" y="-6" type="curve" smooth="yes"/>
      <point x="446" y="-6"/>
      <point x="550" y="81"/>
      <point x="550" y="266" type="curve" smooth="yes"/>
      <point x="550" y="451"/>
      <point x="442" y="538"/>
      <point x="311" y="538" type="curve" smooth="yes"/>
      <point x="154" y="538"/>
      <point x="40" y="430"/>
      <point x="40" y="266" type="curve" smooth="yes"/>
      <point x="40" y="102"/>
      <point x="154" y="-6"/>
    </contour>
    <contour>
      <point x="320" y="90" type="curve" smooth="yes"/>
      <point x="224" y="90"/>
      <point x="151" y="159"/>
      <point x="151" y="266" type="curve" smooth="yes"/>
      <point x="151" y="373"/>
      <point x="224" y="442"/>
      <point x="320" y="442" type="curve" smooth="yes"/>
      <point x="416" y="442"/>
      <point x="489" y="373"/>
      <point x="489" y="266" type="curve" smooth="yes"/>
      <point x="489" y="159"/>
      <point x="416" y="90"/>
    </contour>
    <contour>
      <point x="492.0" y="27.999999999999996" type="line"/>
      <point x="492.0" y="12.536027004737779"/>
      <point x="504.5360270047378" y="0.0"/>
      <point x="520.0" y="0.0" type="curve"/>
      <point x="569.0" y="0.0" type="line"/>
      <point x="584.4639729952622" y="0.0"/>
      <point x="597.0" y="12.536027004737779"/>
      <point x="597.0" y="27.999999999999996" type="curve"/>
      <point x="597.0" y="714.0" type="line"/>
      <point x="597.0" y="729.4639729952622"/>
      <point x="584.4639729952622" y="742.0"/>
      <point x="569.0" y="742.0" type="curve"/>
      <point x="515.0" y="742.0" type="line"/>
      <point x="499.5360270047378" y="742.0"/>
      <point x="487.0" y="729.4639729952622"/>
      <point x="487.0" y="714.0" type="curve"/>
      <point x="487" y="400" type="line"/>
      <point x="497" y="267" type="line"/>
      <point x="492" y="134" type="line"/>
    </contour>
  </outline>
</glyph>
<glyph name="e" format="2">
  <advance width="617"/>
  <unicode hex="0065"/>
  <anchor x="309" y="0" name="bottom"/>
  <anchor x="524" y="0" name="ogonek"/>
  <anchor x="309" y="532" name="top"/>
  <outline>
    <contour>
      <point x="330" y="-6" type="curve" smooth="yes"/>
      <point x="410.2759522155202" y="-6.0"/>
      <point x="477.82256417601127" y="17.867512978179562"/>
      <point x="525.5435865061412" y="62.76403918440586" type="curve"/>
      <point x="535.5481503060091" y="72.17645616313933"/>
      <point x="535.4845857202827" y="87.70990689766538"/>
      <point x="526.6183798846971" y="98.20158380310836" type="curve"/>
      <point x="498.23703670481757" y="131.78617323263254" type="line"/>
      <point x="489.6075980865832" y="141.99767559754324"/>
      <point x="474.0364635161688" y="142.2273436898765"/>
      <point x="463.75458864314515" y="133.68187468519707" type="curve"/>
      <point x="428.472062347833" y="104.3578711754449"/>
      <point x="384.68444574716386" y="90.0"/>
      <point x="333" y="90" type="curve" smooth="yes"/>
      <point x="222" y="90"/>
      <point x="148" y="159"/>
      <point x="148" y="260" type="curve" smooth="yes"/>
      <point x="148" y="278" type="line" smooth="yes"/>
      <point x="148" y="377"/>
      <point x="215" y="445"/>
      <point x="311" y="445" type="curve" smooth="yes"/>
      <point x="407" y="445"/>
      <point x="474" y="377"/>
      <point x="473" y="281" type="curve"/>
      <point x="517" y="307" type="line"/>
      <point x="127" y="307" type="line"/>
      <point x="127" y="228" type="line"/>
      <point x="575" y="228" type="line"/>
      <point x="576" y="239"/>
      <point x="577" y="253"/>
      <point x="577" y="262" type="curve" smooth="yes"/>
      <point x="577" y="427"/>
      <point x="467" y="538"/>
      <point x="311" y="538" type="curve" smooth="yes"/>
      <point x="155" y="538"/>
      <point x="40" y="424"/>
      <point x="40" y="266" type="curve" smooth="yes"/>
      <point x="40" y="107"/>
      <point x="155" y="-6"/>
    </contour>
  </outline>
</glyph>
<glyph name="f" format="2">
  <advance width="361"/>
  <unicode hex="0066"/>
  <outline>
    <contour>
      <point x="102.0" y="27.999999999999996" type="line"/>
      <point x="102.0" y="12.536027004737779"/>
      <point x="114.53602700473778" y="0.0"/>
      <point x="130.0" y="0.0" type="curve"/>
      <point x="184.0" y="0.0" type="line"/>
      <point x="199.46397299526222" y="0.0"/>
      <point x="212.0" y="12.536027004737779"/>
      <point x="212.0" y="27.999999999999996" type="curve"/>
      <point x="212" y="453" type="line"/>
      <point x="209" y="503" type="line"/>
      <point x="209" y="569" type="line" smooth="yes"/>
      <point x="209" y="628"/>
      <point x="237" y="658"/>
      <point x="292" y="658" type="curve" smooth="yes"/>
      <point x="319" y="658"/>
      <point x="344" y="649"/>
      <point x="363" y="635" type="curve"/>
      <point x="395" y="719" type="line"/>
      <point x="368" y="739"/>
      <point x="328" y="748"/>
      <point x="286" y="748" type="curve" smooth="yes"/>
      <point x="167" y="748"/>
      <point x="102" y="678"/>
      <point x="102" y="570" type="curve" smooth="yes"/>
    </contour>
    <contour>
      <point x="13.0" y="470.0" type="line"/>
      <point x="13.0" y="454.5360270047378"/>
      <point x="25.53602700473778" y="442.0"/>
      <point x="41.0" y="442.0" type="curve"/>
      <point x="332.0" y="442.0" type="line"/>
      <point x="347.4639729952622" y="442.0"/>
      <point x="360.0" y="454.5360270047378"/>
      <point x="360.0" y="470.0" type="curve"/>
      <point x="360.0" y="504.0" type="line"/>
      <point x="360.0" y="519.4639729952622"/>
      <point x="347.4639729952622" y="532.0"/>
      <point x="332.0" y="532.0" type="curve"/>
      <point x="41.0" y="532.0" type="line"/>
      <point x="25.53602700473778" y="532.0"/>
      <point x="13.0" y="519.4639729952622"/>
      <point x="13.0" y="504.0" type="curve"/>
    </contour>
  </outline>
</glyph>
<glyph name="g" format="2">
  <advance width="692"/>
  <unicode hex="0067"/>
  <anchor x="332" y="532" name="top"/>
  <outline>
    <contour>
      <point x="323" y="-200" type="curve" smooth="yes"/>
      <point x="507" y="-200"/>
      <point x="605" y="-114"/>
      <point x="605" y="77" type="curve" smooth="yes"/>
      <point x="605.0" y="504.0" type="line"/>
      <point x="605.0" y="519.4639729952622"/>
      <point x="592.4639729952622" y="532.0"/>
      <point x="577.0" y="532.0" type="curve"/>
      <point x="528.0" y="532.0" type="line"/>
      <point x="512.5360270047378" y="532.0"/>
      <point x="500.0" y="519.4639729952622"/>
      <point x="500.0" y="504.0" type="curve"/>
      <point x="500" y="395" type="line"/>
      <point x="505" y="281" type="line"/>
      <point x="495" y="168" type="line"/>
      <point x="495" y="65" type="line" smooth="yes"/>
      <point x="495" y="-48"/>
      <point x="440" y="-104"/>
      <point x="319" y="-104" type="curve" smooth="yes"/>
      <point x="254.0705243251232" y="-104.0"/>
      <point x="188.4111600056109" y="-85.02289523947803"/>
      <point x="140.72899401405277" y="-54.55152050746992" type="curve"/>
      <point x="128.20398385064613" y="-46.547390026506775"/>
      <point x="110.98793620271672" y="-49.245762693756184"/>
      <point x="103.12331252672837" y="-61.85883840052996" type="curve"/>
      <point x="77.78336077495146" y="-102.4983836628137" type="line"/>
      <point x="70.43918412836807" y="-114.27678017148519"/>
      <point x="72.76569849017753" y="-129.80335712426537"/>
      <point x="84.24434331838347" y="-137.6077320409135" type="curve"/>
      <point x="145.0649865201" y="-178.95992207048076"/>
      <point x="234.84172702656997" y="-200.0"/>
    </contour>
    <contour>
      <point x="312" y="23" type="curve" smooth="yes"/>
      <point x="445" y="23"/>
      <point x="558" y="103"/>
      <point x="558" y="281" type="curve" smooth="yes"/>
      <point x="558" y="459"/>
      <point x="445" y="538"/>
      <point x="312" y="538" type="curve" smooth="yes"/>
      <point x="157" y="538"/>
      <point x="40" y="435"/>
      <point x="40" y="281" type="curve" smooth="yes"/>
      <point x="40" y="127"/>
      <point x="157" y="23"/>
    </contour>
    <contour>
      <point x="324" y="119" type="curve" smooth="yes"/>
      <point x="223" y="119"/>
      <point x="151" y="185"/>
      <point x="151" y="281" type="curve" smooth="yes"/>
      <point x="151" y="377"/>
      <point x="223" y="442"/>
      <point x="324" y="442" type="curve" smooth="yes"/>
      <point x="425" y="442"/>
      <point x="497" y="377"/>
      <point x="497" y="281" type="curve" smooth="yes"/>
      <point x="497" y="185"/>
      <point x="425" y="119"/>
    </contour>
  </outline>
</glyph>
<glyph name="k" format="2">
  <advance width="625"/>
  <unicode hex="006B"/>
  <anchor x="313.99" y="0" name="bottom"/>
  <anchor x="142" y="742" name="top"/>
  <anchor x="259" y="532" name="topright"/>
  <outline>
    <contour>
      <point x="176" y="123" type="line"/>
      <point x="309" y="248" type="line"/>
      <point x="368" y="298" type="line"/>
      <point x="561.499957377301" y="489.8601272300358" type="line"/>
      <point x="577.125157891884" y="505.35291079110533"/>
      <point x="566.153936774838" y="532.0"/>
      <point x="544.15" y="532.0" type="curve"/>
      <point x="481.9015372961937" y="532.0" type="line"/>
      <point x="474.8901802949395" y="532.0"/>
      <point x="468.13396773065534" y="529.3695320267658"/>
      <point x="462.9684551081092" y="524.6285820855248" type="curve"/>
      <point x="179" y="264" type="line"/>
    </contour>
    <contour>
      <point x="87.0" y="27.999999999999996" type="line"/>
      <point x="87.0" y="12.536027004737779"/>
      <point x="99.53602700473778" y="0.0"/>
      <point x="115.0" y="0.0" type="curve"/>
      <point x="169.0" y="0.0" type="line"/>
      <point x="184.46397299526222" y="0.0"/>
      <point x="197.0" y="12.536027004737779"/>
      <point x="197.0" y="27.999999999999996" type="curve"/>
      <point x="197.0" y="714.0" type="line"/>
      <point x="197.0" y="729.4639729952622"/>
      <point x="184.46397299526222" y="742.0"/>
      <point x="169.0" y="742.0" type="curve"/>
      <point x="115.0" y="742.0" type="line"/>
      <point x="99.53602700473778" y="742.0"/>
      <point x="87.0" y="729.4639729952622"/>
      <point x="87.0" y="714.0" type="curve"/>
    </contour>
    <contour>
      <point x="482.5956239689137" y="10.359849662081656" type="line"/>
      <point x="487.91225224938194" y="3.8061841084351213"/>
      <point x="495.9011451354506" y="0.0"/>
      <point x="504.34016572209026" y="0.0" type="curve"/>
      <point x="567.3335639826637" y="0.0" type="line"/>
      <point x="590.7078251790209" y="0.0"/>
      <point x="603.7924352562493" y="26.947958208224588"/>
      <point x="589.3369170440938" y="45.316248267279335" type="curve"/>
      <point x="359" y="338" type="line"/>
      <point x="289" y="249" type="line"/>
    </contour>
  </outline>
</glyph>
<glyph name="l" format="2">
  <advance width="284"/>
  <unicode hex="006C"/>
  <anchor x="142" y="0" name="bottom"/>
  <anchor x="142" y="360" name="center"/>
  <anchor x="323" y="360" name="dot"/>
  <anchor x="142" y="742" name="top"/>
  <anchor x="283" y="742" name="topright"/>
  <outline>
    <contour>
      <point x="87.0" y="27.999999999999996" type="line"/>
      <point x="87.0" y="12.536027004737779"/>
      <point x="99.53602700473778" y="0.0"/>
      <point x="115.0" y="0.0" type="curve"/>
      <point x="169.0" y="0.0" type="line"/>
      <point x="184.46397299526222" y="0.0"/>
      <point x="197.0" y="12.536027004737779"/>
      <point x="197.0" y="27.999999999999996" type="curve"/>
      <point x="197.0" y="714.0" type="line"/>
      <point x="197.0" y="729.4639729952622"/>
      <point x="184.46397299526222" y="742.0"/>
      <point x="169.0" y="742.0" type="curve"/>
      <point x="115.0" y="742.0" type="line"/>
      <point x="99.53602700473778" y="742.0"/>
      <point x="87.0" y="729.4639729952622"/>
      <point x="87.0" y="714.0" type="curve"/>
    </contour>
  </outline>
</glyph>
<glyph name="m" format="2">
  <advance width="1055"/>
  <unicode hex="006D"/>
  <anchor x="529" y="0" name="bottom"/>
  <outline>
    <contour>
      <point x="753" y="538" type="curve" smooth="yes"/>
      <point x="648" y="538"/>
      <point x="561" y="486"/>
      <point x="528" y="407" type="curve"/>
      <point x="574" y="389" type="line"/>
      <point x="550" y="489"/>
      <point x="470" y="538"/>
      <point x="370" y="538" type="curve" smooth="yes"/>
      <point x="281" y="538"/>
      <point x="209" y="501"/>
      <point x="174" y="434" type="curve"/>
      <point x="183.9" y="410.9" type="line"/>
      <point x="185.7079869477897" y="406.6813637884907"/>
      <point x="192.0" y="407.972847928256"/>
      <point x="192.0" y="412.56258738583256" type="curve"/>
      <point x="192.0" y="504.0" type="line"/>
      <point x="192.0" y="519.4639729952622"/>
      <point x="179.46397299526222" y="532.0"/>
      <point x="164.0" y="532.0" type="curve"/>
      <point x="115.0" y="532.0" type="line"/>
      <point x="99.53602700473778" y="532.0"/>
      <point x="87.0" y="519.4639729952622"/>
      <point x="87.0" y="504.0" type="curve"/>
      <point x="87.0" y="27.999999999999996" type="line"/>
      <point x="87.0" y="12.536027004737779"/>
      <point x="99.53602700473778" y="0.0"/>
      <point x="115.0" y="0.0" type="curve"/>
      <point x="169.0" y="0.0" type="line"/>
      <point x="184.46397299526222" y="0.0"/>
      <point x="197.0" y="12.536027004737779"/>
      <point x="197.0" y="27.999999999999996" type="curve"/>
      <point x="197" y="272" type="line" smooth="yes"/>
      <point x="197" y="383"/>
      <point x="257" y="440"/>
      <point x="346" y="440" type="curve" smooth="yes"/>
      <point x="428" y="440"/>
      <point x="475" y="391"/>
      <point x="475" y="292" type="curve" smooth="yes"/>
      <point x="475.0" y="27.999999999999996" type="line"/>
      <point x="475.0" y="12.536027004737779"/>
      <point x="487.5360270047378" y="0.0"/>
      <point x="503.0" y="0.0" type="curve"/>
      <point x="557.0" y="0.0" type="line"/>
      <point x="572.4639729952622" y="0.0"/>
      <point x="585.0" y="12.536027004737779"/>
      <point x="585.0" y="27.999999999999996" type="curve"/>
      <point x="585" y="272" type="line" smooth="yes"/>
      <point x="585" y="383"/>
      <point x="645" y="440"/>
      <point x="734" y="440" type="curve" smooth="yes"/>
      <point x="816" y="440"/>
      <point x="863" y="391"/>
      <point x="863" y="292" type="curve" smooth="yes"/>
      <point x="863.0" y="27.999999999999996" type="line"/>
      <point x="863.0" y="12.536027004737779"/>
      <point x="875.5360270047378" y="0.0"/>
      <point x="891.0" y="0.0" type="curve"/>
      <point x="945.0" y="0.0" type="line"/>
      <point x="960.4639729952622" y="0.0"/>
      <point x="973.0" y="12.536027004737779"/>
      <point x="973.0" y="27.999999999999996" type="curve"/>
      <point x="973" y="305" type="line" smooth="yes"/>
      <point x="973" y="464"/>
      <point x="883" y="538"/>
    </contour>
  </outline>
</glyph>
<glyph name="n" format="2">
  <advance width="683"/>
  <unicode hex="006E"/>
  <anchor x="344" y="0" name="bottom"/>
  <anchor x="344" y="532" name="top"/>
  <outline>
    <contour>
      <point x="378" y="538" type="curve" smooth="yes"/>
      <point x="285" y="538"/>
      <point x="210" y="501"/>
      <point x="174" y="434" type="curve"/>
      <point x="192" y="390" type="line"/>
      <point x="192.0" y="504.0" type="line"/>
      <point x="192.0" y="519.4639729952622"/>
      <point x="179.46397299526222" y="532.0"/>
      <point x="164.0" y="532.0" type="curve"/>
      <point x="115.0" y="532.0" type="line"/>
      <point x="99.53602700473778" y="532.0"/>
      <point x="87.0" y="519.4639729952622"/>
      <point x="87.0" y="504.0" type="curve"/>
      <point x="87.0" y="27.999999999999996" type="line"/>
      <point x="87.0" y="12.536027004737779"/>
      <point x="99.53602700473778" y="0.0"/>
      <point x="115.0" y="0.0" type="curve"/>
      <point x="169.0" y="0.0" type="line"/>
      <point x="184.46397299526222" y="0.0"/>
      <point x="197.0" y="12.536027004737779"/>
      <point x="197.0" y="27.999999999999996" type="curve"/>
      <point x="197" y="272" type="line" smooth="yes"/>
      <point x="197" y="383"/>
      <point x="260" y="440"/>
      <point x="355" y="440" type="curve" smooth="yes"/>
      <point x="441" y="440"/>
      <point x="491" y="391"/>
      <point x="491" y="292" type="curve" smooth="yes"/>
      <point x="491.0" y="27.999999999999996" type="line"/>
      <point x="491.0" y="12.536027004737779"/>
      <point x="503.5360270047378" y="0.0"/>
      <point x="519.0" y="0.0" type="curve"/>
      <point x="573.0" y="0.0" type="line"/>
      <point x="588.4639729952622" y="0.0"/>
      <point x="601.0" y="12.536027004737779"/>
      <point x="601.0" y="27.999999999999996" type="curve"/>
      <point x="601" y="305" type="line" smooth="yes"/>
      <point x="601" y="464"/>
      <point x="507" y="538"/>
    </contour>
  </outline>
</glyph>
<glyph name="p" format="2">
  <advance width="684"/>
  <unicode hex="0070"/>
  <anchor x="387" y="0" name="bottom"/>
  <anchor x="364" y="532" name="top"/>
  <outline>
    <contour>
      <point x="373" y="-6" type="curve" smooth="yes"/>
      <point x="530" y="-6"/>
      <point x="644" y="102"/>
      <point x="644" y="266" type="curve" smooth="yes"/>
      <point x="644" y="430"/>
      <point x="530" y="538"/>
      <point x="373" y="538" type="curve" smooth="yes"/>
      <point x="238" y="538"/>
      <point x="134" y="451"/>
      <point x="134" y="266" type="curve" smooth="yes"/>
      <point x="134" y="81"/>
      <point x="242" y="-6"/>
    </contour>
    <contour>
      <point x="87.0" y="-166.0" type="line"/>
      <point x="87.0" y="-181.46397299526222"/>
      <point x="99.53602700473778" y="-194.0"/>
      <point x="115.0" y="-194.0" type="curve"/>
      <point x="169.0" y="-194.0" type="line"/>
      <point x="184.46397299526222" y="-194.0"/>
      <point x="197.0" y="-181.46397299526222"/>
      <point x="197.0" y="-166.0" type="curve"/>
      <point x="197" y="132" type="line"/>
      <point x="187" y="265" type="line"/>
      <point x="192" y="398" type="line"/>
      <point x="192.0" y="504.0" type="line"/>
      <point x="192.0" y="519.4639729952622"/>
      <point x="179.46397299526222" y="532.0"/>
      <point x="164.0" y="532.0" type="curve"/>
      <point x="115.0" y="532.0" type="line"/>
      <point x="99.53602700473778" y="532.0"/>
      <point x="87.0" y="519.4639729952622"/>
      <point x="87.0" y="504.0" type="curve"/>
    </contour>
    <contour>
      <point x="364" y="90" type="curve" smooth="yes"/>
      <point x="268" y="90"/>
      <point x="195" y="159"/>
      <point x="195" y="266" type="curve" smooth="yes"/>
      <point x="195" y="373"/>
      <point x="268" y="442"/>
      <point x="364" y="442" type="curve" smooth="yes"/>
      <point x="460" y="442"/>
      <point x="533" y="373"/>
      <point x="533" y="266" type="curve" smooth="yes"/>
      <point x="533" y="159"/>
      <point x="460" y="90"/>
    </contour>
  </outline>
</glyph>
<glyph name="r" format="2">
  <advance width="415"/>
  <unicode hex="0072"/>
  <anchor x="142" y="0" name="bottom"/>
  <anchor x="235" y="532" name="top"/>
  <outline>
    <contour>
      <point x="87.0" y="27.999999999999996" type="line"/>
      <point x="87.0" y="12.536027004737779"/>
      <point x="99.53602700473778" y="0.0"/>
      <point x="115.0" y="0.0" type="curve"/>
      <point x="169.0" y="0.0" type="line"/>
      <point x="184.46397299526222" y="0.0"/>
      <point x="197.0" y="12.536027004737779"/>
      <point x="197.0" y="27.999999999999996" type="curve"/>
      <point x="197" y="261" type="line" smooth="yes"/>
      <point x="197" y="374"/>
      <point x="259" y="433"/>
      <point x="358" y="433" type="curve" smooth="yes"/>
      <point x="366" y="433"/>
      <point x="374" y="432"/>
      <point x="383" y="431" type="curve"/>
      <point x="383" y="538" type="line"/>
      <point x="282" y="538"/>
      <point x="212" y="501"/>
      <point x="181" y="430" type="curve"/>
      <point x="187.05" y="406.9" type="line"/>
      <point x="187.79751368702497" y="404.0458568313592"/>
      <point x="192.0" y="404.58705557545454"/>
      <point x="192.0" y="407.53746401148317" type="curve"/>
      <point x="192.0" y="504.0" type="line"/>
      <point x="192.0" y="519.4639729952622"/>
      <point x="179.46397299526222" y="532.0"/>
      <point x="164.0" y="532.0" type="curve"/>
      <point x="115.0" y="532.0" type="line"/>
      <point x="99.53602700473778" y="532.0"/>
      <point x="87.0" y="519.4639729952622"/>
      <point x="87.0" y="504.0" type="curve"/>
    </contour>
  </outline>
</glyph>
<glyph name="s" format="2">
  <advance width="508"/>
  <unicode hex="0073"/>
  <anchor x="251" y="0" name="bottom"/>
  <anchor x="251" y="532" name="top"/>
  <outline>
    <contour>
      <point x="245" y="-6" type="curve" smooth="yes"/>
      <point x="388" y="-6"/>
      <point x="480" y="55"/>
      <point x="480" y="155" type="curve" smooth="yes"/>
      <point x="480" y="363"/>
      <point x="148" y="264"/>
      <point x="148" y="379" type="curve" smooth="yes"/>
      <point x="148" y="417"/>
      <point x="187" y="444"/>
      <point x="266" y="444" type="curve" smooth="yes"/>
      <point x="309.16820404461896" y="444.0"/>
      <point x="352.3364080892379" y="436.8354715861674"/>
      <point x="394.89818110552" y="416.4421044751337" type="curve"/>
      <point x="407.7549354620586" y="410.2818227747222"/>
      <point x="423.6010445088191" y="414.59327983189695"/>
      <point x="430.264786467503" y="427.1964439711469" type="curve"/>
      <point x="452.3836295706675" y="469.029908101045" type="line"/>
      <point x="458.92033767866275" y="481.3928125661664"/>
      <point x="454.7551775147503" y="496.8057850277702"/>
      <point x="442.066937466751" y="502.6861357135029" type="curve"/>
      <point x="394.4458284786681" y="524.7560855122208"/>
      <point x="327.0440491038398" y="538.0"/>
      <point x="267" y="538" type="curve" smooth="yes"/>
      <point x="129" y="538"/>
      <point x="39" y="474"/>
      <point x="39" y="374" type="curve" smooth="yes"/>
      <point x="39" y="161"/>
      <point x="371" y="261"/>
      <point x="371" y="152" type="curve" smooth="yes"/>
      <point x="371" y="112"/>
      <point x="336" y="88"/>
      <point x="253" y="88" type="curve" smooth="yes"/>
      <point x="195.65996856615266" y="88.0"/>
      <point x="134.65778609105493" y="104.11346458150172"/>
      <point x="89.42516460588476" y="128.19161127981764" type="curve"/>
      <point x="77.65495173514718" y="134.4571095610734"/>
      <point x="62.564894251073184" y="130.72056086616016"/>
      <point x="56.3323261393041" y="118.93287769824906" type="curve"/>
      <point x="33.256825185439126" y="75.29008241593922" type="line"/>
      <point x="26.7846106466311" y="63.049154918628396"/>
      <point x="30.202712003482397" y="47.78347555821756"/>
      <point x="42.28237264663604" y="41.01504399861507" type="curve"/>
      <point x="91.213198697286" y="13.598301338187458"/>
      <point x="167.72970893829324" y="-6.0"/>
    </contour>
  </outline>
</glyph>
<glyph name="t" format="2">
  <advance width="419"/>
  <unicode hex="0074"/>
  <anchor x="255" y="0" name="bottom"/>
  <anchor x="187" y="285" name="center"/>
  <anchor x="157" y="649" name="top"/>
  <anchor x="292" y="742" name="topright"/>
  <outline>
    <contour>
      <point x="278" y="-6" type="curve" smooth="yes"/>
      <point x="315.4876008313531" y="-6.0"/>
      <point x="352.97520166270624" y="2.710662496430995"/>
      <point x="381.8044961664082" y="20.131987489292985" type="curve"/>
      <point x="390.5641772910488" y="25.425396652899323"/>
      <point x="393.2812344061685" y="36.50856005796029"/>
      <point x="389.3362661180342" y="45.952575050766605" type="curve"/>
      <point x="367.1987814934828" y="98.94837157620785" type="line"/>
      <point x="365.0896464082853" y="103.99751314380173"/>
      <point x="358.7259398234134" y="105.6353832275342"/>
      <point x="354.0656567258184" y="102.76762402783037" type="curve"/>
      <point x="336.2339840637588" y="91.79469765150802"/>
      <point x="313.97916063509865" y="86.0"/>
      <point x="291" y="86" type="curve" smooth="yes"/>
      <point x="240" y="86"/>
      <point x="212" y="116"/>
      <point x="212" y="170" type="curve" smooth="yes"/>
      <point x="212.0" y="621.0" type="line"/>
      <point x="212.0" y="636.4639729952622"/>
      <point x="199.46397299526222" y="649.0"/>
      <point x="184.0" y="649.0" type="curve"/>
      <point x="130.0" y="649.0" type="line"/>
      <point x="114.53602700473778" y="649.0"/>
      <point x="102.0" y="636.4639729952622"/>
      <point x="102.0" y="621.0" type="curve"/>
      <point x="102" y="167" type="line" smooth="yes"/>
      <point x="102" y="54"/>
      <point x="166" y="-6"/>
    </contour>
    <contour>
      <point x="13.0" y="470.0" type="line"/>
      <point x="13.0" y="454.5360270047378"/>
      <point x="25.536027004737782" y="442.0"/>
      <point x="41.0" y="442.0" type="curve"/>
      <point x="332.0" y="442.0" type="line"/>
      <point x="347.4639729952622" y="442.0"/>
      <point x="360.0" y="454.5360270047378"/>
      <point x="360.0" y="470.0" type="curve"/>
      <point x="360.0" y="504.0" type="line"/>
      <point x="360.0" y="519.4639729952622"/>
      <point x="347.4639729952622" y="532.0"/>
      <point x="332.0" y="532.0" type="curve"/>
      <point x="41.0" y="532.0" type="line"/>
      <point x="25.536027004737782" y="532.0"/>
      <point x="13.0" y="519.4639729952622"/>
      <point x="13.0" y="504.0" type="curve"/>
    </contour>
  </outline>
</glyph>
<glyph name="u" format="2">
  <advance width="679"/>
  <unicode hex="0075"/>
  <anchor x="337" y="0" name="bottom"/>
  <anchor x="592" y="0" name="ogonek"/>
  <anchor x="337" y="532" name="top"/>
  <anchor x="538" y="532" name="topright"/>
  <outline>
    <contour>
      <point x="313" y="-6" type="curve" smooth="yes"/>
      <point x="395" y="-6"/>
      <point x="469" y="31"/>
      <point x="505" y="98" type="curve"/>
      <point x="487" y="142" type="line"/>
      <point x="487.0" y="27.999999999999996" type="line"/>
      <point x="487.0" y="12.536027004737779"/>
      <point x="499.5360270047378" y="0.0"/>
      <point x="515.0" y="0.0" type="curve"/>
      <point x="564.0" y="0.0" type="line"/>
      <point x="579.4639729952622" y="0.0"/>
      <point x="592.0" y="12.536027004737779"/>
      <point x="592.0" y="27.999999999999996" type="curve"/>
      <point x="592.0" y="504.0" type="line"/>
      <point x="592.0" y="519.4639729952622"/>
      <point x="579.4639729952622" y="532.0"/>
      <point x="564.0" y="532.0" type="curve"/>
      <point x="510.0" y="532.0" type="line"/>
      <point x="494.5360270047378" y="532.0"/>
      <point x="482.0" y="519.4639729952622"/>
      <point x="482.0" y="504.0" type="curve"/>
      <point x="482" y="260" type="line" smooth="yes"/>
      <point x="482" y="149"/>
      <point x="420" y="92"/>
      <point x="326" y="92" type="curve" smooth="yes"/>
      <point x="241" y="92"/>
      <point x="192" y="141"/>
      <point x="192" y="240" type="curve" smooth="yes"/>
      <point x="192.0" y="504.0" type="line"/>
      <point x="192.0" y="519.4639729952622"/>
      <point x="179.46397299526222" y="532.0"/>
      <point x="164.0" y="532.0" type="curve"/>
      <point x="110.0" y="532.0" type="line"/>
      <point x="94.53602700473778" y="532.0"/>
      <point x="82.0" y="519.4639729952622"/>
      <point x="82.0" y="504.0" type="curve"/>
      <point x="82" y="227" type="line" smooth="yes"/>
      <point x="82" y="68"/>
      <point x="175" y="-6"/>
    </contour>
  </outline>
</glyph>
<glyph name="v" format="2">
  <advance width="568"/>
  <unicode hex="0076"/>
  <anchor x="284" y="0" name="bottom"/>
  <anchor x="284" y="532" name="top"/>
  <outline>
    <contour>
      <point x="219.69849964095002" y="16.888687787019975" type="line"/>
      <point x="224.13053517800404" y="6.637196892616775"/>
      <point x="234.23092047778388" y="0.0"/>
      <point x="245.3994478901038" y="0.0" type="curve"/>
      <point x="321.6322595357176" y="0.0" type="line"/>
      <point x="332.78469592758756" y="0.0"/>
      <point x="342.8737455200758" y="6.618323015932041"/>
      <point x="347.3155907697591" y="16.848027227324057" type="curve"/>
      <point x="553.9998012960749" y="492.84802722732405" type="line"/>
      <point x="562.0287866117029" y="511.3390237118007"/>
      <point x="548.4753776759766" y="532.0"/>
      <point x="528.3164700620333" y="532.0" type="curve"/>
      <point x="482.34116523712066" y="532.0" type="line"/>
      <point x="471.2022253028953" y="532.0"/>
      <point x="461.1226947921603" y="525.3974880496432"/>
      <point x="456.6726632345977" y="515.1860629779416" type="curve"/>
      <point x="267.0674566801474" y="80.10165180227065" type="line"/>
      <point x="262.3158295202349" y="69.19815952710906"/>
      <point x="270.30613164435863" y="57.0"/>
      <point x="282.2" y="57.0" type="curve"/>
      <point x="287.8" y="57.0" type="line"/>
      <point x="299.7457509984261" y="57.0"/>
      <point x="307.8130059799315" y="69.19713940362641"/>
      <point x="303.13808709265953" y="80.19014173755804" type="curve"/>
      <point x="118.24747039232099" y="514.9576810081561" type="line"/>
      <point x="113.85294681631873" y="525.2913379319237"/>
      <point x="103.70990725159217" y="532.0"/>
      <point x="92.48064623947873" y="532.0" type="curve"/>
      <point x="39.60997420589326" y="532.0" type="line"/>
      <point x="19.470140268930127" y="532.0"/>
      <point x="5.916883714197768" y="511.3748602784643"/>
      <point x="13.90902595673948" y="492.88868778702" type="curve"/>
    </contour>
  </outline>
</glyph>
<glyph name="w" format="2">
  <advance width="910"/>
  <unicode hex="0077"/>
  <anchor x="452" y="0" name="bottom"/>
  <anchor x="452" y="530" name="top"/>
  <outline>
    <contour>
      <point x="195.2320851595977" y="18.276805558852974" type="line"/>
      <point x="199.29983114103763" y="7.291826563289265"/>
      <point x="209.77570874557432" y="0.0"/>
      <point x="221.48964578239062" y="0.0" type="curve"/>
      <point x="287.8019222983314" y="0.0" type="line"/>
      <point x="299.37148519720756" y="0.0"/>
      <point x="309.74964077832334" y="7.11573704450949"/>
      <point x="313.91980269797796" y="17.90761061840357" type="curve"/>
      <point x="466.8096283180361" y="413.5679472230389" type="line"/>
      <point x="469.30946564907305" y="420.03722322517694"/>
      <point x="464.535468165415" y="427.0"/>
      <point x="457.6" y="427.0" type="curve"/>
      <point x="454.4" y="427.0" type="line"/>
      <point x="447.4447887998826" y="427.0"/>
      <point x="442.64081727600484" y="420.03932730336993"/>
      <point x="445.1079714679172" y="413.53639619258854" type="curve"/>
      <point x="595.1452248533816" y="18.067833256827633" type="line"/>
      <point x="599.2714278421058" y="7.191977230992733"/>
      <point x="609.692180608381" y="0.0"/>
      <point x="621.3244544789038" y="0.0" type="curve"/>
      <point x="687.5446683464929" y="0.0" type="line"/>
      <point x="699.241670765017" y="0.0"/>
      <point x="709.7061493291621" y="7.271067894516362"/>
      <point x="713.7861302489415" y="18.23344087089319" type="curve"/>
      <point x="890.9440249857836" y="494.2334408708932" type="line"/>
      <point x="897.7528366569906" y="512.5278237450452"/>
      <point x="884.2229206907158" y="532.0"/>
      <point x="864.702563083335" y="532.0" type="curve"/>
      <point x="826.4471083861399" y="532.0" type="line"/>
      <point x="814.7541665314199" y="532.0"/>
      <point x="804.2924237319697" y="524.7339054953992"/>
      <point x="800.2095178850276" y="513.776954776204" type="curve"/>
      <point x="637.6993518862606" y="77.66210251962599" type="line"/>
      <point x="633.9704095988241" y="67.6550540081437"/>
      <point x="641.3707663901292" y="57.0"/>
      <point x="652.05" y="57.0" type="curve"/>
      <point x="656.95" y="57.0" type="line"/>
      <point x="667.6473284543242" y="57.0"/>
      <point x="675.075320609653" y="67.65270120237037"/>
      <point x="671.3771968378568" y="77.69046572581728" type="curve"/>
      <point x="510.74956577209673" y="513.679750047166" type="line"/>
      <point x="506.6941318853807" y="524.6873563111094"/>
      <point x="496.20685529862965" y="532.0"/>
      <point x="484.4759585012177" y="532.0" type="curve"/>
      <point x="430.37058371315044" y="532.0" type="line"/>
      <point x="418.7154704580883" y="532.0"/>
      <point x="408.27926097527615" y="524.7801618059004"/>
      <point x="404.1692690256109" y="513.8737585875149" type="curve"/>
      <point x="239.77558488766797" y="77.63353531643739" type="line"/>
      <point x="236.0161053216789" y="67.65726272512563"/>
      <point x="243.3888695991819" y="57.0"/>
      <point x="254.05" y="57.0" type="curve"/>
      <point x="258.95" y="57.0" type="line"/>
      <point x="269.67445373108234" y="57.0"/>
      <point x="277.14397702668305" y="67.64890065305555"/>
      <point x="273.49260878523927" y="77.73262108727532" type="curve"/>
      <point x="115.68692721419856" y="513.533195193347" type="line"/>
      <point x="111.67342979030892" y="524.6169816837399"/>
      <point x="101.14785466882181" y="532.0"/>
      <point x="89.35978932559499" y="532.0" type="curve"/>
      <point x="45.22648788765379" y="532.0" type="line"/>
      <point x="25.725760232099297" y="532.0"/>
      <point x="12.197164167046209" y="512.5640033661493"/>
      <point x="18.96892726486083" y="494.27680555885297" type="curve"/>
    </contour>
  </outline>
</glyph>
<glyph name="x" format="2">
  <advance width="562"/>
  <unicode hex="0078"/>
  <outline>
    <contour>
      <point x="45.424151304133865" y="43.55268200235625" type="line"/>
      <point x="31.75848890468931" y="25.745909784898195"/>
      <point x="44.45380955217503" y="0.0"/>
      <point x="66.9" y="0.0" type="curve"/>
      <point x="120.06311972239108" y="0.0" type="line"/>
      <point x="128.84075987221263" y="0.0"/>
      <point x="137.11042414034216" y="4.116190030033623"/>
      <point x="142.4023243312624" y="11.11924357610175" type="curve"/>
      <point x="288.41458562366296" y="204.3450504361049" type="line"/>
      <point x="294.02804009960187" y="211.77363390426353"/>
      <point x="289.5327915615087" y="222.49572283980322"/>
      <point x="280.3" y="223.7" type="curve"/>
      <point x="275.7" y="224.3" type="line"/>
      <point x="267.9942370354625" y="225.30509951711358"/>
      <point x="262.8846996678806" y="216.53317646427544"/>
      <point x="267.5604360363524" y="210.32620479384795" type="curve"/>
      <point x="417.5985915387647" y="11.152746904680745" type="line"/>
      <point x="422.88887244745007" y="4.129976341689067"/>
      <point x="431.1706691279898" y="0.0"/>
      <point x="439.9630737179312" y="0.0" type="curve"/>
      <point x="494.2" y="0.0" type="line"/>
      <point x="516.9547634345744" y="0.0"/>
      <point x="529.7846544832594" y="26.14053299578529"/>
      <point x="515.864481629575" y="44.14075651348058" type="curve"/>
      <point x="333.968986413942" y="279.35044860266123" type="line"/>
      <point x="328.6695561011403" y="286.20316021404267"/>
      <point x="317.69933594274204" y="282.5614846790379"/>
      <point x="317.55" y="273.9" type="curve"/>
      <point x="317.45" y="268.1" type="line"/>
      <point x="317.30670632884346" y="259.7889670729196"/>
      <point x="327.8453861229018" y="256.1038653616212"/>
      <point x="332.9123672918958" y="262.69321307017844" type="curve"/>
      <point x="507.0827529872025" y="489.1928177860482" type="line"/>
      <point x="520.5320943112401" y="506.6829926020612"/>
      <point x="508.0633405708465" y="532.0"/>
      <point x="486.0" y="532.0" type="curve"/>
      <point x="433.88248593807117" y="532.0" type="line"/>
      <point x="425.13553310128725" y="532.0"/>
      <point x="416.89111531383014" y="527.9123923570729"/>
      <point x="411.5959945953771" y="520.950289190218" type="curve"/>
      <point x="270.8064197211849" y="335.83807037415056" type="line"/>
      <point x="265.4771796005504" y="328.83110651183483"/>
      <point x="270.3486776159644" y="318.73726217838373"/>
      <point x="279.15" y="318.55" type="curve"/>
      <point x="283.85" y="318.45" type="line"/>
      <point x="292.4075164000221" y="318.2679251829783"/>
      <point x="297.39782548010845" y="328.04237868677035"/>
      <point x="292.231590192741" y="334.86691172070016" type="curve"/>
      <point x="151.4028187855441" y="520.8999801227998" type="line"/>
      <point x="146.11000927715352" y="527.8917161400565"/>
      <point x="137.8473158472643" y="532.0"/>
      <point x="129.07815368505553" y="532.0" type="curve"/>
      <point x="75.9" y="532.0" type="line"/>
      <point x="53.45300756705272" y="532.0"/>
      <point x="40.756692221322965" y="506.25372235411305"/>
      <point x="54.42193788078344" y="488.4456194132777" type="curve"/>
      <point x="226.3824294135823" y="264.35230918049007" type="line"/>
      <point x="231.54611480714271" y="257.6231626042665"/>
      <point x="242.30121511606146" y="261.16926161550293"/>
      <point x="242.45" y="269.65" type="curve"/>
      <point x="242.55" y="275.35" type="line"/>
      <point x="242.69308550814145" y="283.5058739640629"/>
      <point x="232.34760848418415" y="287.11961105514905"/>
      <point x="227.3813951140292" y="280.6484845425229" type="curve"/>
    </contour>
  </outline>
</glyph>
<glyph name="y" format="2">
  <advance width="568"/>
  <unicode hex="0079"/>
  <anchor x="423" y="0" name="bottom"/>
  <anchor x="271" y="532" name="top"/>
  <outline>
    <contour>
      <point x="120" y="-200" type="curve" smooth="yes"/>
      <point x="205" y="-200"/>
      <point x="269" y="-165"/>
      <point x="317" y="-48" type="curve" smooth="yes"/>
      <point x="553.8189995121897" y="492.7677941616932" type="line"/>
      <point x="561.9208726527037" y="511.2681344038117"/>
      <point x="548.3672625498629" y="532.0"/>
      <point x="528.1706554719616" y="532.0" type="curve"/>
      <point x="482.427488561648" y="532.0" type="line"/>
      <point x="471.2447417085591" y="532.0"/>
      <point x="461.13435126168304" y="525.3461034173713"/>
      <point x="456.71102939603077" y="515.0753658171251" type="curve"/>
      <point x="259" y="56" type="line"/>
      <point x="249" y="42" type="line"/>
      <point x="217" y="-29" type="line" smooth="yes"/>
      <point x="192" y="-86"/>
      <point x="165" y="-107"/>
      <point x="120" y="-107" type="curve" smooth="yes"/>
      <point x="90.26084436534575" y="-107.0"/>
      <point x="61.24366210037491" y="-96.89237282443214"/>
      <point x="37.85608255482258" y="-79.13093314816396" type="curve"/>
      <point x="31.569657993448082" y="-74.35677725876165"/>
      <point x="22.23219253545791" y="-75.7165263498359"/>
      <point x="18.370154977466886" y="-82.60102808364599" type="curve"/>
      <point x="-9.720488901884021" y="-132.67565412944543" type="line"/>
      <point x="-15.760369840091055" y="-143.4423984105971"/>
      <point x="-13.788646954326872" y="-157.14938936182693"/>
      <point x="-3.6643790009957105" y="-164.2135342196693" type="curve"/>
      <point x="29.937196544348918" y="-187.65882411106807"/>
      <point x="75.69454979505281" y="-200.0"/>
    </contour>
    <contour>
      <point x="238" y="-18" type="line"/>
      <point x="312" y="66" type="line"/>
      <point x="118.29395398235069" y="515.0896390259929" type="line"/>
      <point x="113.86716754972642" y="525.35273592949"/>
      <point x="103.76074800954564" y="532.0"/>
      <point x="92.58364658875513" y="532.0" type="curve"/>
      <point x="39.839184002431935" y="532.0" type="line"/>
      <point x="19.640038318506665" y="532.0"/>
      <point x="6.086419444877848" y="511.2633581133493"/>
      <point x="14.193203873873689" y="492.76239779821356" type="curve"/>
    </contour>
  </outline>
</glyph>
<glyph name="z" format="2">
  <advance width="526"/>
  <unicode hex="007A"/>
  <anchor x="270" y="0" name="bottom"/>
  <anchor x="265" y="532" name="top"/>
  <outline>
    <contour>
      <point x="39.00605689347351" y="27.99605633806729" type="line"/>
      <point x="39.0082347009057" y="12.533623569498756"/>
      <point x="51.54362369381559" y="0.0"/>
      <point x="67.00605661575085" y="0.0" type="curve"/>
      <point x="463.0" y="0.0" type="line"/>
      <point x="478.4639729952622" y="0.0"/>
      <point x="491.0" y="12.536027004737779"/>
      <point x="491.0" y="27.999999999999996" type="curve"/>
      <point x="491.0" y="62.0" type="line"/>
      <point x="491.0" y="77.46397299526222"/>
      <point x="478.4639729952622" y="90.0"/>
      <point x="463.0" y="90.0" type="curve"/>
      <point x="144.98830908306152" y="90.0" type="line"/>
      <point x="136.21164836708266" y="90.0"/>
      <point x="130.80542156503077" y="80.40843393603613"/>
      <point x="135.35" y="72.9" type="curve"/>
      <point x="137.65" y="69.1" type="line"/>
      <point x="142.70020597334533" y="60.7561814353425"/>
      <point x="154.4855070749719" y="59.9181265482493"/>
      <point x="160.66558622624999" y="67.46335751204849" type="curve"/>
      <point x="476.6613625764006" y="453.26118595148614" type="line"/>
      <point x="480.7602547487435" y="458.265505051451"/>
      <point x="483.0" y="464.53467415954657"/>
      <point x="483.0" y="471.00337779279226" type="curve"/>
      <point x="483.0" y="504.0" type="line"/>
      <point x="483.0" y="519.4639729952622"/>
      <point x="470.4639729952622" y="532.0"/>
      <point x="455.0" y="532.0" type="curve"/>
      <point x="73.0" y="532.0" type="line"/>
      <point x="57.536027004737775" y="532.0"/>
      <point x="45.0" y="519.4639729952622"/>
      <point x="45.0" y="504.0" type="curve"/>
      <point x="45.0" y="470.0" type="line"/>
      <point x="45.0" y="454.5360270047378"/>
      <point x="57.536027004737775" y="442.0"/>
      <point x="73.0" y="442.0" type="curve"/>
      <point x="375.46253598851683" y="442.0" type="line"/>
      <point x="384.23903178783604" y="442.0"/>
      <point x="389.7950691274374" y="451.4184463408276"/>
      <point x="385.55" y="459.1" type="curve"/>
      <point x="383.45" y="462.9" type="line"/>
      <point x="378.92188454735395" y="471.09373272383567"/>
      <point x="367.5521185456722" y="472.12781040352223"/>
      <point x="361.6200916219875" y="464.88542529371017" type="curve"/>
      <point x="45.3400463854907" y="78.7405342437782" type="line"/>
      <point x="41.24029623375982" y="73.73516764062019"/>
      <point x="39.00049796389612" y="67.46445633751664"/>
      <point x="39.001409239614006" y="60.99439874053935" type="curve"/>
    </contour>
  </outline>
</glyph>
<glyph name="braceleft" format="2">
  <advance width="360"/>
  <unicode hex="007B"/>
  <outline>
    <contour>
      <point x="295" y="-194" type="curve" smooth="yes"/>
      <point x="320.85" y="-194.0" type="line"/>
      <point x="332.5308224589213" y="-194.0"/>
      <point x="342.0" y="-184.53082245892128"/>
      <point x="342.0" y="-172.85" type="curve"/>
      <point x="342.0" y="-114.35" type="line"/>
      <point x="342.0" y="-108.63385283925129"/>
      <point x="337.3661471607487" y="-104.0"/>
      <point x="331.65" y="-104.0" type="curve"/>
      <point x="319" y="-104" type="line" smooth="yes"/>
      <point x="269" y="-104"/>
      <point x="245" y="-76"/>
      <point x="245" y="-27" type="curve" smooth="yes"/>
      <point x="245" y="177" type="line" smooth="yes"/>
      <point x="245" y="251"/>
      <point x="217" y="272"/>
      <point x="156" y="281" type="curve"/>
      <point x="156" y="267" type="line"/>
      <point x="217" y="276"/>
      <point x="245" y="297"/>
      <point x="245" y="371" type="curve" smooth="yes"/>
      <point x="245" y="575" type="line" smooth="yes"/>
      <point x="245" y="624"/>
      <point x="269" y="652"/>
      <point x="319" y="652" type="curve" smooth="yes"/>
      <point x="331.65" y="652.0" type="line"/>
      <point x="337.3661471607487" y="652.0"/>
      <point x="342.0" y="656.6338528392513"/>
      <point x="342.0" y="662.35" type="curve"/>
      <point x="342.0" y="720.85" type="line"/>
      <point x="342.0" y="732.5308224589213"/>
      <point x="332.5308224589213" y="742.0"/>
      <point x="320.85" y="742.0" type="curve"/>
      <point x="295" y="742" type="line" smooth="yes"/>
      <point x="189" y="742"/>
      <point x="135" y="688"/>
      <point x="135" y="586" type="curve" smooth="yes"/>
      <point x="135" y="369" type="line" smooth="yes"/>
      <point x="135" y="335"/>
      <point x="118" y="320"/>
      <point x="90" y="320" type="curve" smooth="yes"/>
      <point x="71.3" y="320.0" type="line"/>
      <point x="62.85004332758886" y="320.0"/>
      <point x="56.0" y="313.1499566724111"/>
      <point x="56.0" y="304.7" type="curve"/>
      <point x="56.0" y="243.3" type="line"/>
      <point x="56.0" y="234.85004332758885"/>
      <point x="62.85004332758886" y="228.0"/>
      <point x="71.3" y="228.0" type="curve"/>
      <point x="90" y="228" type="line" smooth="yes"/>
      <point x="118" y="228"/>
      <point x="135" y="213"/>
      <point x="135" y="179" type="curve" smooth="yes"/>
      <point x="135" y="-38" type="line" smooth="yes"/>
      <point x="135" y="-140"/>
      <point x="189" y="-194"/>
    </contour>
  </outline>
</glyph>
<glyph name="braceright" format="2">
  <advance width="360"/>
  <unicode hex="007D"/>
  <outline>
    <contour>
      <point x="65" y="-194" type="line" smooth="yes"/>
      <point x="171" y="-194"/>
      <point x="226" y="-140"/>
      <point x="226" y="-38" type="curve" smooth="yes"/>
      <point x="226" y="179" type="line" smooth="yes"/>
      <point x="226" y="213"/>
      <point x="243" y="228"/>
      <point x="270" y="228" type="curve" smooth="yes"/>
      <point x="288.7" y="228.0" type="line"/>
      <point x="297.1499566724111" y="228.0"/>
      <point x="304.0" y="234.85004332758885"/>
      <point x="304.0" y="243.3" type="curve"/>
      <point x="304.0" y="304.7" type="line"/>
      <point x="304.0" y="313.1499566724111"/>
      <point x="297.1499566724111" y="320.0"/>
      <point x="288.7" y="320.0" type="curve"/>
      <point x="270" y="320" type="line" smooth="yes"/>
      <point x="243" y="320"/>
      <point x="226" y="335"/>
      <point x="226" y="369" type="curve" smooth="yes"/>
      <point x="226" y="586" type="line" smooth="yes"/>
      <point x="226" y="688"/>
      <point x="171" y="742"/>
      <point x="65" y="742" type="curve" smooth="yes"/>
      <point x="39.150000000000006" y="742.0" type="line"/>
      <point x="27.469177541078714" y="742.0"/>
      <point x="18.0" y="732.5308224589213"/>
      <point x="18.0" y="720.85" type="curve"/>
      <point x="18.0" y="662.35" type="line"/>
      <point x="18.0" y="656.6338528392513"/>
      <point x="22.633852839251286" y="652.0"/>
      <point x="28.35" y="652.0" type="curve"/>
      <point x="41" y="652" type="line" smooth="yes"/>
      <point x="92" y="652"/>
      <point x="116" y="624"/>
      <point x="116" y="575" type="curve" smooth="yes"/>
      <point x="116" y="371" type="line" smooth="yes"/>
      <point x="116" y="297"/>
      <point x="143" y="276"/>
      <point x="204" y="267" type="curve"/>
      <point x="204" y="281" type="line"/>
      <point x="143" y="272"/>
      <point x="116" y="251"/>
      <point x="116" y="177" type="curve" smooth="yes"/>
      <point x="116" y="-27" type="line" smooth="yes"/>
      <point x="116" y="-76"/>
      <point x="92" y="-104"/>
      <point x="41" y="-104" type="curve" smooth="yes"/>
      <point x="28.35" y="-104.0" type="line"/>
      <point x="22.633852839251286" y="-104.0"/>
      <point x="18.0" y="-108.63385283925129"/>
      <point x="18.0" y="-114.35" type="curve"/>
      <point x="18.0" y="-172.85" type="line"/>
      <point x="18.0" y="-184.53082245892128"/>
      <point x="27.469177541078714" y="-194.0"/>
      <point x="39.150000000000006" y="-194.0" type="curve"/>
    </contour>
  </outline>
</glyph>
<glyph name="asciitilde" format="2">
  <advance width="586"/>
  <unicode hex="007E"/>
  <outline>
    <contour>
      <point x="394" y="261" type="curve" smooth="yes"/>
      <point x="465.3818610994249" y="261.0"/>
      <point x="517.5011462352725" y="306.22517834926856"/>
      <point x="528.1310119662792" y="404.3399638206551" type="curve"/>
      <point x="529.8266657875411" y="419.99102801251627"/>
      <point x="517.0217386679452" y="433.0"/>
      <point x="501.27908793119445" y="433.0" type="curve"/>
      <point x="459" y="433" type="line"/>
      <point x="457" y="380"/>
      <point x="432" y="345"/>
      <point x="390" y="345" type="curve" smooth="yes"/>
      <point x="332" y="345"/>
      <point x="289" y="440"/>
      <point x="192" y="440" type="curve" smooth="yes"/>
      <point x="120.67636013203173" y="440.0"/>
      <point x="68.5838867486722" y="394.84856564483164"/>
      <point x="57.89508095643538" y="297.6645759014389" type="curve"/>
      <point x="56.173738987927145" y="282.01391450258797"/>
      <point x="68.98211371526864" y="269.0"/>
      <point x="84.72715167629089" y="269.0" type="curve"/>
      <point x="127" y="269" type="line"/>
      <point x="129" y="322"/>
      <point x="155" y="356"/>
      <point x="196" y="356" type="curve" smooth="yes"/>
      <point x="254" y="356"/>
      <point x="298" y="261"/>
    </contour>
  </outline>
</glyph>
<glyph name="exclamdown" format="2">
  <advance width="273"/>
  <unicode hex="00A1"/>
  <outline>
    <contour>
      <point x="181.2777969528183" y="278.34050902983614" type="line"/>
      <point x="180.56240409057045" y="293.26620556491673"/>
      <point x="168.25273520321085" y="305.0"/>
      <point x="153.30990401214564" y="305.0" type="curve"/>
      <point x="119.74824389719193" y="305.0" type="line"/>
      <point x="104.78186759098196" y="305.0"/>
      <point x="92.4615235843348" y="293.2304440576034"/>
      <point x="91.77750293933678" y="278.27970710264697" type="curve"/>
      <point x="73.33959444260476" y="-124.72029289735305" type="line"/>
      <point x="72.60987327794352" y="-140.66991263923447"/>
      <point x="85.34403141710894" y="-154.0"/>
      <point x="101.31033540045989" y="-154.0" type="curve"/>
      <point x="172.6258081515792" y="-154.0" type="line"/>
      <point x="188.6161182208627" y="-154.0"/>
      <point x="201.35924234360024" y="-140.6314652596596"/>
      <point x="200.59370109225185" y="-124.65949097016383" type="curve"/>
    </contour>
    <contour>
      <point x="137" y="538" type="curve" smooth="yes"/>
      <point x="95" y="538"/>
      <point x="64" y="506"/>
      <point x="64" y="466" type="curve" smooth="yes"/>
      <point x="64" y="427"/>
      <point x="95" y="396"/>
      <point x="137" y="396" type="curve" smooth="yes"/>
      <point x="179" y="396"/>
      <point x="209" y="427"/>
      <point x="209" y="466" type="curve" smooth="yes"/>
      <point x="209" y="506"/>
      <point x="179" y="538"/>
    </contour>
  </outline>
</glyph>
<glyph name="sterling" format="2">
  <advance width="651"/>
  <unicode hex="00A3"/>
  <outline>
    <contour>
      <point x="137" y="15" type="line"/>
      <point x="251" y="15" type="line"/>
      <point x="251" y="443" type="line" smooth="yes"/>
      <point x="251" y="549"/>
      <point x="313" y="607"/>
      <point x="430" y="607" type="curve" smooth="yes"/>
      <point x="486.94032070010644" y="607.0"/>
      <point x="536.6580971332693" y="599.055201306362"/>
      <point x="578.5395173788461" y="578.2551085539461" type="curve"/>
      <point x="589.9509912518155" y="572.5876857777425"/>
      <point x="604.3448102060105" y="577.155593772189"/>
      <point x="608.9688869560671" y="589.0282232655776" type="curve"/>
      <point x="628.4959179780101" y="639.1651948084042" type="line"/>
      <point x="633.4173119015678" y="651.8012062337552"/>
      <point x="628.6336960963295" y="666.2845546944545"/>
      <point x="616.5581161169495" y="672.4545847635895" type="curve"/>
      <point x="567.5597878605736" y="697.4903312201096"/>
      <point x="511.9530064502137" y="709.0"/>
      <point x="441" y="709" type="curve" smooth="yes"/>
      <point x="248" y="709"/>
      <point x="137" y="603"/>
      <point x="137" y="442" type="curve" smooth="yes"/>
    </contour>
    <contour>
      <point x="30.0" y="27.999999999999996" type="line"/>
      <point x="30.0" y="12.536027004737779"/>
      <point x="42.53602700473778" y="0.0"/>
      <point x="58.0" y="0.0" type="curve"/>
      <point x="593.0" y="0.0" type="line"/>
      <point x="608.4639729952622" y="0.0"/>
      <point x="621.0" y="12.536027004737779"/>
      <point x="621.0" y="27.999999999999996" type="curve"/>
      <point x="621.0" y="71.0" type="line"/>
      <point x="621.0" y="86.46397299526222"/>
      <point x="608.4639729952622" y="99.0"/>
      <point x="593.0" y="99.0" type="curve"/>
      <point x="58.0" y="99.0" type="line"/>
      <point x="42.53602700473778" y="99.0"/>
      <point x="30.0" y="86.46397299526222"/>
      <point x="30.0" y="71.0" type="curve"/>
    </contour>
    <contour>
      <point x="30.0" y="341.0" type="line"/>
      <point x="30.0" y="325.5360270047378"/>
      <point x="42.53602700473778" y="313.0"/>
      <point x="58.0" y="313.0" type="curve"/>
      <point x="483.0" y="313.0" type="line"/>
      <point x="498.4639729952622" y="313.0"/>
      <point x="511.0" y="325.5360270047378"/>
      <point x="511.0" y="341.0" type="curve"/>
      <point x="511.0" y="359.0" type="line"/>
      <point x="511.0" y="374.4639729952622"/>
      <point x="498.4639729952622" y="387.0"/>
      <point x="483.0" y="387.0" type="curve"/>
      <point x="58.0" y="387.0" type="line"/>
      <point x="42.53602700473778" y="387.0"/>
      <point x="30.0" y="374.4639729952622"/>
      <point x="30.0" y="359.0" type="curve"/>
    </contour>
  </outline>
</glyph>
<glyph name="currency" format="2">
  <advance width="700"/>
  <unicode hex="00A4"/>
  <outline>
    <contour>
      <point x="144" y="457" type="line"/>
      <point x="207" y="525" type="line"/>
      <point x="112.73338411293156" y="618.4469061837026" type="line"/>
      <point x="101.4253883603547" y="629.656571538431"/>
      <point x="83.05815158100992" y="629.1928114114303"/>
      <point x="72.33027702812302" y="617.4267554501995" type="curve"/>
      <point x="48.014493047603835" y="590.7578310844688" type="line"/>
      <point x="37.933768704563825" y="579.7015527727475"/>
      <point x="38.32651507277879" y="562.6734849272212"/>
      <point x="48.90626680395373" y="552.0937331960463" type="curve"/>
    </contour>
    <contour>
      <point x="72.33027702812302" y="17.573244549800556" type="line"/>
      <point x="83.05815158100992" y="5.807188588569755"/>
      <point x="101.4253883603547" y="5.343428461569015"/>
      <point x="112.73338411293156" y="16.553093816297373" type="curve"/>
      <point x="187.77542080426213" y="90.9425910581381" type="line"/>
      <point x="198.49630929852128" y="101.57025443505587"/>
      <point x="198.8622867216509" y="118.78356353853556"/>
      <point x="188.6027982573936" y="129.85729711900376" type="curve"/>
      <point x="144" y="178" type="line"/>
      <point x="48.90626680395373" y="82.90626680395373" type="line"/>
      <point x="38.32651507277879" y="72.32651507277879"/>
      <point x="37.933768704563825" y="55.29844722725258"/>
      <point x="48.014493047603835" y="44.24216891553128" type="curve"/>
    </contour>
    <contour>
      <point x="586.4313565214209" y="16.389785709200154" type="line"/>
      <point x="597.6769539702707" y="5.241976064253324"/>
      <point x="615.9218056176002" y="5.629885428520867"/>
      <point x="626.683420885023" y="17.24559714573911" type="curve"/>
      <point x="651.6027982573936" y="44.142702880996254" type="line"/>
      <point x="661.8622867216509" y="55.21643646146445"/>
      <point x="661.4963092985213" y="72.42974556494413"/>
      <point x="650.7754208042621" y="83.0574089418619" type="curve"/>
      <point x="555" y="178" type="line"/>
      <point x="492" y="110" type="line"/>
    </contour>
    <contour>
      <point x="555" y="457" type="line"/>
      <point x="650.7754208042621" y="551.9425910581381" type="line"/>
      <point x="661.4963092985213" y="562.5702544350559"/>
      <point x="661.8622867216509" y="579.7835635385355"/>
      <point x="651.6027982573936" y="590.8572971190038" type="curve"/>
      <point x="626.683420885023" y="617.7544028542609" type="line"/>
      <point x="615.9218056176002" y="629.3701145714791"/>
      <point x="597.6769539702707" y="629.7580239357467"/>
      <point x="586.4313565214209" y="618.6102142907998" type="curve"/>
      <point x="492" y="525" type="line"/>
    </contour>
    <contour>
      <point x="350" y="57" type="curve" smooth="yes"/>
      <point x="499" y="57"/>
      <point x="620" y="175"/>
      <point x="620" y="319" type="curve" smooth="yes"/>
      <point x="620" y="465"/>
      <point x="499" y="583"/>
      <point x="350" y="583" type="curve" smooth="yes"/>
      <point x="202" y="583"/>
      <point x="81" y="465"/>
      <point x="81" y="319" type="curve" smooth="yes"/>
      <point x="81" y="175"/>
      <point x="202" y="57"/>
    </contour>
    <contour>
      <point x="350" y="147" type="curve" smooth="yes"/>
      <point x="251" y="147"/>
      <point x="170" y="225"/>
      <point x="170" y="319" type="curve" smooth="yes"/>
      <point x="170" y="415"/>
      <point x="251" y="493"/>
      <point x="350" y="493" type="curve" smooth="yes"/>
      <point x="449" y="493"/>
      <point x="532" y="415"/>
      <point x="532" y="319" type="curve" smooth="yes"/>
      <point x="532" y="225"/>
      <point x="449" y="147"/>
    </contour>
  </outline>
</glyph>
<glyph name="yen" format="2">
  <advance width="714"/>
  <unicode hex="00A5"/>
  <outline>
    <contour>
      <point x="300.0" y="27.999999999999996" type="line"/>
      <point x="300.0" y="12.536027004737779"/>
      <point x="312.5360270047378" y="0.0"/>
      <point x="328.0" y="0.0" type="curve"/>
      <point x="386.0" y="0.0" type="line"/>
      <point x="401.4639729952622" y="0.0"/>
      <point x="414.0" y="12.536027004737779"/>
      <point x="414.0" y="27.999999999999996" type="curve"/>
      <point x="414" y="305" type="line"/>
      <point x="388" y="229" type="line"/>
      <point x="689.9255955990935" y="657.3342033950995" type="line"/>
      <point x="702.5663556547996" y="675.2673298596706"/>
      <point x="689.7405068214076" y="700.0"/>
      <point x="667.8" y="700.0" type="curve"/>
      <point x="618.5153957231555" y="700.0" type="line"/>
      <point x="609.4136336709938" y="700.0"/>
      <point x="600.8797986988058" y="695.5760002979495"/>
      <point x="595.6339081335686" y="688.1380768893812" type="curve"/>
      <point x="324" y="303" type="line"/>
      <point x="394" y="303" type="line"/>
      <point x="123.36331068254732" y="688.0995184911424" type="line"/>
      <point x="118.12037792730091" y="695.5598923400055"/>
      <point x="109.57309347403805" y="700.0"/>
      <point x="100.45467684389675" y="700.0" type="curve"/>
      <point x="47.99367893111802" y="700.0" type="line"/>
      <point x="25.29925975676768" y="700.0"/>
      <point x="12.032693397970295" y="674.4174741251686"/>
      <point x="25.107811020443446" y="655.868135570395" type="curve"/>
      <point x="326" y="229" type="line"/>
      <point x="300" y="305" type="line"/>
    </contour>
    <contour>
      <point x="95.0" y="138.0" type="line"/>
      <point x="95.0" y="122.53602700473778"/>
      <point x="107.53602700473778" y="110.0"/>
      <point x="123.0" y="110.0" type="curve"/>
      <point x="591.0" y="110.0" type="line"/>
      <point x="606.4639729952622" y="110.0"/>
      <point x="619.0" y="122.53602700473778"/>
      <point x="619.0" y="138.0" type="curve"/>
      <point x="619.0" y="146.0" type="line"/>
      <point x="619.0" y="161.46397299526222"/>
      <point x="606.4639729952622" y="174.0"/>
      <point x="591.0" y="174.0" type="curve"/>
      <point x="123.0" y="174.0" type="line"/>
      <point x="107.53602700473778" y="174.0"/>
      <point x="95.0" y="161.46397299526222"/>
      <point x="95.0" y="146.0" type="curve"/>
    </contour>
    <contour>
      <point x="95.0" y="276.0" type="line"/>
      <point x="95.0" y="260.5360270047378"/>
      <point x="107.53602700473778" y="248.0"/>
      <point x="123.0" y="248.0" type="curve"/>
      <point x="591.0" y="248.0" type="line"/>
      <point x="606.4639729952622" y="248.0"/>
      <point x="619.0" y="260.5360270047378"/>
      <point x="619.0" y="276.0" type="curve"/>
      <point x="619.0" y="284.0" type="line"/>
      <point x="619.0" y="299.4639729952622"/>
      <point x="606.4639729952622" y="312.0"/>
      <point x="591.0" y="312.0" type="curve"/>
      <point x="123.0" y="312.0" type="line"/>
      <point x="107.53602700473778" y="312.0"/>
      <point x="95.0" y="299.4639729952622"/>
      <point x="95.0" y="284.0" type="curve"/>
    </contour>
  </outline>
</glyph>
<glyph name="brokenbar" format="2">
  <advance width="301"/>
  <unicode hex="00A6"/>
  <outline>
    <contour>
      <point x="100.0" y="420.0" type="line"/>
      <point x="100.0" y="404.5360270047378"/>
      <point x="112.53602700473778" y="392.0"/>
      <point x="128.0" y="392.0" type="curve"/>
      <point x="173.0" y="392.0" type="line"/>
      <point x="188.46397299526222" y="392.0"/>
      <point x="201.0" y="404.5360270047378"/>
      <point x="201.0" y="420.0" type="curve"/>
      <point x="201.0" y="714.0" type="line"/>
      <point x="201.0" y="729.4639729952622"/>
      <point x="188.46397299526222" y="742.0"/>
      <point x="173.0" y="742.0" type="curve"/>
      <point x="128.0" y="742.0" type="line"/>
      <point x="112.53602700473778" y="742.0"/>
      <point x="100.0" y="729.4639729952622"/>
      <point x="100.0" y="714.0" type="curve"/>
    </contour>
    <contour>
      <point x="100.0" y="-166.0" type="line"/>
      <point x="100.0" y="-181.46397299526222"/>
      <point x="112.53602700473778" y="-194.0"/>
      <point x="128.0" y="-194.0" type="curve"/>
      <point x="173.0" y="-194.0" type="line"/>
      <point x="188.46397299526222" y="-194.0"/>
      <point x="201.0" y="-181.46397299526222"/>
      <point x="201.0" y="-166.0" type="curve"/>
      <point x="201.0" y="128.0" type="line"/>
      <point x="201.0" y="143.46397299526222"/>
      <point x="188.46397299526222" y="156.0"/>
      <point x="173.0" y="156.0" type="curve"/>
      <point x="128.0" y="156.0" type="line"/>
      <point x="112.53602700473778" y="156.0"/>
      <point x="100.0" y="143.46397299526222"/>
      <point x="100.0" y="128.0" type="curve"/>
    </contour>
  </outline>
</glyph>
<glyph name="section" format="2">
  <advance width="505"/>
  <unicode hex="00A7"/>
  <outline>
    <contour>
      <point x="360" y="147" type="line"/>
      <point x="425" y="170"/>
      <point x="472" y="224"/>
      <point x="472" y="292" type="curve" smooth="yes"/>
      <point x="472" y="504"/>
      <point x="154" y="424"/>
      <point x="154" y="543" type="curve" smooth="yes"/>
      <point x="154" y="591"/>
      <point x="198" y="619"/>
      <point x="283" y="619" type="curve" smooth="yes"/>
      <point x="333.05179184120925" y="619.0"/>
      <point x="380.22489150601433" y="609.6442504266864"/>
      <point x="422.6877265165978" y="587.2696063244244" type="curve"/>
      <point x="434.5611136944885" y="581.0132456191759"/>
      <point x="449.7531631310442" y="585.6033099963726"/>
      <point x="454.84056570400134" y="598.0225574538856" type="curve"/>
      <point x="470.7640992549181" y="636.894712887006" type="line"/>
      <point x="475.6107195489571" y="648.7261683106894"/>
      <point x="471.8662024870332" y="662.5090559883598"/>
      <point x="460.59829536759327" y="668.5511859823994" type="curve"/>
      <point x="414.8638785764853" y="693.0751094159461"/>
      <point x="344.18863095197094" y="706.0"/>
      <point x="291" y="706" type="curve" smooth="yes"/>
      <point x="144" y="706"/>
      <point x="56" y="639"/>
      <point x="56" y="539" type="curve" smooth="yes"/>
      <point x="56" y="335"/>
      <point x="376" y="421"/>
      <point x="376" y="291" type="curve" smooth="yes"/>
      <point x="376" y="244"/>
      <point x="338" y="212"/>
      <point x="288" y="203" type="curve"/>
    </contour>
    <contour>
      <point x="234" y="-106" type="curve" smooth="yes"/>
      <point x="364" y="-106"/>
      <point x="451" y="-39"/>
      <point x="451" y="60" type="curve" smooth="yes"/>
      <point x="451" y="266"/>
      <point x="130" y="179"/>
      <point x="130" y="310" type="curve" smooth="yes"/>
      <point x="130" y="356"/>
      <point x="167" y="387"/>
      <point x="216" y="397" type="curve"/>
      <point x="146" y="453" type="line"/>
      <point x="81" y="430"/>
      <point x="34" y="378"/>
      <point x="34" y="304" type="curve" smooth="yes"/>
      <point x="34" y="97"/>
      <point x="353" y="181"/>
      <point x="353" y="57" type="curve" smooth="yes"/>
      <point x="353" y="9"/>
      <point x="309" y="-19"/>
      <point x="238" y="-19" type="curve" smooth="yes"/>
      <point x="180.69322753811275" y="-19.0"/>
      <point x="121.92329349458214" y="-0.7104802294580139"/>
      <point x="79.21089861088511" y="25.856730316496282" type="curve"/>
      <point x="68.74039402420965" y="32.36940891094248"/>
      <point x="54.37112143685948" y="28.563947079299908"/>
      <point x="49.74472774362104" y="17.13403324894611" type="curve"/>
      <point x="32.55375083806323" y="-25.3377920471379" type="line"/>
      <point x="28.04068819113356" y="-36.48771152778767"/>
      <point x="31.085018034341893" y="-49.44187846860177"/>
      <point x="41.187664044939226" y="-55.97065955427519" type="curve"/>
      <point x="87.07206028559706" y="-85.62320582673819"/>
      <point x="164.06278298047846" y="-106.0"/>
    </contour>
  </outline>
</glyph>
<glyph name="copyright" format="2">
  <advance width="798"/>
  <unicode hex="00A9"/>
  <outline>
    <contour>
      <point x="398" y="-3" type="curve" smooth="yes"/>
      <point x="597" y="-3"/>
      <point x="752" y="153"/>
      <point x="752" y="352" type="curve" smooth="yes"/>
      <point x="752" y="551"/>
      <point x="601" y="703"/>
      <point x="400" y="703" type="curve" smooth="yes"/>
      <point x="199" y="703"/>
      <point x="46" y="547"/>
      <point x="46" y="350" type="curve" smooth="yes"/>
      <point x="46" y="153"/>
      <point x="199" y="-3"/>
    </contour>
    <contour>
      <point x="398" y="47" type="curve" smooth="yes"/>
      <point x="226" y="47"/>
      <point x="98" y="180"/>
      <point x="98" y="350" type="curve" smooth="yes"/>
      <point x="98" y="520"/>
      <point x="226" y="653"/>
      <point x="400" y="653" type="curve" smooth="yes"/>
      <point x="573" y="653"/>
      <point x="700" y="523"/>
      <point x="700" y="352" type="curve" smooth="yes"/>
      <point x="700" y="181"/>
      <point x="569" y="47"/>
    </contour>
    <contour>
      <point x="409" y="145" type="curve" smooth="yes"/>
      <point x="482" y="145"/>
      <point x="542" y="178"/>
      <point x="573" y="230" type="curve"/>
      <point x="525.0440772184973" y="262.9696969122831" type="line"/>
      <point x="516.2204940700891" y="269.0359103268137"/>
      <point x="504.2480709913698" y="266.5480071392632"/>
      <point x="496.99054811685244" y="258.67508350865677" type="curve"/>
      <point x="473.710426199136" y="233.42092652722567"/>
      <point x="442.639732869447" y="222.0"/>
      <point x="408" y="222" type="curve" smooth="yes"/>
      <point x="338" y="222"/>
      <point x="284" y="272"/>
      <point x="284" y="350" type="curve" smooth="yes"/>
      <point x="284" y="428"/>
      <point x="338" y="478"/>
      <point x="408" y="478" type="curve" smooth="yes"/>
      <point x="442.639732869447" y="478.0"/>
      <point x="473.710426199136" y="466.5790734727743"/>
      <point x="496.99054811685244" y="441.32491649134323" type="curve"/>
      <point x="504.20241194076533" y="433.5015235648999"/>
      <point x="516.1698153231727" y="431.1533047635304"/>
      <point x="524.8099205123418" y="437.3633803682457" type="curve"/>
      <point x="573" y="472" type="line"/>
      <point x="542" y="522"/>
      <point x="482" y="555"/>
      <point x="409" y="555" type="curve" smooth="yes"/>
      <point x="286" y="555"/>
      <point x="198" y="470"/>
      <point x="198" y="350" type="curve" smooth="yes"/>
      <point x="198" y="230"/>
      <point x="286" y="145"/>
    </contour>
  </outline>
</glyph>
<glyph name="ordfeminine" format="2">
  <advance width="406"/>
  <unicode hex="00AA"/>
  <outline>
    <contour>
      <point x="272.0" y="455.0" type="line"/>
      <point x="272.0" y="439.5360270047378"/>
      <point x="284.5360270047378" y="427.0"/>
      <point x="300.0" y="427.0" type="curve"/>
      <point x="316.0" y="427.0" type="line"/>
      <point x="331.4639729952622" y="427.0"/>
      <point x="344.0" y="439.5360270047378"/>
      <point x="344.0" y="455.0" type="curve"/>
      <point x="344" y="614" type="line" smooth="yes"/>
      <point x="344" y="705"/>
      <point x="290" y="748"/>
      <point x="190" y="748" type="curve" smooth="yes"/>
      <point x="138" y="748"/>
      <point x="80" y="732"/>
      <point x="45" y="705" type="curve"/>
      <point x="74" y="654" type="line"/>
      <point x="101" y="675"/>
      <point x="142" y="688"/>
      <point x="182" y="688" type="curve" smooth="yes"/>
      <point x="238" y="688"/>
      <point x="266" y="666"/>
      <point x="266" y="617" type="curve" smooth="yes"/>
      <point x="266.0" y="510.03738353924945" type="line"/>
      <point x="266.0" y="506.06702638718446"/>
      <point x="266.92440230260604" y="502.15119539478786"/>
      <point x="268.7" y="498.6" type="curve"/>
      <point x="269.3" y="497.4" type="line"/>
      <point x="271.07559769739396" y="493.84880460521214"/>
      <point x="272.0" y="489.93297361281554"/>
      <point x="272.0" y="485.96261646075055" type="curve"/>
    </contour>
    <contour>
      <point x="162" y="423" type="curve" smooth="yes"/>
      <point x="223" y="423"/>
      <point x="264" y="445"/>
      <point x="278" y="472" type="curve"/>
      <point x="266" y="521" type="line"/>
      <point x="251" y="493"/>
      <point x="222" y="477"/>
      <point x="178" y="477" type="curve" smooth="yes"/>
      <point x="135" y="477"/>
      <point x="109" y="492"/>
      <point x="109" y="521" type="curve" smooth="yes"/>
      <point x="109" y="547"/>
      <point x="131" y="563"/>
      <point x="184" y="563" type="curve" smooth="yes"/>
      <point x="254.95" y="563.0" type="line"/>
      <point x="267.127878733769" y="563.0"/>
      <point x="277.0" y="572.872121266231"/>
      <point x="277.0" y="585.05" type="curve"/>
      <point x="277.0" y="589.95" type="line"/>
      <point x="277.0" y="602.127878733769"/>
      <point x="267.127878733769" y="612.0"/>
      <point x="254.95" y="612.0" type="curve"/>
      <point x="173" y="612" type="line" smooth="yes"/>
      <point x="75" y="612"/>
      <point x="35" y="572"/>
      <point x="35" y="518" type="curve" smooth="yes"/>
      <point x="35" y="464"/>
      <point x="78" y="423"/>
    </contour>
  </outline>
</glyph>
<glyph name="logicalnot" format="2">
  <advance width="586"/>
  <unicode hex="00AC"/>
  <outline>
    <contour>
      <point x="520.0" y="368.0" type="line"/>
      <point x="520.0" y="383.4639729952622"/>
      <point x="507.4639729952622" y="396.0"/>
      <point x="492.0" y="396.0" type="curve"/>
      <point x="94.0" y="396.0" type="line"/>
      <point x="78.53602700473778" y="396.0"/>
      <point x="66.0" y="383.4639729952622"/>
      <point x="66.0" y="368.0" type="curve"/>
      <point x="66.0" y="334.0" type="line"/>
      <point x="66.0" y="318.5360270047378"/>
      <point x="78.53602700473778" y="306.0"/>
      <point x="94.0" y="306.0" type="curve"/>
      <point x="396.0" y="306.0" type="line"/>
      <point x="411.4639729952622" y="306.0"/>
      <point x="424.0" y="293.4639729952622"/>
      <point x="424.0" y="278.0" type="curve"/>
      <point x="424.0" y="156.0" type="line"/>
      <point x="424.0" y="140.53602700473778"/>
      <point x="436.5360270047378" y="128.0"/>
      <point x="452.0" y="128.0" type="curve"/>
      <point x="492.0" y="128.0" type="line"/>
      <point x="507.4639729952622" y="128.0"/>
      <point x="520.0" y="140.53602700473778"/>
      <point x="520.0" y="156.0" type="curve"/>
    </contour>
  </outline>
</glyph>
<glyph name="registered" format="2">
  <advance width="798"/>
  <unicode hex="00AE"/>
  <outline>
    <contour>
      <point x="398" y="-3" type="curve" smooth="yes"/>
      <point x="597" y="-3"/>
      <point x="752" y="153"/>
      <point x="752" y="352" type="curve" smooth="yes"/>
      <point x="752" y="551"/>
      <point x="601" y="703"/>
      <point x="400" y="703" type="curve" smooth="yes"/>
      <point x="199" y="703"/>
      <point x="46" y="547"/>
      <point x="46" y="350" type="curve" smooth="yes"/>
      <point x="46" y="153"/>
      <point x="199" y="-3"/>
    </contour>
    <contour>
      <point x="511" y="152" type="line"/>
      <point x="588" y="152" type="line"/>
      <point x="489" y="304" type="line"/>
      <point x="412" y="304" type="line"/>
    </contour>
    <contour>
      <point x="398" y="47" type="curve" smooth="yes"/>
      <point x="226" y="47"/>
      <point x="98" y="180"/>
      <point x="98" y="350" type="curve" smooth="yes"/>
      <point x="98" y="520"/>
      <point x="226" y="653"/>
      <point x="400" y="653" type="curve" smooth="yes"/>
      <point x="573" y="653"/>
      <point x="700" y="523"/>
      <point x="700" y="352" type="curve" smooth="yes"/>
      <point x="700" y="181"/>
      <point x="569" y="47"/>
    </contour>
    <contour>
      <point x="254" y="152" type="line"/>
      <point x="331" y="152" type="line"/>
      <point x="331.0" y="247.0" type="line"/>
      <point x="331.0" y="262.4639729952622"/>
      <point x="343.5360270047378" y="275.0"/>
      <point x="359.0" y="275.0" type="curve"/>
      <point x="416" y="275" type="line" smooth="yes"/>
      <point x="518" y="275"/>
      <point x="580" y="325"/>
      <point x="580" y="412" type="curve" smooth="yes"/>
      <point x="580" y="495"/>
      <point x="518" y="548"/>
      <point x="416" y="548" type="curve" smooth="yes"/>
      <point x="254" y="548" type="line"/>
    </contour>
    <contour>
      <point x="358.0" y="338.0" type="line"/>
      <point x="342.5360270047378" y="338.0"/>
      <point x="330.0" y="350.5360270047378"/>
      <point x="330.0" y="366.0" type="curve"/>
      <point x="330.0" y="457.0" type="line"/>
      <point x="330.0" y="472.4639729952622"/>
      <point x="342.5360270047378" y="485.0"/>
      <point x="358.0" y="485.0" type="curve"/>
      <point x="411" y="485" type="line" smooth="yes"/>
      <point x="471" y="485"/>
      <point x="506" y="459"/>
      <point x="506" y="412" type="curve" smooth="yes"/>
      <point x="506" y="365"/>
      <point x="471" y="338"/>
      <point x="411" y="338" type="curve" smooth="yes"/>
    </contour>
  </outline>
</glyph>
<glyph name="plusminus" format="2">
  <advance width="586"/>
  <unicode hex="00B1"/>
  <outline>
    <contour>
      <point x="66.0" y="27.999999999999996" type="line"/>
      <point x="66.0" y="12.536027004737779"/>
      <point x="78.53602700473778" y="0.0"/>
      <point x="94.0" y="0.0" type="curve"/>
      <point x="492.0" y="0.0" type="line"/>
      <point x="507.4639729952622" y="0.0"/>
      <point x="520.0" y="12.536027004737779"/>
      <point x="520.0" y="27.999999999999996" type="curve"/>
      <point x="520.0" y="62.0" type="line"/>
      <point x="520.0" y="77.46397299526222"/>
      <point x="507.4639729952622" y="90.0"/>
      <point x="492.0" y="90.0" type="curve"/>
      <point x="94.0" y="90.0" type="line"/>
      <point x="78.53602700473778" y="90.0"/>
      <point x="66.0" y="77.46397299526222"/>
      <point x="66.0" y="62.0" type="curve"/>
    </contour>
    <contour>
      <point x="245.0" y="219.0" type="line"/>
      <point x="245.0" y="203.53602700473778"/>
      <point x="257.5360270047378" y="191.0"/>
      <point x="273.0" y="191.0" type="curve"/>
      <point x="313.0" y="191.0" type="line"/>
      <point x="328.4639729952622" y="191.0"/>
      <point x="341.0" y="203.53602700473778"/>
      <point x="341.0" y="219.0" type="curve"/>
      <point x="341.0" y="595.0" type="line"/>
      <point x="341.0" y="610.4639729952622"/>
      <point x="328.4639729952622" y="623.0"/>
      <point x="313.0" y="623.0" type="curve"/>
      <point x="273.0" y="623.0" type="line"/>
      <point x="257.5360270047378" y="623.0"/>
      <point x="245.0" y="610.4639729952622"/>
      <point x="245.0" y="595.0" type="curve"/>
    </contour>
    <contour>
      <point x="66.0" y="390.0" type="line"/>
      <point x="66.0" y="374.5360270047378"/>
      <point x="78.53602700473778" y="362.0"/>
      <point x="94.0" y="362.0" type="curve"/>
      <point x="492.0" y="362.0" type="line"/>
      <point x="507.4639729952622" y="362.0"/>
      <point x="520.0" y="374.5360270047378"/>
      <point x="520.0" y="390.0" type="curve"/>
      <point x="520.0" y="424.0" type="line"/>
      <point x="520.0" y="439.4639729952622"/>
      <point x="507.4639729952622" y="452.0"/>
      <point x="492.0" y="452.0" type="curve"/>
      <point x="94.0" y="452.0" type="line"/>
      <point x="78.53602700473778" y="452.0"/>
      <point x="66.0" y="439.4639729952622"/>
      <point x="66.0" y="424.0" type="curve"/>
    </contour>
  </outline>
</glyph>
<glyph name="paragraph" format="2">
  <advance width="657"/>
  <unicode hex="00B6"/>
  <outline>
    <contour>
      <point x="227.0" y="-72.0" type="line"/>
      <point x="227.0" y="-87.46397299526222"/>
      <point x="239.53602700473778" y="-100.0"/>
      <point x="255.0" y="-100.0" type="curve"/>
      <point x="290.0" y="-100.0" type="line"/>
      <point x="305.4639729952622" y="-100.0"/>
      <point x="318.0" y="-87.46397299526222"/>
      <point x="318.0" y="-72.0" type="curve"/>
      <point x="318.0" y="629.0" type="line"/>
      <point x="318.0" y="644.4639729952622"/>
      <point x="330.5360270047378" y="657.0"/>
      <point x="346.0" y="657.0" type="curve"/>
      <point x="438.0" y="657.0" type="line"/>
      <point x="453.4639729952622" y="657.0"/>
      <point x="466.0" y="644.4639729952622"/>
      <point x="466.0" y="629.0" type="curve"/>
      <point x="466.0" y="-72.0" type="line"/>
      <point x="466.0" y="-87.46397299526222"/>
      <point x="478.5360270047378" y="-100.0"/>
      <point x="494.0" y="-100.0" type="curve"/>
      <point x="529.0" y="-100.0" type="line"/>
      <point x="544.4639729952622" y="-100.0"/>
      <point x="557.0" y="-87.46397299526222"/>
      <point x="557.0" y="-72.0" type="curve"/>
      <point x="557.0" y="714.0" type="line"/>
      <point x="557.0" y="729.4639729952622"/>
      <point x="544.4639729952622" y="742.0"/>
      <point x="529.0" y="742.0" type="curve"/>
      <point x="244" y="742" type="line" smooth="yes"/>
      <point x="107" y="742"/>
      <point x="18" y="672"/>
      <point x="18" y="560" type="curve" smooth="yes"/>
      <point x="18" y="449"/>
      <point x="105" y="379"/>
      <point x="227" y="377" type="curve"/>
    </contour>
  </outline>
</glyph>
<glyph name="questiondown" format="2">
  <advance width="577"/>
  <unicode hex="00BF"/>
  <outline>
    <contour>
      <point x="306" y="-163" type="curve" smooth="yes"/>
      <point x="412.3660510047298" y="-163.0"/>
      <point x="494.7640133017254" y="-128.64573951891438"/>
      <point x="551.0515415582367" y="-69.22071499866067" type="curve"/>
      <point x="562.0034024975391" y="-57.658391602710765"/>
      <point x="559.1352009927572" y="-39.36877212586511"/>
      <point x="546.1028849385364" y="-30.215121563971948" type="curve"/>
      <point x="508.06825366062225" y="-3.5003210235322957" type="line"/>
      <point x="495.7485358305901" y="5.1528141189903085"/>
      <point x="478.9338549646471" y="2.312005460340634"/>
      <point x="468.31076257407545" y="-8.355801402728794" type="curve"/>
      <point x="431.28679528700354" y="-45.53560910859306"/>
      <point x="380.68297977941165" y="-66.0"/>
      <point x="314" y="-66" type="curve" smooth="yes"/>
      <point x="231" y="-66"/>
      <point x="180" y="-25"/>
      <point x="180" y="26" type="curve" smooth="yes"/>
      <point x="180.0" y="123.98573390511365"/>
      <point x="330.65834924841784" y="154.0445820219233"/>
      <point x="350.7870683159364" y="277.0875846018879" type="curve"/>
      <point x="353.2836478653319" y="292.34869699095503"/>
      <point x="340.4639729952622" y="305.0"/>
      <point x="325.0" y="305.0" type="curve"/>
      <point x="265.7656944956466" y="305.0" type="line"/>
      <point x="250.3935276537244" y="305.0"/>
      <point x="238.31087817291942" y="292.34150231490236"/>
      <point x="234.44922023874844" y="277.462284882008" type="curve"/>
      <point x="209.85215653120952" y="182.68820976864757"/>
      <point x="65.91721358523819" y="158.83696005287175"/>
      <point x="65" y="13" type="curve" smooth="yes"/>
      <point x="64" y="-96"/>
      <point x="160" y="-163"/>
    </contour>
    <contour>
      <point x="295" y="396" type="curve" smooth="yes"/>
      <point x="337" y="396"/>
      <point x="367" y="427"/>
      <point x="367" y="466" type="curve" smooth="yes"/>
      <point x="367" y="506"/>
      <point x="337" y="538"/>
      <point x="295" y="538" type="curve" smooth="yes"/>
      <point x="253" y="538"/>
      <point x="223" y="506"/>
      <point x="223" y="466" type="curve" smooth="yes"/>
      <point x="223" y="427"/>
      <point x="253" y="396"/>
    </contour>
  </outline>
</glyph>
